<svg width="23" height="24" viewBox="0 0 23 24" fill="none" xmlns="http://www.w3.org/2000/svg">
<path d="M13.8365 0.199738C14.0149 0.199743 14.1887 0.256385 14.3329 0.361506C14.4771 0.466628 14.5843 0.614803 14.6389 0.784693L15.566 3.66564C15.9554 3.85613 16.328 4.07022 16.6837 4.31128L19.6439 3.67407C19.8184 3.63681 20.0003 3.6559 20.1632 3.72861C20.3262 3.80132 20.4619 3.92388 20.5508 4.07865L22.8872 8.12277C22.9765 8.27745 23.0143 8.45646 22.9952 8.634C22.9761 8.81155 22.9011 8.97844 22.781 9.11062L20.7497 11.3527C20.7793 11.7826 20.7793 12.214 20.7497 12.644L22.781 14.8894C22.9011 15.0216 22.9761 15.1884 22.9952 15.366C23.0143 15.5435 22.9765 15.7225 22.8872 15.8772L20.5508 19.923C20.4617 20.0775 20.3259 20.1997 20.1629 20.2721C19.9999 20.3445 19.8182 20.3633 19.6439 20.3259L16.6837 19.6887C16.3297 19.9281 15.9554 20.1439 15.5677 20.3344L14.6389 23.2153C14.5843 23.3852 14.4771 23.5334 14.3329 23.6385C14.1887 23.7436 14.0149 23.8002 13.8365 23.8003H9.16355C8.9851 23.8002 8.81126 23.7436 8.66705 23.6385C8.52285 23.5334 8.41574 23.3852 8.36113 23.2153L7.43566 20.336C7.04729 20.1461 6.6727 19.9293 6.31463 19.687L3.35614 20.3259C3.1816 20.3632 2.99975 20.3441 2.83676 20.2714C2.67377 20.1987 2.53807 20.0761 2.4492 19.9213L0.112753 15.8772C0.0235333 15.7225 -0.0142572 15.5435 0.00483009 15.366C0.0239173 15.1884 0.098896 15.0216 0.218955 14.8894L2.25028 12.644C2.22086 12.2152 2.22086 11.7848 2.25028 11.356L0.218955 9.11062C0.098896 8.97844 0.0239173 8.81155 0.00483009 8.634C-0.0142572 8.45646 0.0235333 8.27745 0.112753 8.12277L2.4492 4.07697C2.53832 3.92251 2.67412 3.80029 2.83709 3.7279C3.00006 3.6555 3.18178 3.63665 3.35614 3.67407L6.31463 4.31297C6.67201 4.07191 7.04625 3.85445 7.43566 3.66396L8.36282 0.784693C8.41725 0.61535 8.52385 0.467567 8.66738 0.362497C8.8109 0.257426 8.98399 0.200455 9.16186 0.199738H13.8348H13.8365ZM13.2195 1.88549H9.78053L8.82303 4.86421L8.17738 5.17945C7.85999 5.33477 7.55359 5.51162 7.26034 5.70877L6.66358 6.11335L3.60226 5.45254L1.88279 8.43295L3.98155 10.7559L3.93098 11.4707C3.90676 11.8231 3.90676 12.1769 3.93098 12.5293L3.98155 13.2441L1.87942 15.567L3.60057 18.5475L6.6619 17.8883L7.25865 18.2912C7.5519 18.4884 7.8583 18.6652 8.1757 18.8205L8.82134 19.1358L9.78053 22.1145H13.2228L14.1837 19.1341L14.8277 18.8205C15.1447 18.6656 15.4506 18.4887 15.743 18.2912L16.3381 17.8883L19.4011 18.5475L21.1206 15.567L19.0201 13.2441L19.0707 12.5293C19.095 12.1763 19.095 11.822 19.0707 11.469L19.0201 10.7542L21.1223 8.43295L19.4011 5.45254L16.3381 6.10998L15.743 5.70877C15.4506 5.51123 15.1448 5.33435 14.8277 5.17945L14.1837 4.8659L13.2212 1.88549H13.2195ZM11.5 6.94274C12.8413 6.94274 14.1276 7.47556 15.076 8.42398C16.0244 9.3724 16.5573 10.6587 16.5573 12C16.5573 13.3413 16.0244 14.6276 15.076 15.576C14.1276 16.5244 12.8413 17.0572 11.5 17.0572C10.1587 17.0572 8.8724 16.5244 7.92398 15.576C6.97556 14.6276 6.44275 13.3413 6.44275 12C6.44275 10.6587 6.97556 9.3724 7.92398 8.42398C8.8724 7.47556 10.1587 6.94274 11.5 6.94274ZM11.5 8.62849C10.6058 8.62849 9.74827 8.9837 9.11599 9.61598C8.48371 10.2483 8.1285 11.1058 8.1285 12C8.1285 12.8942 8.48371 13.7517 9.11599 14.384C9.74827 15.0163 10.6058 15.3715 11.5 15.3715C12.3942 15.3715 13.2517 15.0163 13.884 14.384C14.5163 13.7517 14.8715 12.8942 14.8715 12C14.8715 11.1058 14.5163 10.2483 13.884 9.61598C13.2517 8.9837 12.3942 8.62849 11.5 8.62849Z" fill="#00544F"/>
</svg>
