<svg width="24" height="27" viewBox="0 0 24 27" fill="none" xmlns="http://www.w3.org/2000/svg">
<path d="M2.81715 14.4829L12.5763 4.77996C13.4725 3.88913 14.688 3.38867 15.9554 3.38867C17.2228 3.38867 18.4383 3.88913 19.3345 4.77996C20.2306 5.6708 20.7341 6.87902 20.7341 8.13885C20.7341 9.39868 20.2306 10.6069 19.3345 11.4977L8.07372 22.6933C7.92685 22.8446 7.75114 22.9653 7.55684 23.0484C7.36254 23.1315 7.15354 23.1752 6.94204 23.1772C6.73054 23.1791 6.52077 23.1391 6.32497 23.0596C6.12917 22.9801 5.95126 22.8626 5.80163 22.714C5.652 22.5654 5.53364 22.3887 5.45346 22.1941C5.37327 21.9996 5.33287 21.7911 5.33461 21.5808C5.33634 21.3706 5.38019 21.1628 5.46358 20.9696C5.54697 20.7764 5.66823 20.6016 5.8203 20.4555L17.0832 9.25777C17.3645 8.95762 17.5177 8.56062 17.5104 8.15041C17.5031 7.74021 17.336 7.34883 17.0441 7.05872C16.7523 6.76862 16.3585 6.60245 15.9459 6.59521C15.5332 6.58797 15.1338 6.74024 14.8319 7.01993L3.56688 18.2155C2.67069 19.1063 2.16722 20.3146 2.16722 21.5744C2.16722 22.8342 2.67069 24.0424 3.56688 24.9333C4.46306 25.8241 5.67855 26.3246 6.94595 26.3246C8.21335 26.3246 9.42883 25.8241 10.325 24.9333L21.59 13.7377C23.0838 12.2528 23.9231 10.2388 23.9231 8.13885C23.9231 6.03888 23.0838 4.02491 21.59 2.54C20.0962 1.0551 18.0701 0.220886 15.9575 0.220886C13.8449 0.220886 11.8188 1.0551 10.325 2.54L0.563731 12.243C0.411525 12.389 0.290093 12.5636 0.206521 12.7568C0.122948 12.9499 0.078908 13.1577 0.0769711 13.3679C0.0750341 13.5781 0.115239 13.7867 0.195239 13.9813C0.275239 14.1759 0.393432 14.3528 0.542923 14.5015C0.692413 14.6502 0.870207 14.7679 1.06593 14.8476C1.26165 14.9273 1.47139 14.9675 1.68289 14.9657C1.89439 14.964 2.10343 14.9204 2.29781 14.8375C2.49219 14.7546 2.66802 14.6341 2.81503 14.4829H2.81715Z" fill="#666666"/>
</svg>
