<svg width="46" height="45" viewBox="0 0 46 45" fill="none" xmlns="http://www.w3.org/2000/svg">
<circle cx="23.1958" cy="22.2727" r="22.2727" fill="#027E6D"/>
<path d="M19.8798 15.9426C19.1089 15.9311 18.4746 15.2968 18.4631 14.5259C18.4516 13.755 19.0672 13.1394 19.8381 13.1509L29.7082 13.2983C30.4791 13.3098 31.1133 13.944 31.1248 14.7149L31.2722 24.585C31.2837 25.3559 30.6681 25.9715 29.8972 25.96C29.1263 25.9485 28.492 25.3142 28.4805 24.5433L28.3835 18.0431L17.1189 29.3076C16.582 29.8446 15.6982 29.8314 15.1449 29.2782C14.5917 28.7249 14.5785 27.8411 15.1155 27.3042L26.38 16.0396L19.8798 15.9426Z" fill="white"/>
</svg>
