<svg width="58" height="58" viewBox="0 0 58 58" fill="none" xmlns="http://www.w3.org/2000/svg">
<circle cx="29" cy="29" r="29" fill="#AACD71"/>
<path d="M38.3435 32.2C38.8237 32.2 39.2992 32.2931 39.7428 32.474C40.1864 32.655 40.5895 32.9201 40.929 33.2544C41.2686 33.5887 41.5379 33.9856 41.7217 34.4223C41.9054 34.8591 42 35.3272 42 35.8V37.2464C42.0002 38.1113 41.8105 38.966 41.4439 39.752C41.0773 40.5379 40.5425 41.2366 39.876 41.8C37.3327 43.9504 33.6909 45 28.9943 45C24.2978 45 20.6608 43.9504 18.1224 41.8C17.4568 41.2369 16.9227 40.539 16.5564 39.7539C16.1901 38.9689 16.0003 38.1151 16 37.2512V35.7984C16.0004 34.8439 16.3859 33.9286 17.0715 33.2539C17.7572 32.5791 18.687 32.2 19.6565 32.2H38.3435ZM28.8318 13.0096L28.9943 13C29.2888 13 29.5734 13.105 29.7954 13.2956C30.0173 13.4862 30.1617 13.7495 30.2018 14.0368L30.2131 14.2L30.2115 15.3984H35.8994C36.8691 15.3984 37.7992 15.7777 38.4849 16.4528C39.1706 17.1279 39.5558 18.0436 39.5558 18.9984V26.2064C39.5558 27.1612 39.1706 28.0769 38.4849 28.752C37.7992 29.4271 36.8691 29.8064 35.8994 29.8064H22.086C21.1162 29.8064 20.1862 29.4271 19.5005 28.752C18.8148 28.0769 18.4295 27.1612 18.4295 26.2064V19C18.4295 18.5271 18.5242 18.0588 18.708 17.622C18.8919 17.1851 19.1614 16.7882 19.5011 16.4538C19.8408 16.1195 20.244 15.8544 20.6879 15.6736C21.1317 15.4928 21.6073 15.3998 22.0876 15.4L27.7755 15.3984V14.2C27.7756 13.9098 27.8824 13.6294 28.0764 13.4108C28.2703 13.1923 28.5381 13.0503 28.8302 13.0112L28.9943 13L28.8286 13.0112L28.8318 13.0096ZM25.3362 20.2C25.0628 20.1892 24.79 20.2329 24.5342 20.3285C24.2784 20.4241 24.0449 20.5696 23.8476 20.7562C23.6503 20.9428 23.4933 21.1668 23.3861 21.4146C23.2789 21.6624 23.2236 21.929 23.2236 22.1984C23.2236 22.4678 23.2789 22.7344 23.3861 22.9822C23.4933 23.23 23.6503 23.454 23.8476 23.6406C24.0449 23.8272 24.2784 23.9727 24.5342 24.0683C24.79 24.1639 25.0628 24.2076 25.3362 24.1968C25.8605 24.1761 26.3563 23.9566 26.7198 23.584C27.0833 23.2115 27.2863 22.715 27.2863 22.1984C27.2863 21.6818 27.0833 21.1853 26.7198 20.8128C26.3563 20.4402 25.8605 20.2207 25.3362 20.2ZM32.6378 20.2C32.3644 20.1892 32.0916 20.2329 31.8358 20.3285C31.58 20.4241 31.3465 20.5696 31.1492 20.7562C30.9519 20.9428 30.7949 21.1668 30.6877 21.4146C30.5804 21.6624 30.5252 21.929 30.5252 22.1984C30.5252 22.4678 30.5804 22.7344 30.6877 22.9822C30.7949 23.23 30.9519 23.454 31.1492 23.6406C31.3465 23.8272 31.58 23.9727 31.8358 24.0683C32.0916 24.1639 32.3644 24.2076 32.6378 24.1968C33.1621 24.1761 33.6579 23.9566 34.0214 23.584C34.3849 23.2115 34.5879 22.715 34.5879 22.1984C34.5879 21.6818 34.3849 21.1853 34.0214 20.8128C33.6579 20.4402 33.1621 20.2207 32.6378 20.2Z" fill="white"/>
</svg>
