<svg width="50" height="50" viewBox="0 0 50 50" fill="none" xmlns="http://www.w3.org/2000/svg">
<g filter="url(#filter0_d_48_1914)">
<circle cx="24.6667" cy="20.6667" r="16.6667" fill="white"/>
<path d="M24.2346 25.6393C23.8613 25.6393 23.4786 25.5833 23.0866 25.4713C22.704 25.35 22.368 25.1727 22.0786 24.9393C22.004 24.874 21.9433 24.79 21.8966 24.6873C21.85 24.5847 21.8266 24.4867 21.8266 24.3933C21.8266 24.2813 21.8733 24.174 21.9666 24.0713C22.0693 23.9593 22.2 23.9033 22.3586 23.9033C22.48 23.9033 22.62 23.964 22.7786 24.0853C22.984 24.244 23.2126 24.37 23.4646 24.4633C23.7166 24.5567 23.9686 24.6033 24.2206 24.6033C24.7433 24.6033 25.196 24.5053 25.5786 24.3093C25.9613 24.1133 26.2553 23.838 26.4606 23.4833C26.666 23.1287 26.7686 22.7133 26.7686 22.2373C26.7686 21.808 26.6706 21.4347 26.4746 21.1173C26.288 20.7907 26.022 20.5387 25.6766 20.3613C25.3406 20.184 24.9533 20.0953 24.5146 20.0953C24.188 20.0953 23.894 20.1467 23.6326 20.2493C23.3806 20.3427 23.1566 20.4407 22.9606 20.5433C22.774 20.646 22.6106 20.6973 22.4706 20.6973C22.2933 20.6973 22.158 20.66 22.0646 20.5853C21.9713 20.5013 21.9106 20.3987 21.8826 20.2773C21.8546 20.156 21.8453 20.044 21.8546 19.9413L22.4006 16.3153C22.4286 16.194 22.494 16.0867 22.5966 15.9933C22.6993 15.9 22.8253 15.8533 22.9746 15.8533H27.1326C27.282 15.8533 27.408 15.9047 27.5106 16.0073C27.6133 16.11 27.6646 16.2407 27.6646 16.3993C27.6646 16.5487 27.6133 16.6747 27.5106 16.7773C27.408 16.8707 27.282 16.9173 27.1326 16.9173H23.2546L23.3946 16.7913L22.8766 19.9553L22.6526 19.6613C22.7553 19.568 22.9093 19.4747 23.1146 19.3813C23.3293 19.288 23.572 19.2087 23.8426 19.1433C24.1226 19.078 24.4073 19.0453 24.6966 19.0453C25.3033 19.0453 25.8446 19.1853 26.3206 19.4653C26.806 19.736 27.1886 20.1093 27.4686 20.5853C27.7486 21.0613 27.8886 21.6073 27.8886 22.2233C27.8886 22.9047 27.7393 23.502 27.4406 24.0153C27.142 24.5287 26.7173 24.93 26.1666 25.2193C25.6253 25.4993 24.9813 25.6393 24.2346 25.6393Z" fill="#111111"/>
</g>
<defs>
<filter id="filter0_d_48_1914" x="0" y="0" width="56" height="56" filterUnits="userSpaceOnUse" color-interpolation-filters="sRGB">
<feFlood flood-opacity="0" result="BackgroundImageFix"/>
<feColorMatrix in="SourceAlpha" type="matrix" values="0 0 0 0 0 0 0 0 0 0 0 0 0 0 0 0 0 0 127 0" result="hardAlpha"/>
<feOffset dy="4"/>
<feGaussianBlur stdDeviation="4"/>
<feComposite in2="hardAlpha" operator="out"/>
<feColorMatrix type="matrix" values="0 0 0 0 0 0 0 0 0 0 0 0 0 0 0 0 0 0 0.15 0"/>
<feBlend mode="normal" in2="BackgroundImageFix" result="effect1_dropShadow_48_1914"/>
<feBlend mode="normal" in="SourceGraphic" in2="effect1_dropShadow_48_1914" result="shape"/>
</filter>
</defs>
</svg>
