<svg width="50" height="50" viewBox="0 0 50 50" fill="none" xmlns="http://www.w3.org/2000/svg">
<g filter="url(#filter0_d_48_1899)">
<circle cx="24.6667" cy="20.6667" r="16.6667" fill="white"/>
<path d="M27.4826 24.5333C27.632 24.5333 27.758 24.5847 27.8606 24.6873C27.9633 24.79 28.0146 24.916 28.0146 25.0653C28.0146 25.2147 27.9633 25.3407 27.8606 25.4433C27.758 25.5367 27.632 25.5833 27.4826 25.5833H22.4006C22.2326 25.5833 22.0926 25.5367 21.9806 25.4433C21.878 25.3407 21.8266 25.2053 21.8266 25.0373C21.8266 24.888 21.8826 24.7527 21.9946 24.6313L25.1586 21.1733C25.6253 20.6693 25.9753 20.198 26.2086 19.7593C26.4513 19.3113 26.5726 18.9147 26.5726 18.5693C26.5726 18 26.4 17.5473 26.0546 17.2113C25.7186 16.866 25.266 16.6933 24.6966 16.6933C24.4446 16.6933 24.1926 16.7493 23.9406 16.8613C23.6886 16.964 23.46 17.1087 23.2546 17.2953C23.0493 17.4727 22.8813 17.6733 22.7506 17.8973C22.676 18.0187 22.5966 18.098 22.5126 18.1353C22.438 18.1633 22.3586 18.1773 22.2746 18.1773C22.1346 18.1773 22.0086 18.1307 21.8966 18.0373C21.7846 17.9347 21.7286 17.818 21.7286 17.6873C21.7286 17.5847 21.7566 17.4913 21.8126 17.4073C21.8686 17.314 21.9433 17.2113 22.0366 17.0993C22.2326 16.8287 22.4753 16.586 22.7646 16.3713C23.0633 16.1473 23.3853 15.97 23.7306 15.8393C24.0853 15.7087 24.4306 15.6433 24.7666 15.6433C25.364 15.6433 25.882 15.76 26.3206 15.9933C26.7686 16.2267 27.114 16.558 27.3566 16.9873C27.5993 17.4167 27.7206 17.9207 27.7206 18.4993C27.7206 18.994 27.5713 19.54 27.2726 20.1373C26.974 20.7347 26.5353 21.3413 25.9566 21.9573L23.5066 24.6733L23.3666 24.5333H27.4826Z" fill="#111111"/>
</g>
<defs>
<filter id="filter0_d_48_1899" x="0" y="0" width="56" height="56" filterUnits="userSpaceOnUse" color-interpolation-filters="sRGB">
<feFlood flood-opacity="0" result="BackgroundImageFix"/>
<feColorMatrix in="SourceAlpha" type="matrix" values="0 0 0 0 0 0 0 0 0 0 0 0 0 0 0 0 0 0 127 0" result="hardAlpha"/>
<feOffset dy="4"/>
<feGaussianBlur stdDeviation="4"/>
<feComposite in2="hardAlpha" operator="out"/>
<feColorMatrix type="matrix" values="0 0 0 0 0 0 0 0 0 0 0 0 0 0 0 0 0 0 0.15 0"/>
<feBlend mode="normal" in2="BackgroundImageFix" result="effect1_dropShadow_48_1899"/>
<feBlend mode="normal" in="SourceGraphic" in2="effect1_dropShadow_48_1899" result="shape"/>
</filter>
</defs>
</svg>
