<svg width="50" height="50" viewBox="0 0 50 50" fill="none" xmlns="http://www.w3.org/2000/svg">
<g filter="url(#filter0_d_48_1904)">
<circle cx="24.6667" cy="20.6667" r="16.6667" fill="white"/>
<path d="M22.2746 23.9593C22.3306 23.9593 22.3913 23.9733 22.4566 24.0013C22.5313 24.02 22.6106 24.0667 22.6946 24.1413C22.8813 24.3093 23.1006 24.4447 23.3526 24.5473C23.6046 24.65 23.894 24.7013 24.2206 24.7013C24.622 24.7013 24.9906 24.6127 25.3266 24.4353C25.6626 24.2487 25.9333 23.9873 26.1386 23.6513C26.3533 23.3153 26.4606 22.928 26.4606 22.4893C26.4606 22.0133 26.3533 21.626 26.1386 21.3273C25.9333 21.0193 25.6673 20.7953 25.3406 20.6553C25.0233 20.506 24.6873 20.4313 24.3326 20.4313C24.202 20.4313 24.0806 20.4407 23.9686 20.4593C23.8566 20.478 23.7493 20.5013 23.6466 20.5293C23.5533 20.5573 23.4646 20.5713 23.3806 20.5713C23.2313 20.5713 23.1146 20.52 23.0306 20.4173C22.9466 20.3147 22.9046 20.1887 22.9046 20.0393C22.9046 19.9553 22.9186 19.8807 22.9466 19.8153C22.984 19.7407 23.04 19.6613 23.1146 19.5773L25.8306 16.6373L26.0546 16.9033H22.0786C21.9293 16.9033 21.8033 16.852 21.7006 16.7493C21.598 16.6467 21.5466 16.5207 21.5466 16.3713C21.5466 16.222 21.598 16.1007 21.7006 16.0073C21.8033 15.9047 21.9293 15.8533 22.0786 15.8533H26.6426C26.848 15.8533 26.9973 15.914 27.0906 16.0353C27.184 16.1473 27.2306 16.2733 27.2306 16.4133C27.2306 16.4973 27.2073 16.5767 27.1606 16.6513C27.1233 16.726 27.072 16.796 27.0066 16.8613L24.2906 19.8153L23.9686 19.5353C24.0153 19.498 24.1226 19.4653 24.2906 19.4373C24.4586 19.4 24.5986 19.3813 24.7106 19.3813C25.2333 19.3813 25.714 19.5073 26.1526 19.7593C26.5913 20.0113 26.9413 20.366 27.2026 20.8233C27.464 21.2807 27.5946 21.8127 27.5946 22.4193C27.5946 23.0913 27.4406 23.6747 27.1326 24.1693C26.8246 24.664 26.4 25.0467 25.8586 25.3173C25.3266 25.588 24.7246 25.7233 24.0526 25.7233C23.6793 25.7233 23.3106 25.6673 22.9466 25.5553C22.592 25.434 22.284 25.2613 22.0226 25.0373C21.9013 24.972 21.8173 24.8973 21.7706 24.8133C21.7333 24.7293 21.7146 24.6453 21.7146 24.5613C21.7146 24.4213 21.766 24.286 21.8686 24.1553C21.9806 24.0247 22.116 23.9593 22.2746 23.9593Z" fill="#111111"/>
</g>
<defs>
<filter id="filter0_d_48_1904" x="0" y="0" width="56" height="56" filterUnits="userSpaceOnUse" color-interpolation-filters="sRGB">
<feFlood flood-opacity="0" result="BackgroundImageFix"/>
<feColorMatrix in="SourceAlpha" type="matrix" values="0 0 0 0 0 0 0 0 0 0 0 0 0 0 0 0 0 0 127 0" result="hardAlpha"/>
<feOffset dy="4"/>
<feGaussianBlur stdDeviation="4"/>
<feComposite in2="hardAlpha" operator="out"/>
<feColorMatrix type="matrix" values="0 0 0 0 0 0 0 0 0 0 0 0 0 0 0 0 0 0 0.15 0"/>
<feBlend mode="normal" in2="BackgroundImageFix" result="effect1_dropShadow_48_1904"/>
<feBlend mode="normal" in="SourceGraphic" in2="effect1_dropShadow_48_1904" result="shape"/>
</filter>
</defs>
</svg>
