<svg width="197" height="40" viewBox="0 0 197 40" fill="none" xmlns="http://www.w3.org/2000/svg">
<path d="M10.1965 9.04594V5.09826C10.1965 2.28257 7.91395 0 5.09826 0C2.28257 0 0 2.28257 0 5.09826V34.5728C0 37.3885 2.28257 39.6711 5.09826 39.6711C7.91395 39.6711 10.1965 37.3885 10.1965 34.5728V28.2828C10.1965 26.579 10.8763 24.9456 12.085 23.7449L16.6141 19.2457C18.9977 16.8778 17.3209 12.8104 13.961 12.8104C11.8819 12.8104 10.1965 11.125 10.1965 9.04594Z" fill="white"/>
<path d="M20.4194 14.6739V4.79028C20.4194 2.14468 22.5641 0 25.2097 0C27.8553 0 30 2.14469 30 4.79029V34.8808C30 37.5264 27.8553 39.6711 25.2097 39.6711H24.7739C22.369 39.6711 20.4194 37.7215 20.4194 35.3166V34.0458C20.4194 31.9547 18.506 30.3866 16.4556 30.7973C13.3751 31.4144 11.2459 27.7975 13.2802 25.4034L18.912 18.7759C19.8851 17.6306 20.4194 16.1768 20.4194 14.6739Z" fill="#AACD71"/>
<path d="M50.084 15.5755C50.5693 15.5755 50.9707 15.7342 51.288 16.0515C51.6053 16.3689 51.764 16.7795 51.764 17.2835V29.1275C51.764 29.6129 51.6053 30.0235 51.288 30.3595C50.9707 30.6769 50.5693 30.8355 50.084 30.8355C49.5987 30.8355 49.1973 30.6769 48.88 30.3595C48.5627 30.0235 48.404 29.6129 48.404 29.1275V27.7555L49.02 28.0075C49.02 28.2502 48.8893 28.5489 48.628 28.9035C48.3667 29.2395 48.012 29.5755 47.564 29.9115C47.116 30.2475 46.584 30.5369 45.968 30.7795C45.3707 31.0035 44.7173 31.1155 44.008 31.1155C42.72 31.1155 41.5533 30.7889 40.508 30.1355C39.4627 29.4635 38.632 28.5489 38.016 27.3915C37.4187 26.2155 37.12 24.8715 37.12 23.3595C37.12 21.8289 37.4187 20.4849 38.016 19.3275C38.632 18.1515 39.4533 17.2369 40.48 16.5835C41.5067 15.9115 42.6453 15.5755 43.896 15.5755C44.6987 15.5755 45.436 15.6969 46.108 15.9395C46.78 16.1822 47.3587 16.4902 47.844 16.8635C48.348 17.2369 48.7307 17.6195 48.992 18.0115C49.272 18.3849 49.412 18.7022 49.412 18.9635L48.404 19.3275V17.2835C48.404 16.7982 48.5627 16.3969 48.88 16.0795C49.1973 15.7435 49.5987 15.5755 50.084 15.5755ZM44.428 28.0355C45.2493 28.0355 45.968 27.8302 46.584 27.4195C47.2 27.0089 47.676 26.4489 48.012 25.7395C48.3667 25.0302 48.544 24.2369 48.544 23.3595C48.544 22.4635 48.3667 21.6609 48.012 20.9515C47.676 20.2422 47.2 19.6822 46.584 19.2715C45.968 18.8609 45.2493 18.6555 44.428 18.6555C43.6253 18.6555 42.916 18.8609 42.3 19.2715C41.684 19.6822 41.1987 20.2422 40.844 20.9515C40.508 21.6609 40.34 22.4635 40.34 23.3595C40.34 24.2369 40.508 25.0302 40.844 25.7395C41.1987 26.4489 41.684 27.0089 42.3 27.4195C42.916 27.8302 43.6253 28.0355 44.428 28.0355ZM63.158 15.5755C64.4647 15.5755 65.6314 15.9115 66.658 16.5835C67.7034 17.2369 68.5247 18.1422 69.122 19.2995C69.738 20.4569 70.046 21.8009 70.046 23.3315C70.046 24.8622 69.738 26.2155 69.122 27.3915C68.5247 28.5489 67.7127 29.4635 66.686 30.1355C65.678 30.7889 64.5394 31.1155 63.27 31.1155C62.5234 31.1155 61.8234 30.9942 61.17 30.7515C60.5167 30.5089 59.938 30.2009 59.434 29.8275C58.9487 29.4542 58.566 29.0809 58.286 28.7075C58.0247 28.3155 57.894 27.9889 57.894 27.7275L58.762 27.3635V34.7275C58.762 35.2129 58.6034 35.6142 58.286 35.9315C57.9687 36.2675 57.5674 36.4355 57.082 36.4355C56.5967 36.4355 56.1954 36.2769 55.878 35.9595C55.5607 35.6422 55.402 35.2315 55.402 34.7275V17.5635C55.402 17.0782 55.5607 16.6769 55.878 16.3595C56.1954 16.0235 56.5967 15.8555 57.082 15.8555C57.5674 15.8555 57.9687 16.0235 58.286 16.3595C58.6034 16.6769 58.762 17.0782 58.762 17.5635V18.9355L58.286 18.6835C58.286 18.4409 58.4167 18.1515 58.678 17.8155C58.9394 17.4609 59.294 17.1155 59.742 16.7795C60.19 16.4249 60.7034 16.1355 61.282 15.9115C61.8794 15.6875 62.5047 15.5755 63.158 15.5755ZM62.738 18.6555C61.9167 18.6555 61.198 18.8609 60.582 19.2715C59.966 19.6822 59.4807 20.2422 59.126 20.9515C58.79 21.6422 58.622 22.4355 58.622 23.3315C58.622 24.2089 58.79 25.0115 59.126 25.7395C59.4807 26.4489 59.966 27.0089 60.582 27.4195C61.198 27.8302 61.9167 28.0355 62.738 28.0355C63.5594 28.0355 64.2687 27.8302 64.866 27.4195C65.482 27.0089 65.958 26.4489 66.294 25.7395C66.6487 25.0115 66.826 24.2089 66.826 23.3315C66.826 22.4355 66.6487 21.6422 66.294 20.9515C65.958 20.2422 65.482 19.6822 64.866 19.2715C64.2687 18.8609 63.5594 18.6555 62.738 18.6555ZM80.7401 15.5755C82.0467 15.5755 83.2134 15.9115 84.2401 16.5835C85.2854 17.2369 86.1067 18.1422 86.7041 19.2995C87.3201 20.4569 87.6281 21.8009 87.6281 23.3315C87.6281 24.8622 87.3201 26.2155 86.7041 27.3915C86.1067 28.5489 85.2947 29.4635 84.2681 30.1355C83.2601 30.7889 82.1214 31.1155 80.8521 31.1155C80.1054 31.1155 79.4054 30.9942 78.7521 30.7515C78.0987 30.5089 77.5201 30.2009 77.0161 29.8275C76.5307 29.4542 76.1481 29.0809 75.8681 28.7075C75.6067 28.3155 75.4761 27.9889 75.4761 27.7275L76.3441 27.3635V34.7275C76.3441 35.2129 76.1854 35.6142 75.8681 35.9315C75.5507 36.2675 75.1494 36.4355 74.6641 36.4355C74.1787 36.4355 73.7774 36.2769 73.4601 35.9595C73.1427 35.6422 72.9841 35.2315 72.9841 34.7275V17.5635C72.9841 17.0782 73.1427 16.6769 73.4601 16.3595C73.7774 16.0235 74.1787 15.8555 74.6641 15.8555C75.1494 15.8555 75.5507 16.0235 75.8681 16.3595C76.1854 16.6769 76.3441 17.0782 76.3441 17.5635V18.9355L75.8681 18.6835C75.8681 18.4409 75.9987 18.1515 76.2601 17.8155C76.5214 17.4609 76.8761 17.1155 77.3241 16.7795C77.7721 16.4249 78.2854 16.1355 78.8641 15.9115C79.4614 15.6875 80.0867 15.5755 80.7401 15.5755ZM80.3201 18.6555C79.4987 18.6555 78.7801 18.8609 78.1641 19.2715C77.5481 19.6822 77.0627 20.2422 76.7081 20.9515C76.3721 21.6422 76.2041 22.4355 76.2041 23.3315C76.2041 24.2089 76.3721 25.0115 76.7081 25.7395C77.0627 26.4489 77.5481 27.0089 78.1641 27.4195C78.7801 27.8302 79.4987 28.0355 80.3201 28.0355C81.1414 28.0355 81.8507 27.8302 82.4481 27.4195C83.0641 27.0089 83.5401 26.4489 83.8761 25.7395C84.2307 25.0115 84.4081 24.2089 84.4081 23.3315C84.4081 22.4355 84.2307 21.6422 83.8761 20.9515C83.5401 20.2422 83.0641 19.6822 82.4481 19.2715C81.8507 18.8609 81.1414 18.6555 80.3201 18.6555ZM101.682 15.8555C102.167 15.8555 102.569 16.0235 102.886 16.3595C103.203 16.6769 103.362 17.0782 103.362 17.5635V29.4635C103.362 31.1809 103.035 32.5435 102.382 33.5515C101.747 34.5782 100.889 35.3155 99.8061 35.7635C98.7234 36.2115 97.5101 36.4355 96.1661 36.4355C95.5688 36.4355 94.9341 36.3889 94.2621 36.2955C93.5901 36.2022 93.0394 36.0622 92.6101 35.8755C92.0501 35.6329 91.6581 35.3249 91.4341 34.9515C91.2288 34.5969 91.1914 34.2142 91.3221 33.8035C91.4901 33.2622 91.7608 32.8889 92.1341 32.6835C92.5074 32.4969 92.8994 32.4782 93.3101 32.6275C93.6088 32.7209 94.0008 32.8609 94.4861 33.0475C94.9714 33.2529 95.5314 33.3555 96.1661 33.3555C97.0248 33.3555 97.7341 33.2342 98.2941 32.9915C98.8728 32.7675 99.3021 32.3755 99.5821 31.8155C99.8808 31.2742 100.03 30.5275 100.03 29.5755V27.6995L100.618 28.3715C100.301 28.9875 99.8994 29.5009 99.4141 29.9115C98.9474 30.3035 98.3874 30.6022 97.7341 30.8075C97.0808 31.0129 96.3341 31.1155 95.4941 31.1155C94.5048 31.1155 93.6368 30.8915 92.8901 30.4435C92.1621 29.9769 91.5928 29.3422 91.1821 28.5395C90.7714 27.7182 90.5661 26.7849 90.5661 25.7395V17.5635C90.5661 17.0782 90.7248 16.6769 91.0421 16.3595C91.3594 16.0235 91.7608 15.8555 92.2461 15.8555C92.7314 15.8555 93.1328 16.0235 93.4501 16.3595C93.7674 16.6769 93.9261 17.0782 93.9261 17.5635V24.7315C93.9261 25.9449 94.1874 26.8035 94.7101 27.3075C95.2514 27.7929 95.9981 28.0355 96.9501 28.0355C97.6034 28.0355 98.1541 27.9142 98.6021 27.6715C99.0501 27.4102 99.3954 27.0369 99.6381 26.5515C99.8808 26.0475 100.002 25.4409 100.002 24.7315V17.5635C100.002 17.0782 100.161 16.6769 100.478 16.3595C100.795 16.0235 101.197 15.8555 101.682 15.8555ZM109.044 11.2075C109.305 11.2075 109.576 11.2822 109.856 11.4315C110.154 11.5622 110.378 11.7395 110.528 11.9635L117.332 22.4355L115.932 22.3795L122.904 11.9635C123.258 11.4595 123.716 11.2075 124.276 11.2075C124.724 11.2075 125.125 11.3662 125.48 11.6835C125.834 12.0009 126.012 12.4115 126.012 12.9155V29.1275C126.012 29.6129 125.853 30.0235 125.536 30.3595C125.218 30.6769 124.798 30.8355 124.276 30.8355C123.753 30.8355 123.324 30.6769 122.988 30.3595C122.67 30.0235 122.512 29.6129 122.512 29.1275V15.9395L123.604 16.1915L117.892 24.8995C117.724 25.1049 117.509 25.2822 117.248 25.4315C117.005 25.5809 116.753 25.6462 116.492 25.6275C116.249 25.6462 115.997 25.5809 115.736 25.4315C115.493 25.2822 115.288 25.1049 115.12 24.8995L109.772 16.4435L110.5 14.9595V29.1275C110.5 29.6129 110.35 30.0235 110.052 30.3595C109.753 30.6769 109.361 30.8355 108.876 30.8355C108.409 30.8355 108.026 30.6769 107.728 30.3595C107.429 30.0235 107.28 29.6129 107.28 29.1275V12.9155C107.28 12.4489 107.448 12.0475 107.784 11.7115C108.138 11.3755 108.558 11.2075 109.044 11.2075ZM136.997 31.1155C135.41 31.1155 134.029 30.7889 132.853 30.1355C131.696 29.4635 130.8 28.5582 130.165 27.4195C129.549 26.2809 129.241 24.9929 129.241 23.5555C129.241 21.8755 129.577 20.4475 130.249 19.2715C130.94 18.0769 131.836 17.1622 132.937 16.5275C134.038 15.8929 135.205 15.5755 136.437 15.5755C137.389 15.5755 138.285 15.7715 139.125 16.1635C139.984 16.5555 140.74 17.0969 141.393 17.7875C142.046 18.4595 142.56 19.2435 142.933 20.1395C143.325 21.0355 143.521 21.9875 143.521 22.9955C143.502 23.4435 143.325 23.8075 142.989 24.0875C142.653 24.3675 142.261 24.5075 141.813 24.5075H131.117L130.277 21.7075H140.553L139.937 22.2675V21.5115C139.9 20.9702 139.704 20.4849 139.349 20.0555C139.013 19.6262 138.584 19.2902 138.061 19.0475C137.557 18.7862 137.016 18.6555 136.437 18.6555C135.877 18.6555 135.354 18.7302 134.869 18.8795C134.384 19.0289 133.964 19.2809 133.609 19.6355C133.254 19.9902 132.974 20.4662 132.769 21.0635C132.564 21.6609 132.461 22.4169 132.461 23.3315C132.461 24.3395 132.666 25.1982 133.077 25.9075C133.506 26.5982 134.048 27.1302 134.701 27.5035C135.373 27.8582 136.082 28.0355 136.829 28.0355C137.52 28.0355 138.07 27.9795 138.481 27.8675C138.892 27.7555 139.218 27.6249 139.461 27.4755C139.722 27.3075 139.956 27.1675 140.161 27.0555C140.497 26.8875 140.814 26.8035 141.113 26.8035C141.524 26.8035 141.86 26.9435 142.121 27.2235C142.401 27.5035 142.541 27.8302 142.541 28.2035C142.541 28.7075 142.28 29.1649 141.757 29.5755C141.272 29.9862 140.59 30.3502 139.713 30.6675C138.836 30.9662 137.93 31.1155 136.997 31.1155ZM158.721 10.1155C159.206 10.1155 159.607 10.2742 159.925 10.5915C160.242 10.9089 160.401 11.3195 160.401 11.8235V29.1275C160.401 29.6129 160.242 30.0235 159.925 30.3595C159.607 30.6769 159.206 30.8355 158.721 30.8355C158.235 30.8355 157.834 30.6769 157.517 30.3595C157.199 30.0235 157.041 29.6129 157.041 29.1275V27.7555L157.657 28.0075C157.657 28.2502 157.526 28.5489 157.265 28.9035C157.003 29.2395 156.649 29.5755 156.201 29.9115C155.753 30.2475 155.221 30.5369 154.605 30.7795C154.007 31.0035 153.354 31.1155 152.645 31.1155C151.357 31.1155 150.19 30.7889 149.145 30.1355C148.099 29.4635 147.269 28.5489 146.653 27.3915C146.055 26.2155 145.757 24.8715 145.757 23.3595C145.757 21.8289 146.055 20.4849 146.653 19.3275C147.269 18.1515 148.09 17.2369 149.117 16.5835C150.143 15.9115 151.282 15.5755 152.533 15.5755C153.335 15.5755 154.073 15.6969 154.745 15.9395C155.417 16.1822 155.995 16.4902 156.481 16.8635C156.985 17.2369 157.367 17.6195 157.629 18.0115C157.909 18.3849 158.049 18.7022 158.049 18.9635L157.041 19.3275V11.8235C157.041 11.3382 157.199 10.9369 157.517 10.6195C157.834 10.2835 158.235 10.1155 158.721 10.1155ZM153.065 28.0355C153.886 28.0355 154.605 27.8302 155.221 27.4195C155.837 27.0089 156.313 26.4489 156.649 25.7395C157.003 25.0302 157.181 24.2369 157.181 23.3595C157.181 22.4635 157.003 21.6609 156.649 20.9515C156.313 20.2422 155.837 19.6822 155.221 19.2715C154.605 18.8609 153.886 18.6555 153.065 18.6555C152.262 18.6555 151.553 18.8609 150.937 19.2715C150.321 19.6822 149.835 20.2422 149.481 20.9515C149.145 21.6609 148.977 22.4635 148.977 23.3595C148.977 24.2369 149.145 25.0302 149.481 25.7395C149.835 26.4489 150.321 27.0089 150.937 27.4195C151.553 27.8302 152.262 28.0355 153.065 28.0355ZM179.362 15.6315L173.314 29.8555C173.184 30.2102 172.978 30.4902 172.698 30.6955C172.437 30.8822 172.148 30.9755 171.83 30.9755C171.326 30.9755 170.953 30.8355 170.71 30.5555C170.468 30.2755 170.346 29.9302 170.346 29.5195C170.346 29.3515 170.374 29.1742 170.43 28.9875L177.402 12.2435C177.552 11.8702 177.776 11.5809 178.074 11.3755C178.392 11.1702 178.728 11.0862 179.082 11.1235C179.418 11.1235 179.726 11.2262 180.006 11.4315C180.305 11.6182 180.52 11.8889 180.65 12.2435L187.538 28.6515C187.632 28.8942 187.678 29.1182 187.678 29.3235C187.678 29.8275 187.51 30.2289 187.174 30.5275C186.857 30.8262 186.502 30.9755 186.11 30.9755C185.774 30.9755 185.466 30.8729 185.186 30.6675C184.925 30.4622 184.72 30.1822 184.57 29.8275L178.55 15.7995L179.362 15.6315ZM174.182 26.4395L175.722 23.2195H183.282L183.814 26.4395H174.182ZM193.549 29.1275C193.549 29.6129 193.372 30.0235 193.017 30.3595C192.663 30.6769 192.252 30.8355 191.785 30.8355C191.263 30.8355 190.843 30.6769 190.525 30.3595C190.208 30.0235 190.049 29.6129 190.049 29.1275V12.9435C190.049 12.4582 190.217 12.0569 190.553 11.7395C190.889 11.4035 191.319 11.2355 191.841 11.2355C192.289 11.2355 192.681 11.4035 193.017 11.7395C193.372 12.0569 193.549 12.4582 193.549 12.9435V29.1275Z" fill="white"/>
</svg>
