<svg width="193" height="40" viewBox="0 0 193 40" fill="none" xmlns="http://www.w3.org/2000/svg">
<path d="M10.1965 9.04594V5.09826C10.1965 2.28257 7.91395 0 5.09826 0C2.28257 0 0 2.28257 0 5.09826V34.5728C0 37.3885 2.28257 39.6711 5.09826 39.6711C7.91395 39.6711 10.1965 37.3885 10.1965 34.5728V28.2828C10.1965 26.579 10.8763 24.9456 12.085 23.7449L16.6141 19.2457C18.9977 16.8778 17.3209 12.8104 13.961 12.8104C11.8819 12.8104 10.1965 11.125 10.1965 9.04594Z" fill="white"/>
<path d="M20.4194 14.6739V4.79028C20.4194 2.14468 22.5641 0 25.2097 0C27.8553 0 30 2.14469 30 4.79029V34.8808C30 37.5264 27.8553 39.6711 25.2097 39.6711H24.7739C22.369 39.6711 20.4194 37.7215 20.4194 35.3166V34.0458C20.4194 31.9547 18.506 30.3866 16.4556 30.7973C13.3751 31.4144 11.2459 27.7975 13.2802 25.4034L18.912 18.7759C19.8851 17.6306 20.4194 16.1768 20.4194 14.6739Z" fill="#AACD71"/>
<path d="M44.072 15.7554C44.488 15.7554 44.832 15.8914 45.104 16.1634C45.376 16.4354 45.512 16.7874 45.512 17.2194V27.3714C45.512 27.7874 45.376 28.1394 45.104 28.4274C44.832 28.6994 44.488 28.8354 44.072 28.8354C43.656 28.8354 43.312 28.6994 43.04 28.4274C42.768 28.1394 42.632 27.7874 42.632 27.3714V26.1954L43.16 26.4114C43.16 26.6194 43.048 26.8754 42.824 27.1794C42.6 27.4674 42.296 27.7554 41.912 28.0434C41.528 28.3314 41.072 28.5794 40.544 28.7874C40.032 28.9794 39.472 29.0754 38.864 29.0754C37.76 29.0754 36.76 28.7954 35.864 28.2354C34.968 27.6594 34.256 26.8754 33.728 25.8834C33.216 24.8754 32.96 23.7234 32.96 22.4274C32.96 21.1154 33.216 19.9634 33.728 18.9714C34.256 17.9634 34.96 17.1794 35.84 16.6194C36.72 16.0434 37.696 15.7554 38.768 15.7554C39.456 15.7554 40.088 15.8594 40.664 16.0674C41.24 16.2754 41.736 16.5394 42.152 16.8594C42.584 17.1794 42.912 17.5074 43.136 17.8434C43.376 18.1634 43.496 18.4354 43.496 18.6594L42.632 18.9714V17.2194C42.632 16.8034 42.768 16.4594 43.04 16.1874C43.312 15.8994 43.656 15.7554 44.072 15.7554ZM39.224 26.4354C39.928 26.4354 40.544 26.2594 41.072 25.9074C41.6 25.5554 42.008 25.0754 42.296 24.4674C42.6 23.8594 42.752 23.1794 42.752 22.4274C42.752 21.6594 42.6 20.9714 42.296 20.3634C42.008 19.7554 41.6 19.2754 41.072 18.9234C40.544 18.5714 39.928 18.3954 39.224 18.3954C38.536 18.3954 37.928 18.5714 37.4 18.9234C36.872 19.2754 36.456 19.7554 36.152 20.3634C35.864 20.9714 35.72 21.6594 35.72 22.4274C35.72 23.1794 35.864 23.8594 36.152 24.4674C36.456 25.0754 36.872 25.5554 37.4 25.9074C37.928 26.2594 38.536 26.4354 39.224 26.4354ZM55.2783 15.7554C56.3983 15.7554 57.3983 16.0434 58.2783 16.6194C59.1743 17.1794 59.8783 17.9554 60.3903 18.9474C60.9183 19.9394 61.1823 21.0914 61.1823 22.4034C61.1823 23.7154 60.9183 24.8754 60.3903 25.8834C59.8783 26.8754 59.1823 27.6594 58.3023 28.2354C57.4383 28.7954 56.4623 29.0754 55.3743 29.0754C54.7343 29.0754 54.1343 28.9714 53.5743 28.7634C53.0143 28.5554 52.5183 28.2914 52.0863 27.9714C51.6703 27.6514 51.3423 27.3314 51.1023 27.0114C50.8783 26.6754 50.7663 26.3954 50.7663 26.1714L51.5103 25.8594V32.1714C51.5103 32.5874 51.3743 32.9314 51.1023 33.2034C50.8303 33.4914 50.4863 33.6354 50.0703 33.6354C49.6543 33.6354 49.3103 33.4994 49.0383 33.2274C48.7663 32.9554 48.6303 32.6034 48.6303 32.1714V17.4594C48.6303 17.0434 48.7663 16.6994 49.0383 16.4274C49.3103 16.1394 49.6543 15.9954 50.0703 15.9954C50.4863 15.9954 50.8303 16.1394 51.1023 16.4274C51.3743 16.6994 51.5103 17.0434 51.5103 17.4594V18.6354L51.1023 18.4194C51.1023 18.2114 51.2143 17.9634 51.4383 17.6754C51.6623 17.3714 51.9663 17.0754 52.3503 16.7874C52.7343 16.4834 53.1743 16.2354 53.6703 16.0434C54.1823 15.8514 54.7183 15.7554 55.2783 15.7554ZM54.9183 18.3954C54.2143 18.3954 53.5983 18.5714 53.0703 18.9234C52.5423 19.2754 52.1263 19.7554 51.8223 20.3634C51.5343 20.9554 51.3903 21.6354 51.3903 22.4034C51.3903 23.1554 51.5343 23.8434 51.8223 24.4674C52.1263 25.0754 52.5423 25.5554 53.0703 25.9074C53.5983 26.2594 54.2143 26.4354 54.9183 26.4354C55.6223 26.4354 56.2303 26.2594 56.7423 25.9074C57.2703 25.5554 57.6783 25.0754 57.9663 24.4674C58.2703 23.8434 58.4223 23.1554 58.4223 22.4034C58.4223 21.6354 58.2703 20.9554 57.9663 20.3634C57.6783 19.7554 57.2703 19.2754 56.7423 18.9234C56.2303 18.5714 55.6223 18.3954 54.9183 18.3954ZM70.3486 15.7554C71.4686 15.7554 72.4686 16.0434 73.3486 16.6194C74.2446 17.1794 74.9486 17.9554 75.4606 18.9474C75.9886 19.9394 76.2526 21.0914 76.2526 22.4034C76.2526 23.7154 75.9886 24.8754 75.4606 25.8834C74.9486 26.8754 74.2526 27.6594 73.3726 28.2354C72.5086 28.7954 71.5326 29.0754 70.4446 29.0754C69.8046 29.0754 69.2046 28.9714 68.6446 28.7634C68.0846 28.5554 67.5886 28.2914 67.1566 27.9714C66.7406 27.6514 66.4126 27.3314 66.1726 27.0114C65.9486 26.6754 65.8366 26.3954 65.8366 26.1714L66.5806 25.8594V32.1714C66.5806 32.5874 66.4446 32.9314 66.1726 33.2034C65.9006 33.4914 65.5566 33.6354 65.1406 33.6354C64.7246 33.6354 64.3806 33.4994 64.1086 33.2274C63.8366 32.9554 63.7006 32.6034 63.7006 32.1714V17.4594C63.7006 17.0434 63.8366 16.6994 64.1086 16.4274C64.3806 16.1394 64.7246 15.9954 65.1406 15.9954C65.5566 15.9954 65.9006 16.1394 66.1726 16.4274C66.4446 16.6994 66.5806 17.0434 66.5806 17.4594V18.6354L66.1726 18.4194C66.1726 18.2114 66.2846 17.9634 66.5086 17.6754C66.7326 17.3714 67.0366 17.0754 67.4206 16.7874C67.8046 16.4834 68.2446 16.2354 68.7406 16.0434C69.2526 15.8514 69.7886 15.7554 70.3486 15.7554ZM69.9886 18.3954C69.2846 18.3954 68.6686 18.5714 68.1406 18.9234C67.6126 19.2754 67.1966 19.7554 66.8926 20.3634C66.6046 20.9554 66.4606 21.6354 66.4606 22.4034C66.4606 23.1554 66.6046 23.8434 66.8926 24.4674C67.1966 25.0754 67.6126 25.5554 68.1406 25.9074C68.6686 26.2594 69.2846 26.4354 69.9886 26.4354C70.6926 26.4354 71.3006 26.2594 71.8126 25.9074C72.3406 25.5554 72.7486 25.0754 73.0366 24.4674C73.3406 23.8434 73.4926 23.1554 73.4926 22.4034C73.4926 21.6354 73.3406 20.9554 73.0366 20.3634C72.7486 19.7554 72.3406 19.2754 71.8126 18.9234C71.3006 18.5714 70.6926 18.3954 69.9886 18.3954ZM88.2989 15.9954C88.7149 15.9954 89.0589 16.1394 89.3309 16.4274C89.6029 16.6994 89.7389 17.0434 89.7389 17.4594V27.6594C89.7389 29.1314 89.4589 30.2994 88.8989 31.1634C88.3549 32.0434 87.6189 32.6754 86.6909 33.0594C85.7629 33.4434 84.7229 33.6354 83.5709 33.6354C83.0589 33.6354 82.5149 33.5954 81.9389 33.5154C81.3629 33.4354 80.8909 33.3154 80.5229 33.1554C80.0429 32.9474 79.7069 32.6834 79.5149 32.3634C79.3389 32.0594 79.3069 31.7314 79.4189 31.3794C79.5629 30.9154 79.7949 30.5954 80.1149 30.4194C80.4349 30.2594 80.7709 30.2434 81.1229 30.3714C81.3789 30.4514 81.7149 30.5714 82.1309 30.7314C82.5469 30.9074 83.0269 30.9954 83.5709 30.9954C84.3069 30.9954 84.9149 30.8914 85.3949 30.6834C85.8909 30.4914 86.2589 30.1554 86.4989 29.6754C86.7549 29.2114 86.8829 28.5714 86.8829 27.7554V26.1474L87.3869 26.7234C87.1149 27.2514 86.7709 27.6914 86.3549 28.0434C85.9549 28.3794 85.4749 28.6354 84.9149 28.8114C84.3549 28.9874 83.7149 29.0754 82.9949 29.0754C82.1469 29.0754 81.4029 28.8834 80.7629 28.4994C80.1389 28.0994 79.6509 27.5554 79.2989 26.8674C78.9469 26.1634 78.7709 25.3634 78.7709 24.4674V17.4594C78.7709 17.0434 78.9069 16.6994 79.1789 16.4274C79.4509 16.1394 79.7949 15.9954 80.2109 15.9954C80.6269 15.9954 80.9709 16.1394 81.2429 16.4274C81.5149 16.6994 81.6509 17.0434 81.6509 17.4594V23.6034C81.6509 24.6434 81.8749 25.3794 82.3229 25.8114C82.7869 26.2274 83.4269 26.4354 84.2429 26.4354C84.8029 26.4354 85.2749 26.3314 85.6589 26.1234C86.0429 25.8994 86.3389 25.5794 86.5469 25.1634C86.7549 24.7314 86.8589 24.2114 86.8589 23.6034V17.4594C86.8589 17.0434 86.9949 16.6994 87.2669 16.4274C87.5389 16.1394 87.8829 15.9954 88.2989 15.9954ZM94.6089 12.0114C94.8329 12.0114 95.0649 12.0754 95.3049 12.2034C95.5609 12.3154 95.7529 12.4674 95.8809 12.6594L101.713 21.6354L100.513 21.5874L106.489 12.6594C106.793 12.2274 107.185 12.0114 107.665 12.0114C108.049 12.0114 108.393 12.1474 108.697 12.4194C109.001 12.6914 109.153 13.0434 109.153 13.4754V27.3714C109.153 27.7874 109.017 28.1394 108.745 28.4274C108.473 28.6994 108.113 28.8354 107.665 28.8354C107.217 28.8354 106.849 28.6994 106.561 28.4274C106.289 28.1394 106.153 27.7874 106.153 27.3714V16.0674L107.089 16.2834L102.193 23.7474C102.049 23.9234 101.865 24.0754 101.641 24.2034C101.433 24.3314 101.217 24.3874 100.993 24.3714C100.785 24.3874 100.569 24.3314 100.345 24.2034C100.137 24.0754 99.9609 23.9234 99.8169 23.7474L95.2329 16.4994L95.8569 15.2274V27.3714C95.8569 27.7874 95.7289 28.1394 95.4729 28.4274C95.2169 28.6994 94.8809 28.8354 94.4649 28.8354C94.0649 28.8354 93.7369 28.6994 93.4809 28.4274C93.2249 28.1394 93.0969 27.7874 93.0969 27.3714V13.4754C93.0969 13.0754 93.2409 12.7314 93.5289 12.4434C93.8329 12.1554 94.1929 12.0114 94.6089 12.0114ZM118.569 29.0754C117.209 29.0754 116.025 28.7954 115.017 28.2354C114.025 27.6594 113.257 26.8834 112.713 25.9074C112.185 24.9314 111.921 23.8274 111.921 22.5954C111.921 21.1554 112.209 19.9314 112.785 18.9234C113.377 17.8994 114.145 17.1154 115.089 16.5714C116.033 16.0274 117.033 15.7554 118.089 15.7554C118.905 15.7554 119.673 15.9234 120.393 16.2594C121.129 16.5954 121.777 17.0594 122.337 17.6514C122.897 18.2274 123.337 18.8994 123.657 19.6674C123.993 20.4354 124.161 21.2514 124.161 22.1154C124.145 22.4994 123.993 22.8114 123.705 23.0514C123.417 23.2914 123.081 23.4114 122.697 23.4114H113.529L112.809 21.0114H121.617L121.089 21.4914V20.8434C121.057 20.3794 120.889 19.9634 120.585 19.5954C120.297 19.2274 119.929 18.9394 119.481 18.7314C119.049 18.5074 118.585 18.3954 118.089 18.3954C117.609 18.3954 117.161 18.4594 116.745 18.5874C116.329 18.7154 115.969 18.9314 115.665 19.2354C115.361 19.5394 115.121 19.9474 114.945 20.4594C114.769 20.9714 114.681 21.6194 114.681 22.4034C114.681 23.2674 114.857 24.0034 115.209 24.6114C115.577 25.2034 116.041 25.6594 116.601 25.9794C117.177 26.2834 117.785 26.4354 118.425 26.4354C119.017 26.4354 119.489 26.3874 119.841 26.2914C120.193 26.1954 120.473 26.0834 120.681 25.9554C120.905 25.8114 121.105 25.6914 121.281 25.5954C121.569 25.4514 121.841 25.3794 122.097 25.3794C122.449 25.3794 122.737 25.4994 122.961 25.7394C123.201 25.9794 123.321 26.2594 123.321 26.5794C123.321 27.0114 123.097 27.4034 122.649 27.7554C122.233 28.1074 121.649 28.4194 120.897 28.6914C120.145 28.9474 119.369 29.0754 118.569 29.0754ZM137.189 11.0754C137.605 11.0754 137.949 11.2114 138.221 11.4834C138.493 11.7554 138.629 12.1074 138.629 12.5394V27.3714C138.629 27.7874 138.493 28.1394 138.221 28.4274C137.949 28.6994 137.605 28.8354 137.189 28.8354C136.773 28.8354 136.429 28.6994 136.157 28.4274C135.885 28.1394 135.749 27.7874 135.749 27.3714V26.1954L136.277 26.4114C136.277 26.6194 136.165 26.8754 135.941 27.1794C135.717 27.4674 135.413 27.7554 135.029 28.0434C134.645 28.3314 134.189 28.5794 133.661 28.7874C133.149 28.9794 132.589 29.0754 131.981 29.0754C130.877 29.0754 129.877 28.7954 128.981 28.2354C128.085 27.6594 127.373 26.8754 126.845 25.8834C126.333 24.8754 126.077 23.7234 126.077 22.4274C126.077 21.1154 126.333 19.9634 126.845 18.9714C127.373 17.9634 128.077 17.1794 128.957 16.6194C129.837 16.0434 130.813 15.7554 131.885 15.7554C132.573 15.7554 133.205 15.8594 133.781 16.0674C134.357 16.2754 134.853 16.5394 135.269 16.8594C135.701 17.1794 136.029 17.5074 136.253 17.8434C136.493 18.1634 136.613 18.4354 136.613 18.6594L135.749 18.9714V12.5394C135.749 12.1234 135.885 11.7794 136.157 11.5074C136.429 11.2194 136.773 11.0754 137.189 11.0754ZM132.341 26.4354C133.045 26.4354 133.661 26.2594 134.189 25.9074C134.717 25.5554 135.125 25.0754 135.413 24.4674C135.717 23.8594 135.869 23.1794 135.869 22.4274C135.869 21.6594 135.717 20.9714 135.413 20.3634C135.125 19.7554 134.717 19.2754 134.189 18.9234C133.661 18.5714 133.045 18.3954 132.341 18.3954C131.653 18.3954 131.045 18.5714 130.517 18.9234C129.989 19.2754 129.573 19.7554 129.269 20.3634C128.981 20.9714 128.837 21.6594 128.837 22.4274C128.837 23.1794 128.981 23.8594 129.269 24.4674C129.573 25.0754 129.989 25.5554 130.517 25.9074C131.045 26.2594 131.653 26.4354 132.341 26.4354ZM154.882 15.8034L149.698 27.9954C149.586 28.2994 149.41 28.5394 149.17 28.7154C148.946 28.8754 148.698 28.9554 148.426 28.9554C147.994 28.9554 147.674 28.8354 147.466 28.5954C147.258 28.3554 147.154 28.0594 147.154 27.7074C147.154 27.5634 147.178 27.4114 147.226 27.2514L153.202 12.8994C153.33 12.5794 153.522 12.3314 153.778 12.1554C154.05 11.9794 154.338 11.9074 154.642 11.9394C154.93 11.9394 155.194 12.0274 155.434 12.2034C155.69 12.3634 155.874 12.5954 155.986 12.8994L161.89 26.9634C161.97 27.1714 162.01 27.3634 162.01 27.5394C162.01 27.9714 161.866 28.3154 161.578 28.5714C161.306 28.8274 161.002 28.9554 160.666 28.9554C160.378 28.9554 160.114 28.8674 159.874 28.6914C159.65 28.5154 159.474 28.2754 159.346 27.9714L154.186 15.9474L154.882 15.8034ZM150.442 25.0674L151.762 22.3074H158.242L158.698 25.0674H150.442ZM167.042 27.3714C167.042 27.7874 166.89 28.1394 166.586 28.4274C166.282 28.6994 165.93 28.8354 165.53 28.8354C165.082 28.8354 164.722 28.6994 164.45 28.4274C164.178 28.1394 164.042 27.7874 164.042 27.3714V13.4994C164.042 13.0834 164.186 12.7394 164.474 12.4674C164.762 12.1794 165.13 12.0354 165.578 12.0354C165.962 12.0354 166.298 12.1794 166.586 12.4674C166.89 12.7394 167.042 13.0834 167.042 13.4994V27.3714Z" fill="white"/>
</svg>
