<svg width="24" height="24" viewBox="0 0 24 24" fill="none" xmlns="http://www.w3.org/2000/svg">
<path fill-rule="evenodd" clip-rule="evenodd" d="M0 12C0 5.3724 5.3724 0 12 0C18.6276 0 24 5.3724 24 12C24 18.6276 18.6276 24 12 24C5.3724 24 0 18.6276 0 12ZM12 2.4C9.45392 2.4 7.01212 3.41143 5.21178 5.21178C3.41143 7.01212 2.4 9.45392 2.4 12C2.4 14.5461 3.41143 16.9879 5.21178 18.7882C7.01212 20.5886 9.45392 21.6 12 21.6C14.5461 21.6 16.9879 20.5886 18.7882 18.7882C20.5886 16.9879 21.6 14.5461 21.6 12C21.6 9.45392 20.5886 7.01212 18.7882 5.21178C16.9879 3.41143 14.5461 2.4 12 2.4Z" fill="#00544F"/>
<path fill-rule="evenodd" clip-rule="evenodd" d="M13.1998 6.00005C13.1998 5.68179 13.0734 5.37656 12.8483 5.15152C12.6233 4.92648 12.3181 4.80005 11.9998 4.80005C11.6815 4.80005 11.3763 4.92648 11.1513 5.15152C10.9262 5.37656 10.7998 5.68179 10.7998 6.00005V10.8H5.9998C5.68154 10.8 5.37632 10.9265 5.15128 11.1515C4.92623 11.3766 4.7998 11.6818 4.7998 12C4.7998 12.3183 4.92623 12.6235 5.15128 12.8486C5.37632 13.0736 5.68154 13.2 5.9998 13.2H10.7998V18C10.7998 18.3183 10.9262 18.6235 11.1513 18.8486C11.3763 19.0736 11.6815 19.2 11.9998 19.2C12.3181 19.2 12.6233 19.0736 12.8483 18.8486C13.0734 18.6235 13.1998 18.3183 13.1998 18V13.2H17.9998C18.3181 13.2 18.6233 13.0736 18.8483 12.8486C19.0734 12.6235 19.1998 12.3183 19.1998 12C19.1998 11.6818 19.0734 11.3766 18.8483 11.1515C18.6233 10.9265 18.3181 10.8 17.9998 10.8H13.1998V6.00005Z" fill="#00544F"/>
</svg>
