<svg width="376" height="250" viewBox="0 0 376 250" fill="none" xmlns="http://www.w3.org/2000/svg">
<g filter="url(#filter0_f_17_716)">
<rect x="80" y="80" width="216" height="90" fill="#011613"/>
</g>
<g filter="url(#filter1_b_17_716)">
<rect x="80" y="84" width="216" height="81" rx="8" fill="white"/>
<circle cx="117" cy="125.5" r="18" fill="#E7C13C" fill-opacity="0.5"/>
<path d="M108.818 127.136C110.454 128.227 113.727 130.736 113.727 132.045C113.727 133.355 121.364 124.955 125.182 120.591" stroke="#E7C13C" stroke-width="5" stroke-linecap="round"/>
<path d="M163.039 112.296V108.48H169.687V126H165.415V112.296H163.039ZM172.494 117C172.494 114.248 173.022 112.08 174.078 110.496C175.15 108.912 176.87 108.12 179.238 108.12C181.606 108.12 183.318 108.912 184.374 110.496C185.446 112.08 185.982 114.248 185.982 117C185.982 119.784 185.446 121.968 184.374 123.552C183.318 125.136 181.606 125.928 179.238 125.928C176.87 125.928 175.15 125.136 174.078 123.552C173.022 121.968 172.494 119.784 172.494 117ZM181.95 117C181.95 115.384 181.774 114.144 181.422 113.28C181.07 112.4 180.342 111.96 179.238 111.96C178.134 111.96 177.406 112.4 177.054 113.28C176.702 114.144 176.526 115.384 176.526 117C176.526 118.088 176.59 118.992 176.718 119.712C176.846 120.416 177.102 120.992 177.486 121.44C177.886 121.872 178.47 122.088 179.238 122.088C180.006 122.088 180.582 121.872 180.966 121.44C181.366 120.992 181.63 120.416 181.758 119.712C181.886 118.992 181.95 118.088 181.95 117ZM188.15 117C188.15 114.248 188.678 112.08 189.734 110.496C190.806 108.912 192.526 108.12 194.894 108.12C197.262 108.12 198.974 108.912 200.03 110.496C201.102 112.08 201.638 114.248 201.638 117C201.638 119.784 201.102 121.968 200.03 123.552C198.974 125.136 197.262 125.928 194.894 125.928C192.526 125.928 190.806 125.136 189.734 123.552C188.678 121.968 188.15 119.784 188.15 117ZM197.606 117C197.606 115.384 197.43 114.144 197.078 113.28C196.726 112.4 195.998 111.96 194.894 111.96C193.79 111.96 193.062 112.4 192.71 113.28C192.358 114.144 192.182 115.384 192.182 117C192.182 118.088 192.246 118.992 192.374 119.712C192.502 120.416 192.758 120.992 193.142 121.44C193.542 121.872 194.126 122.088 194.894 122.088C195.662 122.088 196.238 121.872 196.622 121.44C197.022 120.992 197.286 120.416 197.414 119.712C197.542 118.992 197.606 118.088 197.606 117ZM203.471 112.896C203.471 111.6 203.839 110.6 204.575 109.896C205.327 109.192 206.295 108.84 207.479 108.84C208.663 108.84 209.623 109.192 210.359 109.896C211.095 110.6 211.463 111.6 211.463 112.896C211.463 114.192 211.095 115.192 210.359 115.896C209.623 116.6 208.663 116.952 207.479 116.952C206.295 116.952 205.327 116.6 204.575 115.896C203.839 115.192 203.471 114.192 203.471 112.896ZM219.767 109.104L210.527 126H206.567L215.807 109.104H219.767ZM207.455 111.24C206.687 111.24 206.303 111.792 206.303 112.896C206.303 113.984 206.687 114.528 207.455 114.528C207.823 114.528 208.111 114.392 208.319 114.12C208.527 113.848 208.631 113.44 208.631 112.896C208.631 111.792 208.239 111.24 207.455 111.24ZM214.895 122.208C214.895 120.912 215.263 119.912 215.999 119.208C216.735 118.504 217.695 118.152 218.879 118.152C220.063 118.152 221.023 118.504 221.759 119.208C222.495 119.912 222.863 120.912 222.863 122.208C222.863 123.504 222.495 124.504 221.759 125.208C221.023 125.912 220.063 126.264 218.879 126.264C217.695 126.264 216.735 125.912 215.999 125.208C215.263 124.504 214.895 123.504 214.895 122.208ZM218.855 120.552C218.487 120.552 218.199 120.688 217.991 120.96C217.799 121.232 217.703 121.648 217.703 122.208C217.703 123.296 218.087 123.84 218.855 123.84C219.223 123.84 219.511 123.704 219.719 123.432C219.927 123.16 220.031 122.752 220.031 122.208C220.031 121.664 219.927 121.256 219.719 120.984C219.511 120.696 219.223 120.552 218.855 120.552Z" fill="#111111"/>
<path d="M154.874 146C154.682 146 154.514 145.944 154.37 145.832C154.226 145.712 154.154 145.564 154.154 145.388V138.212C154.154 138.036 154.214 137.892 154.334 137.78C154.454 137.66 154.598 137.6 154.766 137.6H158.15C158.582 137.6 158.978 137.708 159.338 137.924C159.698 138.132 159.986 138.424 160.202 138.8C160.426 139.168 160.538 139.592 160.538 140.072C160.538 140.392 160.474 140.7 160.346 140.996C160.218 141.284 160.046 141.54 159.83 141.764C159.614 141.988 159.37 142.156 159.098 142.268L158.966 142.04C159.214 142.128 159.43 142.256 159.614 142.424C159.798 142.584 159.942 142.776 160.046 143C160.158 143.216 160.218 143.464 160.226 143.744C160.25 143.992 160.27 144.2 160.286 144.368C160.31 144.528 160.342 144.66 160.382 144.764C160.422 144.868 160.494 144.948 160.598 145.004C160.742 145.084 160.83 145.204 160.862 145.364C160.902 145.524 160.87 145.668 160.766 145.796C160.694 145.892 160.602 145.956 160.49 145.988C160.386 146.012 160.278 146.016 160.166 146C160.054 145.976 159.958 145.944 159.878 145.904C159.75 145.824 159.618 145.712 159.482 145.568C159.354 145.416 159.25 145.208 159.17 144.944C159.09 144.68 159.05 144.332 159.05 143.9C159.05 143.7 159.018 143.528 158.954 143.384C158.89 143.24 158.802 143.124 158.69 143.036C158.578 142.94 158.446 142.872 158.294 142.832C158.142 142.784 157.974 142.76 157.79 142.76H155.246L155.414 142.52V145.388C155.414 145.564 155.366 145.712 155.27 145.832C155.174 145.944 155.042 146 154.874 146ZM155.258 141.716H158.126C158.31 141.708 158.486 141.636 158.654 141.5C158.83 141.356 158.97 141.164 159.074 140.924C159.186 140.684 159.242 140.412 159.242 140.108C159.242 139.724 159.126 139.404 158.894 139.148C158.67 138.884 158.402 138.752 158.09 138.752H155.282L155.414 138.44V141.968L155.258 141.716ZM165.071 146.12C164.407 146.12 163.831 145.984 163.343 145.712C162.855 145.432 162.475 145.052 162.203 144.572C161.939 144.084 161.807 143.528 161.807 142.904C161.807 142.2 161.947 141.6 162.227 141.104C162.515 140.6 162.887 140.216 163.343 139.952C163.799 139.68 164.283 139.544 164.795 139.544C165.187 139.544 165.559 139.624 165.911 139.784C166.263 139.936 166.575 140.152 166.847 140.432C167.127 140.704 167.347 141.028 167.507 141.404C167.667 141.772 167.751 142.176 167.759 142.616C167.751 142.776 167.687 142.908 167.567 143.012C167.447 143.116 167.307 143.168 167.147 143.168H162.479L162.191 142.148H166.703L166.475 142.364V142.064C166.459 141.784 166.367 141.54 166.199 141.332C166.031 141.116 165.823 140.952 165.575 140.84C165.327 140.72 165.067 140.66 164.795 140.66C164.555 140.66 164.323 140.7 164.099 140.78C163.883 140.852 163.687 140.972 163.511 141.14C163.343 141.308 163.207 141.532 163.103 141.812C163.007 142.084 162.959 142.424 162.959 142.832C162.959 143.272 163.051 143.656 163.235 143.984C163.419 144.312 163.667 144.568 163.979 144.752C164.291 144.928 164.635 145.016 165.011 145.016C165.307 145.016 165.551 144.988 165.743 144.932C165.935 144.868 166.095 144.792 166.223 144.704C166.351 144.616 166.463 144.532 166.559 144.452C166.679 144.38 166.799 144.344 166.919 144.344C167.063 144.344 167.183 144.396 167.279 144.5C167.375 144.596 167.423 144.712 167.423 144.848C167.423 145.024 167.335 145.184 167.159 145.328C166.943 145.536 166.643 145.72 166.259 145.88C165.883 146.04 165.487 146.12 165.071 146.12ZM168.743 145.016C168.671 144.904 168.639 144.776 168.647 144.632C168.655 144.48 168.739 144.352 168.899 144.248C169.011 144.176 169.127 144.148 169.247 144.164C169.375 144.172 169.495 144.232 169.607 144.344C169.831 144.592 170.079 144.788 170.351 144.932C170.631 145.076 170.967 145.148 171.359 145.148C171.519 145.14 171.683 145.116 171.851 145.076C172.019 145.028 172.163 144.948 172.283 144.836C172.403 144.716 172.463 144.544 172.463 144.32C172.463 144.12 172.399 143.96 172.271 143.84C172.143 143.72 171.975 143.624 171.767 143.552C171.559 143.472 171.335 143.4 171.095 143.336C170.839 143.264 170.579 143.184 170.315 143.096C170.059 143.008 169.827 142.896 169.619 142.76C169.411 142.616 169.239 142.432 169.103 142.208C168.975 141.984 168.911 141.708 168.911 141.38C168.911 141.004 169.015 140.68 169.223 140.408C169.439 140.136 169.715 139.924 170.051 139.772C170.395 139.62 170.767 139.544 171.167 139.544C171.399 139.544 171.643 139.576 171.899 139.64C172.155 139.696 172.403 139.788 172.643 139.916C172.883 140.044 173.091 140.212 173.267 140.42C173.347 140.524 173.391 140.648 173.399 140.792C173.415 140.936 173.351 141.064 173.207 141.176C173.111 141.256 172.995 141.292 172.859 141.284C172.723 141.276 172.611 141.232 172.523 141.152C172.371 140.96 172.175 140.812 171.935 140.708C171.695 140.596 171.423 140.54 171.119 140.54C170.967 140.54 170.807 140.564 170.639 140.612C170.479 140.652 170.343 140.728 170.231 140.84C170.119 140.952 170.063 141.116 170.063 141.332C170.063 141.532 170.127 141.692 170.255 141.812C170.391 141.932 170.567 142.032 170.783 142.112C170.999 142.192 171.235 142.264 171.491 142.328C171.739 142.392 171.983 142.468 172.223 142.556C172.471 142.644 172.691 142.76 172.883 142.904C173.083 143.04 173.243 143.22 173.363 143.444C173.491 143.66 173.555 143.936 173.555 144.272C173.555 144.664 173.439 145 173.207 145.28C172.983 145.552 172.695 145.76 172.343 145.904C171.999 146.048 171.635 146.12 171.251 146.12C170.795 146.12 170.339 146.04 169.883 145.88C169.435 145.712 169.055 145.424 168.743 145.016ZM178.026 139.58C178.586 139.58 179.082 139.72 179.514 140C179.954 140.28 180.302 140.664 180.558 141.152C180.814 141.632 180.942 142.192 180.942 142.832C180.942 143.472 180.814 144.04 180.558 144.536C180.302 145.024 179.958 145.408 179.526 145.688C179.094 145.968 178.606 146.108 178.062 146.108C177.758 146.108 177.47 146.06 177.198 145.964C176.926 145.868 176.686 145.744 176.478 145.592C176.27 145.432 176.098 145.264 175.962 145.088C175.834 144.912 175.754 144.748 175.722 144.596L176.046 144.44V147.788C176.046 147.964 175.986 148.108 175.866 148.22C175.754 148.34 175.614 148.4 175.446 148.4C175.27 148.4 175.126 148.34 175.014 148.22C174.902 148.108 174.846 147.964 174.846 147.788V140.276C174.846 140.108 174.902 139.964 175.014 139.844C175.126 139.724 175.27 139.664 175.446 139.664C175.614 139.664 175.754 139.724 175.866 139.844C175.986 139.964 176.046 140.108 176.046 140.276V141.104L175.854 140.996C175.878 140.844 175.954 140.688 176.082 140.528C176.21 140.36 176.37 140.204 176.562 140.06C176.762 139.916 176.986 139.8 177.234 139.712C177.49 139.624 177.754 139.58 178.026 139.58ZM177.894 140.684C177.51 140.684 177.174 140.78 176.886 140.972C176.606 141.156 176.386 141.408 176.226 141.728C176.066 142.048 175.986 142.416 175.986 142.832C175.986 143.24 176.066 143.612 176.226 143.948C176.386 144.276 176.606 144.536 176.886 144.728C177.174 144.912 177.51 145.004 177.894 145.004C178.27 145.004 178.598 144.912 178.878 144.728C179.158 144.536 179.378 144.276 179.538 143.948C179.706 143.612 179.79 143.24 179.79 142.832C179.79 142.424 179.706 142.06 179.538 141.74C179.378 141.412 179.158 141.156 178.878 140.972C178.598 140.78 178.27 140.684 177.894 140.684ZM188.347 142.844C188.347 143.484 188.207 144.052 187.927 144.548C187.647 145.036 187.267 145.42 186.787 145.7C186.307 145.98 185.767 146.12 185.167 146.12C184.567 146.12 184.027 145.98 183.547 145.7C183.067 145.42 182.683 145.036 182.395 144.548C182.115 144.052 181.975 143.484 181.975 142.844C181.975 142.196 182.115 141.628 182.395 141.14C182.683 140.644 183.067 140.256 183.547 139.976C184.027 139.688 184.567 139.544 185.167 139.544C185.767 139.544 186.307 139.688 186.787 139.976C187.267 140.256 187.647 140.644 187.927 141.14C188.207 141.628 188.347 142.196 188.347 142.844ZM187.147 142.844C187.147 142.404 187.059 142.024 186.883 141.704C186.707 141.376 186.467 141.12 186.163 140.936C185.867 140.744 185.535 140.648 185.167 140.648C184.799 140.648 184.463 140.744 184.159 140.936C183.855 141.12 183.615 141.376 183.439 141.704C183.263 142.024 183.175 142.404 183.175 142.844C183.175 143.268 183.263 143.644 183.439 143.972C183.615 144.3 183.855 144.556 184.159 144.74C184.463 144.924 184.799 145.016 185.167 145.016C185.535 145.016 185.867 144.924 186.163 144.74C186.467 144.556 186.707 144.3 186.883 143.972C187.059 143.644 187.147 143.268 187.147 142.844ZM192.957 139.544C193.525 139.544 193.965 139.664 194.277 139.904C194.589 140.136 194.805 140.452 194.925 140.852C195.053 141.244 195.117 141.684 195.117 142.172V145.388C195.117 145.564 195.057 145.712 194.937 145.832C194.825 145.944 194.685 146 194.517 146C194.341 146 194.197 145.944 194.085 145.832C193.973 145.712 193.917 145.564 193.917 145.388V142.184C193.917 141.896 193.877 141.64 193.797 141.416C193.717 141.184 193.577 141 193.377 140.864C193.185 140.72 192.913 140.648 192.561 140.648C192.233 140.648 191.945 140.72 191.697 140.864C191.449 141 191.253 141.184 191.109 141.416C190.973 141.64 190.905 141.896 190.905 142.184V145.388C190.905 145.564 190.845 145.712 190.725 145.832C190.613 145.944 190.473 146 190.305 146C190.129 146 189.985 145.944 189.873 145.832C189.761 145.712 189.705 145.564 189.705 145.388V140.3C189.705 140.124 189.761 139.98 189.873 139.868C189.985 139.748 190.129 139.688 190.305 139.688C190.473 139.688 190.613 139.748 190.725 139.868C190.845 139.98 190.905 140.124 190.905 140.3V140.972L190.689 141.092C190.745 140.916 190.841 140.74 190.977 140.564C191.121 140.38 191.293 140.212 191.493 140.06C191.693 139.9 191.917 139.776 192.165 139.688C192.413 139.592 192.677 139.544 192.957 139.544ZM196.411 145.016C196.339 144.904 196.307 144.776 196.315 144.632C196.323 144.48 196.407 144.352 196.567 144.248C196.679 144.176 196.795 144.148 196.915 144.164C197.043 144.172 197.163 144.232 197.275 144.344C197.499 144.592 197.747 144.788 198.019 144.932C198.299 145.076 198.635 145.148 199.027 145.148C199.187 145.14 199.351 145.116 199.519 145.076C199.687 145.028 199.831 144.948 199.951 144.836C200.071 144.716 200.131 144.544 200.131 144.32C200.131 144.12 200.067 143.96 199.939 143.84C199.811 143.72 199.643 143.624 199.435 143.552C199.227 143.472 199.003 143.4 198.763 143.336C198.507 143.264 198.247 143.184 197.983 143.096C197.727 143.008 197.495 142.896 197.287 142.76C197.079 142.616 196.907 142.432 196.771 142.208C196.643 141.984 196.579 141.708 196.579 141.38C196.579 141.004 196.683 140.68 196.891 140.408C197.107 140.136 197.383 139.924 197.719 139.772C198.063 139.62 198.435 139.544 198.835 139.544C199.067 139.544 199.311 139.576 199.567 139.64C199.823 139.696 200.071 139.788 200.311 139.916C200.551 140.044 200.759 140.212 200.935 140.42C201.015 140.524 201.059 140.648 201.067 140.792C201.083 140.936 201.019 141.064 200.875 141.176C200.779 141.256 200.663 141.292 200.527 141.284C200.391 141.276 200.279 141.232 200.191 141.152C200.039 140.96 199.843 140.812 199.603 140.708C199.363 140.596 199.091 140.54 198.787 140.54C198.635 140.54 198.475 140.564 198.307 140.612C198.147 140.652 198.011 140.728 197.899 140.84C197.787 140.952 197.731 141.116 197.731 141.332C197.731 141.532 197.795 141.692 197.923 141.812C198.059 141.932 198.235 142.032 198.451 142.112C198.667 142.192 198.903 142.264 199.159 142.328C199.407 142.392 199.651 142.468 199.891 142.556C200.139 142.644 200.359 142.76 200.551 142.904C200.751 143.04 200.911 143.22 201.031 143.444C201.159 143.66 201.223 143.936 201.223 144.272C201.223 144.664 201.107 145 200.875 145.28C200.651 145.552 200.363 145.76 200.011 145.904C199.667 146.048 199.303 146.12 198.919 146.12C198.463 146.12 198.007 146.04 197.551 145.88C197.103 145.712 196.723 145.424 196.411 145.016ZM205.454 146.12C204.79 146.12 204.214 145.984 203.726 145.712C203.238 145.432 202.858 145.052 202.586 144.572C202.322 144.084 202.19 143.528 202.19 142.904C202.19 142.2 202.33 141.6 202.61 141.104C202.898 140.6 203.27 140.216 203.726 139.952C204.182 139.68 204.666 139.544 205.178 139.544C205.57 139.544 205.942 139.624 206.294 139.784C206.646 139.936 206.958 140.152 207.23 140.432C207.51 140.704 207.73 141.028 207.89 141.404C208.05 141.772 208.134 142.176 208.142 142.616C208.134 142.776 208.07 142.908 207.95 143.012C207.83 143.116 207.69 143.168 207.53 143.168H202.862L202.574 142.148H207.086L206.858 142.364V142.064C206.842 141.784 206.75 141.54 206.582 141.332C206.414 141.116 206.206 140.952 205.958 140.84C205.71 140.72 205.45 140.66 205.178 140.66C204.938 140.66 204.706 140.7 204.482 140.78C204.266 140.852 204.07 140.972 203.894 141.14C203.726 141.308 203.59 141.532 203.486 141.812C203.39 142.084 203.342 142.424 203.342 142.832C203.342 143.272 203.434 143.656 203.618 143.984C203.802 144.312 204.05 144.568 204.362 144.752C204.674 144.928 205.018 145.016 205.394 145.016C205.69 145.016 205.934 144.988 206.126 144.932C206.318 144.868 206.478 144.792 206.606 144.704C206.734 144.616 206.846 144.532 206.942 144.452C207.062 144.38 207.182 144.344 207.302 144.344C207.446 144.344 207.566 144.396 207.662 144.5C207.758 144.596 207.806 144.712 207.806 144.848C207.806 145.024 207.718 145.184 207.542 145.328C207.326 145.536 207.026 145.72 206.642 145.88C206.266 146.04 205.87 146.12 205.454 146.12ZM213.966 145.388C213.966 145.564 213.91 145.712 213.798 145.832C213.686 145.944 213.542 146 213.366 146C213.198 146 213.054 145.944 212.934 145.832C212.822 145.712 212.766 145.564 212.766 145.388V140.252C212.766 140.076 212.822 139.932 212.934 139.82C213.054 139.7 213.198 139.64 213.366 139.64C213.542 139.64 213.686 139.7 213.798 139.82C213.91 139.932 213.966 140.076 213.966 140.252V145.388ZM213.354 138.848C213.122 138.848 212.954 138.808 212.85 138.728C212.746 138.64 212.694 138.496 212.694 138.296V138.104C212.694 137.904 212.75 137.764 212.862 137.684C212.974 137.604 213.142 137.564 213.366 137.564C213.606 137.564 213.778 137.608 213.882 137.696C213.986 137.776 214.038 137.912 214.038 138.104V138.296C214.038 138.504 213.982 138.648 213.87 138.728C213.766 138.808 213.594 138.848 213.354 138.848ZM218.832 139.544C219.4 139.544 219.84 139.664 220.152 139.904C220.464 140.136 220.68 140.452 220.8 140.852C220.928 141.244 220.992 141.684 220.992 142.172V145.388C220.992 145.564 220.932 145.712 220.812 145.832C220.7 145.944 220.56 146 220.392 146C220.216 146 220.072 145.944 219.96 145.832C219.848 145.712 219.792 145.564 219.792 145.388V142.184C219.792 141.896 219.752 141.64 219.672 141.416C219.592 141.184 219.452 141 219.252 140.864C219.06 140.72 218.788 140.648 218.436 140.648C218.108 140.648 217.82 140.72 217.572 140.864C217.324 141 217.128 141.184 216.984 141.416C216.848 141.64 216.78 141.896 216.78 142.184V145.388C216.78 145.564 216.72 145.712 216.6 145.832C216.488 145.944 216.348 146 216.18 146C216.004 146 215.86 145.944 215.748 145.832C215.636 145.712 215.58 145.564 215.58 145.388V140.3C215.58 140.124 215.636 139.98 215.748 139.868C215.86 139.748 216.004 139.688 216.18 139.688C216.348 139.688 216.488 139.748 216.6 139.868C216.72 139.98 216.78 140.124 216.78 140.3V140.972L216.564 141.092C216.62 140.916 216.716 140.74 216.852 140.564C216.996 140.38 217.168 140.212 217.368 140.06C217.568 139.9 217.792 139.776 218.04 139.688C218.288 139.592 218.552 139.544 218.832 139.544ZM226.598 146C226.422 146 226.278 145.944 226.166 145.832C226.054 145.712 225.998 145.564 225.998 145.388V140.3C225.998 140.124 226.054 139.98 226.166 139.868C226.278 139.748 226.422 139.688 226.598 139.688C226.766 139.688 226.906 139.748 227.018 139.868C227.138 139.98 227.198 140.124 227.198 140.3V141.644L227.078 141.128C227.142 140.904 227.238 140.696 227.366 140.504C227.502 140.312 227.662 140.144 227.846 140C228.03 139.856 228.234 139.744 228.458 139.664C228.69 139.584 228.93 139.544 229.178 139.544C229.386 139.544 229.566 139.6 229.718 139.712C229.87 139.824 229.946 139.964 229.946 140.132C229.946 140.348 229.89 140.508 229.778 140.612C229.666 140.708 229.542 140.756 229.406 140.756C229.286 140.756 229.17 140.732 229.058 140.684C228.946 140.628 228.814 140.6 228.662 140.6C228.494 140.6 228.322 140.644 228.146 140.732C227.97 140.82 227.81 140.952 227.666 141.128C227.522 141.296 227.406 141.496 227.318 141.728C227.238 141.96 227.198 142.22 227.198 142.508V145.388C227.198 145.564 227.138 145.712 227.018 145.832C226.906 145.944 226.766 146 226.598 146ZM233.684 146.12C233.02 146.12 232.444 145.984 231.956 145.712C231.468 145.432 231.088 145.052 230.816 144.572C230.552 144.084 230.42 143.528 230.42 142.904C230.42 142.2 230.56 141.6 230.84 141.104C231.128 140.6 231.5 140.216 231.956 139.952C232.412 139.68 232.896 139.544 233.408 139.544C233.8 139.544 234.172 139.624 234.524 139.784C234.876 139.936 235.188 140.152 235.46 140.432C235.74 140.704 235.96 141.028 236.12 141.404C236.28 141.772 236.364 142.176 236.372 142.616C236.364 142.776 236.3 142.908 236.18 143.012C236.06 143.116 235.92 143.168 235.76 143.168H231.092L230.804 142.148H235.316L235.088 142.364V142.064C235.072 141.784 234.98 141.54 234.812 141.332C234.644 141.116 234.436 140.952 234.188 140.84C233.94 140.72 233.68 140.66 233.408 140.66C233.168 140.66 232.936 140.7 232.712 140.78C232.496 140.852 232.3 140.972 232.124 141.14C231.956 141.308 231.82 141.532 231.716 141.812C231.62 142.084 231.572 142.424 231.572 142.832C231.572 143.272 231.664 143.656 231.848 143.984C232.032 144.312 232.28 144.568 232.592 144.752C232.904 144.928 233.248 145.016 233.624 145.016C233.92 145.016 234.164 144.988 234.356 144.932C234.548 144.868 234.708 144.792 234.836 144.704C234.964 144.616 235.076 144.532 235.172 144.452C235.292 144.38 235.412 144.344 235.532 144.344C235.676 144.344 235.796 144.396 235.892 144.5C235.988 144.596 236.036 144.712 236.036 144.848C236.036 145.024 235.948 145.184 235.772 145.328C235.556 145.536 235.256 145.72 234.872 145.88C234.496 146.04 234.1 146.12 233.684 146.12ZM242.948 139.592C243.124 139.592 243.268 139.652 243.38 139.772C243.492 139.884 243.548 140.028 243.548 140.204V145.388C243.548 145.564 243.492 145.712 243.38 145.832C243.268 145.944 243.124 146 242.948 146C242.78 146 242.636 145.944 242.516 145.832C242.404 145.712 242.348 145.564 242.348 145.388V144.524L242.6 144.56C242.6 144.704 242.54 144.864 242.42 145.04C242.308 145.216 242.152 145.388 241.952 145.556C241.752 145.716 241.516 145.852 241.244 145.964C240.972 146.068 240.68 146.12 240.368 146.12C239.816 146.12 239.32 145.98 238.88 145.7C238.44 145.412 238.092 145.02 237.836 144.524C237.58 144.028 237.452 143.464 237.452 142.832C237.452 142.184 237.58 141.616 237.836 141.128C238.092 140.632 238.436 140.244 238.868 139.964C239.308 139.684 239.796 139.544 240.332 139.544C240.676 139.544 240.992 139.6 241.28 139.712C241.576 139.824 241.832 139.968 242.048 140.144C242.264 140.32 242.428 140.508 242.54 140.708C242.66 140.9 242.72 141.084 242.72 141.26L242.348 141.296V140.204C242.348 140.036 242.404 139.892 242.516 139.772C242.636 139.652 242.78 139.592 242.948 139.592ZM240.5 145.016C240.876 145.016 241.208 144.92 241.496 144.728C241.784 144.536 242.008 144.276 242.168 143.948C242.328 143.612 242.408 143.24 242.408 142.832C242.408 142.416 242.328 142.044 242.168 141.716C242.008 141.388 241.784 141.128 241.496 140.936C241.208 140.744 240.876 140.648 240.5 140.648C240.132 140.648 239.804 140.744 239.516 140.936C239.236 141.128 239.012 141.388 238.844 141.716C238.684 142.044 238.604 142.416 238.604 142.832C238.604 143.24 238.684 143.612 238.844 143.948C239.012 144.276 239.236 144.536 239.516 144.728C239.804 144.92 240.132 145.016 240.5 145.016ZM246.525 145.388C246.525 145.564 246.465 145.712 246.345 145.832C246.233 145.944 246.093 146 245.925 146C245.757 146 245.613 145.944 245.493 145.832C245.381 145.712 245.325 145.564 245.325 145.388V137.732C245.325 137.556 245.385 137.412 245.505 137.3C245.625 137.18 245.769 137.12 245.937 137.12C246.113 137.12 246.253 137.18 246.357 137.3C246.469 137.412 246.525 137.556 246.525 137.732V145.388ZM248.192 139.76H251.012C251.172 139.76 251.304 139.816 251.408 139.928C251.52 140.032 251.576 140.164 251.576 140.324C251.576 140.476 251.52 140.604 251.408 140.708C251.304 140.812 251.172 140.864 251.012 140.864H248.192C248.032 140.864 247.896 140.812 247.784 140.708C247.68 140.596 247.628 140.464 247.628 140.312C247.628 140.152 247.68 140.02 247.784 139.916C247.896 139.812 248.032 139.76 248.192 139.76ZM249.452 138.2C249.628 138.2 249.772 138.26 249.884 138.38C249.996 138.492 250.052 138.636 250.052 138.812V144.38C250.052 144.524 250.076 144.64 250.124 144.728C250.172 144.816 250.236 144.876 250.316 144.908C250.404 144.94 250.492 144.956 250.58 144.956C250.668 144.956 250.744 144.94 250.808 144.908C250.88 144.876 250.964 144.86 251.06 144.86C251.156 144.86 251.244 144.904 251.324 144.992C251.404 145.08 251.444 145.2 251.444 145.352C251.444 145.544 251.34 145.7 251.132 145.82C250.924 145.94 250.7 146 250.46 146C250.324 146 250.164 145.988 249.98 145.964C249.796 145.94 249.616 145.88 249.44 145.784C249.272 145.688 249.132 145.536 249.02 145.328C248.908 145.112 248.852 144.812 248.852 144.428V138.812C248.852 138.636 248.908 138.492 249.02 138.38C249.14 138.26 249.284 138.2 249.452 138.2ZM254.032 145.388C254.032 145.564 253.976 145.712 253.864 145.832C253.752 145.944 253.608 146 253.432 146C253.264 146 253.12 145.944 253 145.832C252.888 145.712 252.832 145.564 252.832 145.388V140.252C252.832 140.076 252.888 139.932 253 139.82C253.12 139.7 253.264 139.64 253.432 139.64C253.608 139.64 253.752 139.7 253.864 139.82C253.976 139.932 254.032 140.076 254.032 140.252V145.388ZM253.42 138.848C253.188 138.848 253.02 138.808 252.916 138.728C252.812 138.64 252.76 138.496 252.76 138.296V138.104C252.76 137.904 252.816 137.764 252.928 137.684C253.04 137.604 253.208 137.564 253.432 137.564C253.672 137.564 253.844 137.608 253.948 137.696C254.052 137.776 254.104 137.912 254.104 138.104V138.296C254.104 138.504 254.048 138.648 253.936 138.728C253.832 138.808 253.66 138.848 253.42 138.848ZM258.815 139.58C259.407 139.58 259.863 139.728 260.183 140.024C260.503 140.312 260.715 140.704 260.819 141.2L260.627 141.14L260.711 140.948C260.815 140.74 260.971 140.532 261.179 140.324C261.395 140.108 261.651 139.932 261.947 139.796C262.243 139.652 262.559 139.58 262.895 139.58C263.447 139.58 263.875 139.7 264.179 139.94C264.483 140.172 264.695 140.488 264.815 140.888C264.935 141.28 264.995 141.72 264.995 142.208V145.388C264.995 145.564 264.939 145.712 264.827 145.832C264.715 145.944 264.571 146 264.395 146C264.227 146 264.083 145.944 263.963 145.832C263.851 145.712 263.795 145.564 263.795 145.388V142.22C263.795 141.94 263.755 141.684 263.675 141.452C263.603 141.22 263.471 141.036 263.279 140.9C263.095 140.756 262.839 140.684 262.511 140.684C262.199 140.684 261.919 140.756 261.671 140.9C261.431 141.036 261.243 141.22 261.107 141.452C260.971 141.684 260.903 141.94 260.903 142.22V145.388C260.903 145.564 260.847 145.712 260.735 145.832C260.623 145.944 260.479 146 260.303 146C260.127 146 259.983 145.944 259.871 145.832C259.759 145.712 259.703 145.564 259.703 145.388V142.208C259.703 141.928 259.663 141.672 259.583 141.44C259.511 141.208 259.383 141.024 259.199 140.888C259.015 140.752 258.759 140.684 258.431 140.684C258.119 140.684 257.843 140.752 257.603 140.888C257.363 141.024 257.175 141.208 257.039 141.44C256.911 141.672 256.847 141.928 256.847 142.208V145.388C256.847 145.564 256.787 145.712 256.667 145.832C256.555 145.944 256.415 146 256.247 146C256.071 146 255.927 145.944 255.815 145.832C255.703 145.712 255.647 145.564 255.647 145.388V140.3C255.647 140.124 255.703 139.98 255.815 139.868C255.927 139.748 256.071 139.688 256.247 139.688C256.415 139.688 256.555 139.748 256.667 139.868C256.787 139.98 256.847 140.124 256.847 140.3V141.008L256.619 141.14C256.675 140.964 256.767 140.784 256.895 140.6C257.023 140.416 257.183 140.248 257.375 140.096C257.575 139.944 257.795 139.82 258.035 139.724C258.275 139.628 258.535 139.58 258.815 139.58ZM269.614 146.12C268.95 146.12 268.374 145.984 267.886 145.712C267.398 145.432 267.018 145.052 266.746 144.572C266.482 144.084 266.35 143.528 266.35 142.904C266.35 142.2 266.49 141.6 266.77 141.104C267.058 140.6 267.43 140.216 267.886 139.952C268.342 139.68 268.826 139.544 269.338 139.544C269.73 139.544 270.102 139.624 270.454 139.784C270.806 139.936 271.118 140.152 271.39 140.432C271.67 140.704 271.89 141.028 272.05 141.404C272.21 141.772 272.294 142.176 272.302 142.616C272.294 142.776 272.23 142.908 272.11 143.012C271.99 143.116 271.85 143.168 271.69 143.168H267.022L266.734 142.148H271.246L271.018 142.364V142.064C271.002 141.784 270.91 141.54 270.742 141.332C270.574 141.116 270.366 140.952 270.118 140.84C269.87 140.72 269.61 140.66 269.338 140.66C269.098 140.66 268.866 140.7 268.642 140.78C268.426 140.852 268.23 140.972 268.054 141.14C267.886 141.308 267.75 141.532 267.646 141.812C267.55 142.084 267.502 142.424 267.502 142.832C267.502 143.272 267.594 143.656 267.778 143.984C267.962 144.312 268.21 144.568 268.522 144.752C268.834 144.928 269.178 145.016 269.554 145.016C269.85 145.016 270.094 144.988 270.286 144.932C270.478 144.868 270.638 144.792 270.766 144.704C270.894 144.616 271.006 144.532 271.102 144.452C271.222 144.38 271.342 144.344 271.462 144.344C271.606 144.344 271.726 144.396 271.822 144.5C271.918 144.596 271.966 144.712 271.966 144.848C271.966 145.024 271.878 145.184 271.702 145.328C271.486 145.536 271.186 145.72 270.802 145.88C270.426 146.04 270.03 146.12 269.614 146.12Z" fill="#111111"/>
</g>
<defs>
<filter id="filter0_f_17_716" x="0" y="0" width="376" height="250" filterUnits="userSpaceOnUse" color-interpolation-filters="sRGB">
<feFlood flood-opacity="0" result="BackgroundImageFix"/>
<feBlend mode="normal" in="SourceGraphic" in2="BackgroundImageFix" result="shape"/>
<feGaussianBlur stdDeviation="40" result="effect1_foregroundBlur_17_716"/>
</filter>
<filter id="filter1_b_17_716" x="56.9" y="60.9" width="262.2" height="127.2" filterUnits="userSpaceOnUse" color-interpolation-filters="sRGB">
<feFlood flood-opacity="0" result="BackgroundImageFix"/>
<feGaussianBlur in="BackgroundImageFix" stdDeviation="11.55"/>
<feComposite in2="SourceAlpha" operator="in" result="effect1_backgroundBlur_17_716"/>
<feBlend mode="normal" in="SourceGraphic" in2="effect1_backgroundBlur_17_716" result="shape"/>
</filter>
</defs>
</svg>
