<svg width="242" height="158" viewBox="0 0 242 158" fill="none" xmlns="http://www.w3.org/2000/svg">
<path d="M0 8C0 3.58172 3.58172 0 8 0H186C216.928 0 242 25.0721 242 56V150C242 154.418 238.418 158 234 158H8C3.58173 158 0 154.418 0 150V8Z" fill="#027E6D"/>
<path d="M51.0901 48.024V39.12H66.6021V80H56.6341V48.024H51.0901ZM73.1528 59C73.1528 52.5787 74.3848 47.52 76.8488 43.824C79.3501 40.128 83.3635 38.28 88.8888 38.28C94.4141 38.28 98.4088 40.128 100.873 43.824C103.374 47.52 104.625 52.5787 104.625 59C104.625 65.496 103.374 70.592 100.873 74.288C98.4088 77.984 94.4141 79.832 88.8888 79.832C83.3635 79.832 79.3501 77.984 76.8488 74.288C74.3848 70.592 73.1528 65.496 73.1528 59ZM95.2168 59C95.2168 55.2293 94.8061 52.336 93.9848 50.32C93.1635 48.2667 91.4648 47.24 88.8888 47.24C86.3128 47.24 84.6141 48.2667 83.7928 50.32C82.9715 52.336 82.5608 55.2293 82.5608 59C82.5608 61.5387 82.7101 63.648 83.0088 65.328C83.3075 66.9707 83.9048 68.3147 84.8008 69.36C85.7341 70.368 87.0968 70.872 88.8888 70.872C90.6808 70.872 92.0248 70.368 92.9208 69.36C93.8541 68.3147 94.4701 66.9707 94.7688 65.328C95.0675 63.648 95.2168 61.5387 95.2168 59ZM109.684 59C109.684 52.5787 110.916 47.52 113.38 43.824C115.881 40.128 119.895 38.28 125.42 38.28C130.945 38.28 134.94 40.128 137.404 43.824C139.905 47.52 141.156 52.5787 141.156 59C141.156 65.496 139.905 70.592 137.404 74.288C134.94 77.984 130.945 79.832 125.42 79.832C119.895 79.832 115.881 77.984 113.38 74.288C110.916 70.592 109.684 65.496 109.684 59ZM131.748 59C131.748 55.2293 131.337 52.336 130.516 50.32C129.695 48.2667 127.996 47.24 125.42 47.24C122.844 47.24 121.145 48.2667 120.324 50.32C119.503 52.336 119.092 55.2293 119.092 59C119.092 61.5387 119.241 63.648 119.54 65.328C119.839 66.9707 120.436 68.3147 121.332 69.36C122.265 70.368 123.628 70.872 125.42 70.872C127.212 70.872 128.556 70.368 129.452 69.36C130.385 68.3147 131.001 66.9707 131.3 65.328C131.599 63.648 131.748 61.5387 131.748 59ZM145.431 49.424C145.431 46.4 146.29 44.0667 148.007 42.424C149.762 40.7813 152.021 39.96 154.783 39.96C157.546 39.96 159.786 40.7813 161.503 42.424C163.221 44.0667 164.079 46.4 164.079 49.424C164.079 52.448 163.221 54.7813 161.503 56.424C159.786 58.0667 157.546 58.888 154.783 58.888C152.021 58.888 149.762 58.0667 148.007 56.424C146.29 54.7813 145.431 52.448 145.431 49.424ZM183.455 40.576L161.895 80H152.655L174.215 40.576H183.455ZM154.727 45.56C152.935 45.56 152.039 46.848 152.039 49.424C152.039 51.9627 152.935 53.232 154.727 53.232C155.586 53.232 156.258 52.9147 156.743 52.28C157.229 51.6453 157.471 50.6933 157.471 49.424C157.471 46.848 156.557 45.56 154.727 45.56ZM172.087 71.152C172.087 68.128 172.946 65.7947 174.663 64.152C176.381 62.5093 178.621 61.688 181.383 61.688C184.146 61.688 186.386 62.5093 188.103 64.152C189.821 65.7947 190.679 68.128 190.679 71.152C190.679 74.176 189.821 76.5093 188.103 78.152C186.386 79.7947 184.146 80.616 181.383 80.616C178.621 80.616 176.381 79.7947 174.663 78.152C172.946 76.5093 172.087 74.176 172.087 71.152ZM181.327 67.288C180.469 67.288 179.797 67.6053 179.311 68.24C178.863 68.8747 178.639 69.8453 178.639 71.152C178.639 73.6907 179.535 74.96 181.327 74.96C182.186 74.96 182.858 74.6427 183.343 74.008C183.829 73.3733 184.071 72.4213 184.071 71.152C184.071 69.8827 183.829 68.9307 183.343 68.296C182.858 67.624 182.186 67.288 181.327 67.288Z" fill="white"/>
<path d="M33.2348 106.456C33.4694 106.456 33.6614 106.536 33.8108 106.696C33.9601 106.845 34.0347 107.037 34.0347 107.272V114.184C34.0347 114.419 33.9601 114.616 33.8108 114.776C33.6614 114.925 33.4694 115 33.2348 115C33.0108 115 32.8188 114.925 32.6588 114.776C32.5094 114.616 32.4348 114.419 32.4348 114.184V113.032L32.7708 113.08C32.7708 113.272 32.6908 113.485 32.5308 113.72C32.3814 113.955 32.1734 114.184 31.9068 114.408C31.6401 114.621 31.3254 114.803 30.9628 114.952C30.6001 115.091 30.2108 115.16 29.7948 115.16C29.0588 115.16 28.3974 114.973 27.8108 114.6C27.2241 114.216 26.7601 113.693 26.4188 113.032C26.0774 112.371 25.9068 111.619 25.9068 110.776C25.9068 109.912 26.0774 109.155 26.4188 108.504C26.7601 107.843 27.2188 107.325 27.7948 106.952C28.3814 106.579 29.0321 106.392 29.7468 106.392C30.2054 106.392 30.6268 106.467 31.0108 106.616C31.4054 106.765 31.7468 106.957 32.0348 107.192C32.3228 107.427 32.5414 107.677 32.6908 107.944C32.8508 108.2 32.9308 108.445 32.9308 108.68L32.4348 108.728V107.272C32.4348 107.048 32.5094 106.856 32.6588 106.696C32.8188 106.536 33.0108 106.456 33.2348 106.456ZM29.9708 113.688C30.4721 113.688 30.9148 113.56 31.2988 113.304C31.6828 113.048 31.9814 112.701 32.1948 112.264C32.4081 111.816 32.5148 111.32 32.5148 110.776C32.5148 110.221 32.4081 109.725 32.1948 109.288C31.9814 108.851 31.6828 108.504 31.2988 108.248C30.9148 107.992 30.4721 107.864 29.9708 107.864C29.4801 107.864 29.0428 107.992 28.6588 108.248C28.2854 108.504 27.9868 108.851 27.7628 109.288C27.5494 109.725 27.4428 110.221 27.4428 110.776C27.4428 111.32 27.5494 111.816 27.7628 112.264C27.9868 112.701 28.2854 113.048 28.6588 113.304C29.0428 113.56 29.4801 113.688 29.9708 113.688ZM40.6123 106.392C41.3696 106.392 41.9563 106.552 42.3723 106.872C42.7883 107.181 43.0763 107.603 43.2362 108.136C43.4069 108.659 43.4923 109.245 43.4923 109.896V114.184C43.4923 114.419 43.4123 114.616 43.2523 114.776C43.1029 114.925 42.9163 115 42.6923 115C42.4576 115 42.2656 114.925 42.1163 114.776C41.9669 114.616 41.8923 114.419 41.8923 114.184V109.912C41.8923 109.528 41.8389 109.187 41.7323 108.888C41.6256 108.579 41.4389 108.333 41.1723 108.152C40.9163 107.96 40.5536 107.864 40.0843 107.864C39.6469 107.864 39.2629 107.96 38.9323 108.152C38.6016 108.333 38.3403 108.579 38.1483 108.888C37.9669 109.187 37.8763 109.528 37.8763 109.912V114.184C37.8763 114.419 37.7963 114.616 37.6363 114.776C37.4869 114.925 37.3003 115 37.0763 115C36.8416 115 36.6496 114.925 36.5003 114.776C36.3509 114.616 36.2763 114.419 36.2763 114.184V107.4C36.2763 107.165 36.3509 106.973 36.5003 106.824C36.6496 106.664 36.8416 106.584 37.0763 106.584C37.3003 106.584 37.4869 106.664 37.6363 106.824C37.7963 106.973 37.8763 107.165 37.8763 107.4V108.296L37.5883 108.456C37.6629 108.221 37.7909 107.987 37.9723 107.752C38.1643 107.507 38.3936 107.283 38.6603 107.08C38.9269 106.867 39.2256 106.701 39.5563 106.584C39.8869 106.456 40.2389 106.392 40.6123 106.392ZM53.7778 110.792C53.7778 111.645 53.5911 112.403 53.2178 113.064C52.8444 113.715 52.3378 114.227 51.6978 114.6C51.0578 114.973 50.3378 115.16 49.5378 115.16C48.7378 115.16 48.0178 114.973 47.3778 114.6C46.7378 114.227 46.2258 113.715 45.8418 113.064C45.4684 112.403 45.2818 111.645 45.2818 110.792C45.2818 109.928 45.4684 109.171 45.8418 108.52C46.2258 107.859 46.7378 107.341 47.3778 106.968C48.0178 106.584 48.7378 106.392 49.5378 106.392C50.3378 106.392 51.0578 106.584 51.6978 106.968C52.3378 107.341 52.8444 107.859 53.2178 108.52C53.5911 109.171 53.7778 109.928 53.7778 110.792ZM52.1778 110.792C52.1778 110.205 52.0604 109.699 51.8258 109.272C51.5911 108.835 51.2711 108.493 50.8658 108.248C50.4711 107.992 50.0284 107.864 49.5378 107.864C49.0471 107.864 48.5991 107.992 48.1938 108.248C47.7884 108.493 47.4684 108.835 47.2338 109.272C46.9991 109.699 46.8818 110.205 46.8818 110.792C46.8818 111.357 46.9991 111.859 47.2338 112.296C47.4684 112.733 47.7884 113.075 48.1938 113.32C48.5991 113.565 49.0471 113.688 49.5378 113.688C50.0284 113.688 50.4711 113.565 50.8658 113.32C51.2711 113.075 51.5911 112.733 51.8258 112.296C52.0604 111.859 52.1778 111.357 52.1778 110.792ZM59.9248 106.392C60.6821 106.392 61.2688 106.552 61.6848 106.872C62.1008 107.181 62.3888 107.603 62.5487 108.136C62.7194 108.659 62.8048 109.245 62.8048 109.896V114.184C62.8048 114.419 62.7248 114.616 62.5648 114.776C62.4154 114.925 62.2288 115 62.0048 115C61.7701 115 61.5781 114.925 61.4288 114.776C61.2794 114.616 61.2048 114.419 61.2048 114.184V109.912C61.2048 109.528 61.1514 109.187 61.0448 108.888C60.9381 108.579 60.7514 108.333 60.4848 108.152C60.2288 107.96 59.8661 107.864 59.3968 107.864C58.9594 107.864 58.5754 107.96 58.2448 108.152C57.9141 108.333 57.6528 108.579 57.4608 108.888C57.2794 109.187 57.1888 109.528 57.1888 109.912V114.184C57.1888 114.419 57.1088 114.616 56.9488 114.776C56.7994 114.925 56.6128 115 56.3888 115C56.1541 115 55.9621 114.925 55.8128 114.776C55.6634 114.616 55.5888 114.419 55.5888 114.184V107.4C55.5888 107.165 55.6634 106.973 55.8128 106.824C55.9621 106.664 56.1541 106.584 56.3888 106.584C56.6128 106.584 56.7994 106.664 56.9488 106.824C57.1088 106.973 57.1888 107.165 57.1888 107.4V108.296L56.9008 108.456C56.9754 108.221 57.1034 107.987 57.2848 107.752C57.4768 107.507 57.7061 107.283 57.9728 107.08C58.2394 106.867 58.5381 106.701 58.8688 106.584C59.1994 106.456 59.5514 106.392 59.9248 106.392ZM71.2041 106.52C71.4388 106.52 71.6308 106.6 71.7801 106.76C71.9295 106.909 72.0041 107.101 72.0041 107.336V114.216C72.0041 115.155 71.8228 115.917 71.4601 116.504C71.1081 117.091 70.6281 117.517 70.0201 117.784C69.4228 118.061 68.7455 118.2 67.9881 118.2C67.6041 118.2 67.2201 118.163 66.8361 118.088C66.4521 118.024 66.1375 117.928 65.8921 117.8C65.6361 117.683 65.4548 117.539 65.3481 117.368C65.2415 117.197 65.2255 117.011 65.3001 116.808C65.3748 116.552 65.5028 116.376 65.6841 116.28C65.8655 116.195 66.0521 116.189 66.2441 116.264C66.4255 116.339 66.6655 116.435 66.9641 116.552C67.2628 116.669 67.6041 116.728 67.9881 116.728C68.5108 116.728 68.9535 116.643 69.3161 116.472C69.6788 116.301 69.9508 116.035 70.1321 115.672C70.3241 115.309 70.4201 114.84 70.4201 114.264V113.16L70.6761 113.544C70.5055 113.896 70.2815 114.189 70.0041 114.424C69.7268 114.659 69.3961 114.84 69.0121 114.968C68.6388 115.096 68.2228 115.16 67.7641 115.16C67.1775 115.16 66.6708 115.032 66.2441 114.776C65.8281 114.509 65.5081 114.147 65.2841 113.688C65.0601 113.219 64.9481 112.685 64.9481 112.088V107.336C64.9481 107.101 65.0228 106.909 65.1721 106.76C65.3215 106.6 65.5135 106.52 65.7481 106.52C65.9721 106.52 66.1588 106.6 66.3081 106.76C66.4681 106.909 66.5481 107.101 66.5481 107.336V111.656C66.5481 112.36 66.7028 112.877 67.0121 113.208C67.3215 113.528 67.7801 113.688 68.3881 113.688C68.7935 113.688 69.1455 113.603 69.4441 113.432C69.7428 113.261 69.9775 113.027 70.1481 112.728C70.3188 112.419 70.4041 112.061 70.4041 111.656V107.336C70.4041 107.101 70.4788 106.909 70.6281 106.76C70.7881 106.6 70.9801 106.52 71.2041 106.52ZM78.469 106.44C79.2583 106.44 79.8663 106.637 80.293 107.032C80.7197 107.416 81.0023 107.939 81.141 108.6L80.885 108.52L80.997 108.264C81.1357 107.987 81.3437 107.709 81.621 107.432C81.909 107.144 82.2503 106.909 82.645 106.728C83.0397 106.536 83.461 106.44 83.909 106.44C84.645 106.44 85.2157 106.6 85.621 106.92C86.0263 107.229 86.309 107.651 86.469 108.184C86.629 108.707 86.709 109.293 86.709 109.944V114.184C86.709 114.419 86.6343 114.616 86.485 114.776C86.3357 114.925 86.1437 115 85.909 115C85.685 115 85.493 114.925 85.333 114.776C85.1837 114.616 85.109 114.419 85.109 114.184V109.96C85.109 109.587 85.0557 109.245 84.949 108.936C84.853 108.627 84.677 108.381 84.421 108.2C84.1757 108.008 83.8343 107.912 83.397 107.912C82.981 107.912 82.6077 108.008 82.277 108.2C81.957 108.381 81.7063 108.627 81.525 108.936C81.3437 109.245 81.253 109.587 81.253 109.96V114.184C81.253 114.419 81.1783 114.616 81.029 114.776C80.8797 114.925 80.6877 115 80.453 115C80.2183 115 80.0263 114.925 79.877 114.776C79.7277 114.616 79.653 114.419 79.653 114.184V109.944C79.653 109.571 79.5997 109.229 79.493 108.92C79.397 108.611 79.2263 108.365 78.981 108.184C78.7357 108.003 78.3943 107.912 77.957 107.912C77.541 107.912 77.173 108.003 76.853 108.184C76.533 108.365 76.2823 108.611 76.101 108.92C75.9303 109.229 75.845 109.571 75.845 109.944V114.184C75.845 114.419 75.765 114.616 75.605 114.776C75.4557 114.925 75.269 115 75.045 115C74.8103 115 74.6183 114.925 74.469 114.776C74.3197 114.616 74.245 114.419 74.245 114.184V107.4C74.245 107.165 74.3197 106.973 74.469 106.824C74.6183 106.664 74.8103 106.584 75.045 106.584C75.269 106.584 75.4557 106.664 75.605 106.824C75.765 106.973 75.845 107.165 75.845 107.4V108.344L75.541 108.52C75.6157 108.285 75.7383 108.045 75.909 107.8C76.0797 107.555 76.293 107.331 76.549 107.128C76.8157 106.925 77.109 106.76 77.429 106.632C77.749 106.504 78.0957 106.44 78.469 106.44ZM90.4521 114.184C90.4521 114.419 90.3775 114.616 90.2281 114.776C90.0788 114.925 89.8868 115 89.6521 115C89.4281 115 89.2361 114.925 89.0761 114.776C88.9268 114.616 88.8521 114.419 88.8521 114.184V107.336C88.8521 107.101 88.9268 106.909 89.0761 106.76C89.2361 106.6 89.4281 106.52 89.6521 106.52C89.8868 106.52 90.0788 106.6 90.2281 106.76C90.3775 106.909 90.4521 107.101 90.4521 107.336V114.184ZM89.6361 105.464C89.3268 105.464 89.1028 105.411 88.9641 105.304C88.8255 105.187 88.7561 104.995 88.7561 104.728V104.472C88.7561 104.205 88.8308 104.019 88.9801 103.912C89.1295 103.805 89.3535 103.752 89.6521 103.752C89.9721 103.752 90.2015 103.811 90.3401 103.928C90.4788 104.035 90.5481 104.216 90.5481 104.472V104.728C90.5481 105.005 90.4735 105.197 90.3241 105.304C90.1855 105.411 89.9561 105.464 89.6361 105.464ZM92.1084 113.688C92.0124 113.539 91.9697 113.368 91.9804 113.176C91.991 112.973 92.103 112.803 92.3164 112.664C92.4657 112.568 92.6204 112.531 92.7804 112.552C92.951 112.563 93.111 112.643 93.2604 112.792C93.559 113.123 93.8897 113.384 94.2524 113.576C94.6257 113.768 95.0737 113.864 95.5964 113.864C95.8097 113.853 96.0284 113.821 96.2524 113.768C96.4764 113.704 96.6684 113.597 96.8284 113.448C96.9884 113.288 97.0684 113.059 97.0684 112.76C97.0684 112.493 96.983 112.28 96.8124 112.12C96.6417 111.96 96.4177 111.832 96.1404 111.736C95.863 111.629 95.5644 111.533 95.2444 111.448C94.903 111.352 94.5564 111.245 94.2044 111.128C93.863 111.011 93.5537 110.861 93.2764 110.68C92.999 110.488 92.7697 110.243 92.5884 109.944C92.4177 109.645 92.3324 109.277 92.3324 108.84C92.3324 108.339 92.471 107.907 92.7484 107.544C93.0364 107.181 93.4044 106.899 93.8524 106.696C94.311 106.493 94.807 106.392 95.3404 106.392C95.6497 106.392 95.975 106.435 96.3164 106.52C96.6577 106.595 96.9884 106.717 97.3084 106.888C97.6284 107.059 97.9057 107.283 98.1404 107.56C98.247 107.699 98.3057 107.864 98.3164 108.056C98.3377 108.248 98.2524 108.419 98.0604 108.568C97.9324 108.675 97.7777 108.723 97.5964 108.712C97.415 108.701 97.2657 108.643 97.1484 108.536C96.9457 108.28 96.6844 108.083 96.3644 107.944C96.0444 107.795 95.6817 107.72 95.2764 107.72C95.0737 107.72 94.8604 107.752 94.6364 107.816C94.423 107.869 94.2417 107.971 94.0924 108.12C93.943 108.269 93.8684 108.488 93.8684 108.776C93.8684 109.043 93.9537 109.256 94.1244 109.416C94.3057 109.576 94.5404 109.709 94.8284 109.816C95.1164 109.923 95.431 110.019 95.7724 110.104C96.103 110.189 96.4284 110.291 96.7484 110.408C97.079 110.525 97.3724 110.68 97.6284 110.872C97.895 111.053 98.1084 111.293 98.2684 111.592C98.439 111.88 98.5244 112.248 98.5244 112.696C98.5244 113.219 98.3697 113.667 98.0604 114.04C97.7617 114.403 97.3777 114.68 96.9084 114.872C96.4497 115.064 95.9644 115.16 95.4524 115.16C94.8444 115.16 94.2364 115.053 93.6284 114.84C93.031 114.616 92.5244 114.232 92.1084 113.688ZM104.165 115.16C103.28 115.16 102.512 114.979 101.861 114.616C101.21 114.243 100.704 113.736 100.341 113.096C99.989 112.445 99.813 111.704 99.813 110.872C99.813 109.933 99.9997 109.133 100.373 108.472C100.757 107.8 101.253 107.288 101.861 106.936C102.469 106.573 103.114 106.392 103.797 106.392C104.32 106.392 104.816 106.499 105.285 106.712C105.754 106.915 106.17 107.203 106.533 107.576C106.906 107.939 107.2 108.371 107.413 108.872C107.626 109.363 107.738 109.901 107.749 110.488C107.738 110.701 107.653 110.877 107.493 111.016C107.333 111.155 107.146 111.224 106.933 111.224H100.709L100.325 109.864H106.341L106.037 110.152V109.752C106.016 109.379 105.893 109.053 105.669 108.776C105.445 108.488 105.168 108.269 104.837 108.12C104.506 107.96 104.16 107.88 103.797 107.88C103.477 107.88 103.168 107.933 102.869 108.04C102.581 108.136 102.32 108.296 102.085 108.52C101.861 108.744 101.68 109.043 101.541 109.416C101.413 109.779 101.349 110.232 101.349 110.776C101.349 111.363 101.472 111.875 101.717 112.312C101.962 112.749 102.293 113.091 102.709 113.336C103.125 113.571 103.584 113.688 104.085 113.688C104.48 113.688 104.805 113.651 105.061 113.576C105.317 113.491 105.53 113.389 105.701 113.272C105.872 113.155 106.021 113.043 106.149 112.936C106.309 112.84 106.469 112.792 106.629 112.792C106.821 112.792 106.981 112.861 107.109 113C107.237 113.128 107.301 113.283 107.301 113.464C107.301 113.699 107.184 113.912 106.949 114.104C106.661 114.381 106.261 114.627 105.749 114.84C105.248 115.053 104.72 115.16 104.165 115.16ZM116.454 103.16C116.688 103.16 116.88 103.235 117.03 103.384C117.179 103.533 117.253 103.731 117.253 103.976V114.184C117.253 114.419 117.179 114.616 117.03 114.776C116.88 114.925 116.688 115 116.454 115C116.23 115 116.038 114.925 115.878 114.776C115.728 114.616 115.654 114.419 115.654 114.184V113.032L115.99 113.048C115.99 113.24 115.91 113.459 115.75 113.704C115.6 113.939 115.392 114.168 115.126 114.392C114.859 114.616 114.544 114.803 114.182 114.952C113.819 115.091 113.43 115.16 113.014 115.16C112.278 115.16 111.616 114.973 111.03 114.6C110.443 114.216 109.979 113.699 109.638 113.048C109.296 112.387 109.126 111.629 109.126 110.776C109.126 109.923 109.296 109.171 109.638 108.52C109.979 107.859 110.438 107.341 111.014 106.968C111.6 106.584 112.251 106.392 112.966 106.392C113.414 106.392 113.83 106.467 114.214 106.616C114.608 106.765 114.95 106.957 115.238 107.192C115.526 107.427 115.75 107.677 115.91 107.944C116.07 108.2 116.15 108.445 116.15 108.68L115.654 108.728V103.976C115.654 103.741 115.728 103.549 115.878 103.4C116.038 103.24 116.23 103.16 116.454 103.16ZM113.19 113.688C113.702 113.688 114.144 113.56 114.518 113.304C114.902 113.048 115.2 112.701 115.414 112.264C115.627 111.827 115.734 111.331 115.734 110.776C115.734 110.221 115.627 109.725 115.414 109.288C115.2 108.851 114.902 108.504 114.518 108.248C114.134 107.992 113.691 107.864 113.19 107.864C112.699 107.864 112.262 107.992 111.878 108.248C111.504 108.504 111.206 108.851 110.982 109.288C110.768 109.725 110.662 110.221 110.662 110.776C110.662 111.331 110.768 111.827 110.982 112.264C111.206 112.701 111.504 113.048 111.878 113.304C112.262 113.56 112.699 113.688 113.19 113.688ZM127.26 115.16C126.503 115.16 125.825 114.995 125.228 114.664C124.631 114.323 124.161 113.88 123.82 113.336C123.479 112.792 123.308 112.216 123.308 111.608C123.308 111.096 123.399 110.621 123.58 110.184C123.772 109.736 124.055 109.341 124.428 109C124.812 108.659 125.297 108.376 125.884 108.152L126.94 109.24C126.172 109.411 125.644 109.683 125.356 110.056C125.079 110.429 124.94 110.867 124.94 111.368C124.94 111.741 125.031 112.104 125.212 112.456C125.393 112.797 125.676 113.08 126.06 113.304C126.455 113.528 126.967 113.64 127.596 113.64C128.161 113.64 128.657 113.528 129.084 113.304C129.521 113.069 129.895 112.765 130.204 112.392C130.513 112.008 130.764 111.587 130.956 111.128C131.148 110.659 131.281 110.179 131.356 109.688C131.377 109.539 131.436 109.427 131.532 109.352C131.628 109.267 131.788 109.224 132.012 109.224C132.247 109.224 132.428 109.315 132.556 109.496C132.695 109.677 132.748 109.896 132.716 110.152C132.62 110.771 132.439 111.379 132.172 111.976C131.905 112.563 131.548 113.101 131.1 113.592C130.652 114.072 130.108 114.456 129.468 114.744C128.828 115.021 128.092 115.16 127.26 115.16ZM132.94 115C132.844 115 132.753 114.989 132.668 114.968C132.593 114.936 132.535 114.904 132.492 114.872C131.756 114.264 131.073 113.693 130.444 113.16C129.825 112.627 129.239 112.099 128.684 111.576C128.14 111.043 127.601 110.477 127.068 109.88C126.695 109.453 126.353 109.059 126.044 108.696C125.745 108.333 125.5 107.976 125.308 107.624C125.127 107.272 125.036 106.899 125.036 106.504C125.036 105.992 125.169 105.523 125.436 105.096C125.713 104.659 126.097 104.307 126.588 104.04C127.089 103.773 127.681 103.64 128.364 103.64C129.111 103.64 129.761 103.773 130.316 104.04C130.881 104.296 131.265 104.621 131.468 105.016C131.479 105.027 131.5 105.085 131.532 105.192C131.575 105.288 131.596 105.405 131.596 105.544C131.596 105.704 131.532 105.848 131.404 105.976C131.276 106.104 131.105 106.168 130.892 106.168C130.753 106.168 130.641 106.141 130.556 106.088C130.471 106.035 130.407 105.981 130.364 105.928C130.129 105.608 129.852 105.373 129.532 105.224C129.223 105.075 128.833 105 128.364 105C127.831 105 127.42 105.139 127.132 105.416C126.855 105.693 126.716 106.035 126.716 106.44C126.716 106.771 126.823 107.107 127.036 107.448C127.26 107.789 127.516 108.12 127.804 108.44C128.103 108.749 128.375 109.037 128.62 109.304C128.983 109.699 129.377 110.109 129.804 110.536C130.241 110.952 130.673 111.352 131.1 111.736C131.537 112.12 131.943 112.472 132.316 112.792C132.689 113.112 133.004 113.384 133.26 113.608C133.377 113.715 133.463 113.821 133.516 113.928C133.58 114.035 133.612 114.163 133.612 114.312C133.612 114.429 133.559 114.573 133.452 114.744C133.345 114.915 133.175 115 132.94 115ZM143.509 115.16C142.623 115.16 141.855 114.979 141.205 114.616C140.554 114.243 140.047 113.736 139.685 113.096C139.333 112.445 139.157 111.704 139.157 110.872C139.157 109.933 139.343 109.133 139.717 108.472C140.101 107.8 140.597 107.288 141.205 106.936C141.813 106.573 142.458 106.392 143.141 106.392C143.663 106.392 144.159 106.499 144.629 106.712C145.098 106.915 145.514 107.203 145.877 107.576C146.25 107.939 146.543 108.371 146.757 108.872C146.97 109.363 147.082 109.901 147.093 110.488C147.082 110.701 146.997 110.877 146.837 111.016C146.677 111.155 146.49 111.224 146.277 111.224H140.053L139.669 109.864H145.685L145.381 110.152V109.752C145.359 109.379 145.237 109.053 145.013 108.776C144.789 108.488 144.511 108.269 144.181 108.12C143.85 107.96 143.503 107.88 143.141 107.88C142.821 107.88 142.511 107.933 142.213 108.04C141.925 108.136 141.663 108.296 141.429 108.52C141.205 108.744 141.023 109.043 140.885 109.416C140.757 109.779 140.693 110.232 140.693 110.776C140.693 111.363 140.815 111.875 141.061 112.312C141.306 112.749 141.637 113.091 142.053 113.336C142.469 113.571 142.927 113.688 143.429 113.688C143.823 113.688 144.149 113.651 144.405 113.576C144.661 113.491 144.874 113.389 145.045 113.272C145.215 113.155 145.365 113.043 145.493 112.936C145.653 112.84 145.813 112.792 145.973 112.792C146.165 112.792 146.325 112.861 146.453 113C146.581 113.128 146.645 113.283 146.645 113.464C146.645 113.699 146.527 113.912 146.293 114.104C146.005 114.381 145.605 114.627 145.093 114.84C144.591 115.053 144.063 115.16 143.509 115.16ZM153.237 106.392C153.995 106.392 154.581 106.552 154.997 106.872C155.413 107.181 155.701 107.603 155.861 108.136C156.032 108.659 156.117 109.245 156.117 109.896V114.184C156.117 114.419 156.037 114.616 155.877 114.776C155.728 114.925 155.541 115 155.317 115C155.083 115 154.891 114.925 154.741 114.776C154.592 114.616 154.517 114.419 154.517 114.184V109.912C154.517 109.528 154.464 109.187 154.357 108.888C154.251 108.579 154.064 108.333 153.797 108.152C153.541 107.96 153.179 107.864 152.709 107.864C152.272 107.864 151.888 107.96 151.557 108.152C151.227 108.333 150.965 108.579 150.773 108.888C150.592 109.187 150.501 109.528 150.501 109.912V114.184C150.501 114.419 150.421 114.616 150.261 114.776C150.112 114.925 149.925 115 149.701 115C149.467 115 149.275 114.925 149.125 114.776C148.976 114.616 148.901 114.419 148.901 114.184V107.4C148.901 107.165 148.976 106.973 149.125 106.824C149.275 106.664 149.467 106.584 149.701 106.584C149.925 106.584 150.112 106.664 150.261 106.824C150.421 106.973 150.501 107.165 150.501 107.4V108.296L150.213 108.456C150.288 108.221 150.416 107.987 150.597 107.752C150.789 107.507 151.019 107.283 151.285 107.08C151.552 106.867 151.851 106.701 152.181 106.584C152.512 106.456 152.864 106.392 153.237 106.392ZM162.067 106.392C162.643 106.392 163.155 106.456 163.603 106.584C164.051 106.701 164.397 106.872 164.643 107.096C164.899 107.309 165.027 107.56 165.027 107.848C165.027 108.029 164.973 108.2 164.867 108.36C164.76 108.509 164.6 108.584 164.387 108.584C164.237 108.584 164.109 108.557 164.003 108.504C163.907 108.451 163.816 108.387 163.731 108.312C163.645 108.237 163.539 108.163 163.411 108.088C163.293 108.024 163.117 107.971 162.883 107.928C162.659 107.885 162.456 107.864 162.275 107.864C161.709 107.864 161.219 107.992 160.803 108.248C160.397 108.504 160.077 108.851 159.843 109.288C159.619 109.725 159.507 110.221 159.507 110.776C159.507 111.331 159.619 111.827 159.843 112.264C160.077 112.701 160.392 113.048 160.787 113.304C161.192 113.56 161.661 113.688 162.195 113.688C162.515 113.688 162.776 113.667 162.979 113.624C163.181 113.571 163.357 113.507 163.507 113.432C163.667 113.336 163.8 113.24 163.907 113.144C164.024 113.037 164.184 112.984 164.387 112.984C164.621 112.984 164.797 113.059 164.915 113.208C165.043 113.347 165.107 113.523 165.107 113.736C165.107 113.971 164.963 114.2 164.675 114.424C164.397 114.637 164.024 114.813 163.555 114.952C163.085 115.091 162.568 115.16 162.003 115.16C161.171 115.16 160.445 114.968 159.827 114.584C159.219 114.2 158.744 113.677 158.403 113.016C158.072 112.355 157.907 111.608 157.907 110.776C157.907 109.933 158.083 109.187 158.435 108.536C158.787 107.875 159.277 107.352 159.907 106.968C160.536 106.584 161.256 106.392 162.067 106.392ZM167.436 115C167.201 115 167.009 114.925 166.86 114.776C166.71 114.616 166.636 114.419 166.636 114.184V107.4C166.636 107.165 166.71 106.973 166.86 106.824C167.009 106.664 167.201 106.584 167.436 106.584C167.66 106.584 167.846 106.664 167.996 106.824C168.156 106.973 168.236 107.165 168.236 107.4V109.192L168.076 108.504C168.161 108.205 168.289 107.928 168.46 107.672C168.641 107.416 168.854 107.192 169.1 107C169.345 106.808 169.617 106.659 169.916 106.552C170.225 106.445 170.545 106.392 170.876 106.392C171.153 106.392 171.393 106.467 171.596 106.616C171.798 106.765 171.9 106.952 171.9 107.176C171.9 107.464 171.825 107.677 171.676 107.816C171.526 107.944 171.361 108.008 171.18 108.008C171.02 108.008 170.865 107.976 170.716 107.912C170.566 107.837 170.39 107.8 170.188 107.8C169.964 107.8 169.734 107.859 169.5 107.976C169.265 108.093 169.052 108.269 168.86 108.504C168.668 108.728 168.513 108.995 168.396 109.304C168.289 109.613 168.236 109.96 168.236 110.344V114.184C168.236 114.419 168.156 114.616 167.996 114.776C167.846 114.925 167.66 115 167.436 115ZM179.579 106.52C179.814 106.52 180.006 106.6 180.155 106.76C180.304 106.909 180.379 107.101 180.379 107.336V114.216C180.379 115.155 180.198 115.917 179.835 116.504C179.483 117.091 179.003 117.517 178.395 117.784C177.798 118.061 177.12 118.2 176.363 118.2C175.979 118.2 175.595 118.163 175.211 118.088C174.827 118.024 174.512 117.928 174.267 117.8C174.011 117.683 173.83 117.539 173.723 117.368C173.616 117.197 173.6 117.011 173.675 116.808C173.75 116.552 173.878 116.376 174.059 116.28C174.24 116.195 174.427 116.189 174.619 116.264C174.8 116.339 175.04 116.435 175.339 116.552C175.638 116.669 175.979 116.728 176.363 116.728C176.886 116.728 177.328 116.643 177.691 116.472C178.054 116.301 178.326 116.035 178.507 115.672C178.699 115.309 178.795 114.84 178.795 114.264V113.16L179.051 113.544C178.88 113.896 178.656 114.189 178.379 114.424C178.102 114.659 177.771 114.84 177.387 114.968C177.014 115.096 176.598 115.16 176.139 115.16C175.552 115.16 175.046 115.032 174.619 114.776C174.203 114.509 173.883 114.147 173.659 113.688C173.435 113.219 173.323 112.685 173.323 112.088V107.336C173.323 107.101 173.398 106.909 173.547 106.76C173.696 106.6 173.888 106.52 174.123 106.52C174.347 106.52 174.534 106.6 174.683 106.76C174.843 106.909 174.923 107.101 174.923 107.336V111.656C174.923 112.36 175.078 112.877 175.387 113.208C175.696 113.528 176.155 113.688 176.763 113.688C177.168 113.688 177.52 113.603 177.819 113.432C178.118 113.261 178.352 113.027 178.523 112.728C178.694 112.419 178.779 112.061 178.779 111.656V107.336C178.779 107.101 178.854 106.909 179.003 106.76C179.163 106.6 179.355 106.52 179.579 106.52ZM186.86 106.44C187.607 106.44 188.268 106.627 188.844 107C189.431 107.373 189.895 107.885 190.236 108.536C190.577 109.176 190.748 109.923 190.748 110.776C190.748 111.629 190.577 112.387 190.236 113.048C189.895 113.699 189.436 114.211 188.86 114.584C188.284 114.957 187.633 115.144 186.908 115.144C186.503 115.144 186.119 115.08 185.756 114.952C185.393 114.824 185.073 114.659 184.796 114.456C184.519 114.243 184.289 114.019 184.108 113.784C183.937 113.549 183.831 113.331 183.788 113.128L184.22 112.92V117.384C184.22 117.619 184.14 117.811 183.98 117.96C183.831 118.12 183.644 118.2 183.42 118.2C183.185 118.2 182.993 118.12 182.844 117.96C182.695 117.811 182.62 117.619 182.62 117.384V107.368C182.62 107.144 182.695 106.952 182.844 106.792C182.993 106.632 183.185 106.552 183.42 106.552C183.644 106.552 183.831 106.632 183.98 106.792C184.14 106.952 184.22 107.144 184.22 107.368V108.472L183.964 108.328C183.996 108.125 184.097 107.917 184.268 107.704C184.439 107.48 184.652 107.272 184.908 107.08C185.175 106.888 185.473 106.733 185.804 106.616C186.145 106.499 186.497 106.44 186.86 106.44ZM186.684 107.912C186.172 107.912 185.724 108.04 185.34 108.296C184.967 108.541 184.673 108.877 184.46 109.304C184.247 109.731 184.14 110.221 184.14 110.776C184.14 111.32 184.247 111.816 184.46 112.264C184.673 112.701 184.967 113.048 185.34 113.304C185.724 113.549 186.172 113.672 186.684 113.672C187.185 113.672 187.623 113.549 187.996 113.304C188.369 113.048 188.663 112.701 188.876 112.264C189.1 111.816 189.212 111.32 189.212 110.776C189.212 110.232 189.1 109.747 188.876 109.32C188.663 108.883 188.369 108.541 187.996 108.296C187.623 108.04 187.185 107.912 186.684 107.912ZM192.446 106.68H196.206C196.419 106.68 196.595 106.755 196.734 106.904C196.883 107.043 196.958 107.219 196.958 107.432C196.958 107.635 196.883 107.805 196.734 107.944C196.595 108.083 196.419 108.152 196.206 108.152H192.446C192.232 108.152 192.051 108.083 191.902 107.944C191.763 107.795 191.694 107.619 191.694 107.416C191.694 107.203 191.763 107.027 191.902 106.888C192.051 106.749 192.232 106.68 192.446 106.68ZM194.126 104.6C194.36 104.6 194.552 104.68 194.702 104.84C194.851 104.989 194.926 105.181 194.926 105.416V112.84C194.926 113.032 194.958 113.187 195.022 113.304C195.086 113.421 195.171 113.501 195.278 113.544C195.395 113.587 195.512 113.608 195.63 113.608C195.747 113.608 195.848 113.587 195.934 113.544C196.03 113.501 196.142 113.48 196.27 113.48C196.398 113.48 196.515 113.539 196.622 113.656C196.728 113.773 196.782 113.933 196.782 114.136C196.782 114.392 196.643 114.6 196.366 114.76C196.088 114.92 195.79 115 195.47 115C195.288 115 195.075 114.984 194.83 114.952C194.584 114.92 194.344 114.84 194.11 114.712C193.886 114.584 193.699 114.381 193.549 114.104C193.4 113.816 193.326 113.416 193.326 112.904V105.416C193.326 105.181 193.4 104.989 193.549 104.84C193.709 104.68 193.902 104.6 194.126 104.6ZM202.571 115.16C201.686 115.16 200.918 114.979 200.267 114.616C199.617 114.243 199.11 113.736 198.747 113.096C198.395 112.445 198.219 111.704 198.219 110.872C198.219 109.933 198.406 109.133 198.779 108.472C199.163 107.8 199.659 107.288 200.267 106.936C200.875 106.573 201.521 106.392 202.203 106.392C202.726 106.392 203.222 106.499 203.691 106.712C204.161 106.915 204.577 107.203 204.939 107.576C205.313 107.939 205.606 108.371 205.819 108.872C206.033 109.363 206.145 109.901 206.155 110.488C206.145 110.701 206.059 110.877 205.899 111.016C205.739 111.155 205.553 111.224 205.339 111.224H199.115L198.731 109.864H204.747L204.443 110.152V109.752C204.422 109.379 204.299 109.053 204.075 108.776C203.851 108.488 203.574 108.269 203.243 108.12C202.913 107.96 202.566 107.88 202.203 107.88C201.883 107.88 201.574 107.933 201.275 108.04C200.987 108.136 200.726 108.296 200.491 108.52C200.267 108.744 200.086 109.043 199.947 109.416C199.819 109.779 199.755 110.232 199.755 110.776C199.755 111.363 199.878 111.875 200.123 112.312C200.369 112.749 200.699 113.091 201.115 113.336C201.531 113.571 201.99 113.688 202.491 113.688C202.886 113.688 203.211 113.651 203.467 113.576C203.723 113.491 203.937 113.389 204.107 113.272C204.278 113.155 204.427 113.043 204.555 112.936C204.715 112.84 204.875 112.792 205.035 112.792C205.227 112.792 205.387 112.861 205.515 113C205.643 113.128 205.707 113.283 205.707 113.464C205.707 113.699 205.59 113.912 205.355 114.104C205.067 114.381 204.667 114.627 204.155 114.84C203.654 115.053 203.126 115.16 202.571 115.16ZM214.86 103.16C215.094 103.16 215.286 103.235 215.436 103.384C215.585 103.533 215.66 103.731 215.66 103.976V114.184C215.66 114.419 215.585 114.616 215.436 114.776C215.286 114.925 215.094 115 214.86 115C214.636 115 214.444 114.925 214.284 114.776C214.134 114.616 214.06 114.419 214.06 114.184V113.032L214.396 113.048C214.396 113.24 214.316 113.459 214.156 113.704C214.006 113.939 213.798 114.168 213.532 114.392C213.265 114.616 212.95 114.803 212.588 114.952C212.225 115.091 211.836 115.16 211.42 115.16C210.684 115.16 210.022 114.973 209.436 114.6C208.849 114.216 208.385 113.699 208.044 113.048C207.702 112.387 207.532 111.629 207.532 110.776C207.532 109.923 207.702 109.171 208.044 108.52C208.385 107.859 208.844 107.341 209.42 106.968C210.006 106.584 210.657 106.392 211.372 106.392C211.82 106.392 212.236 106.467 212.62 106.616C213.014 106.765 213.356 106.957 213.644 107.192C213.932 107.427 214.156 107.677 214.316 107.944C214.476 108.2 214.556 108.445 214.556 108.68L214.06 108.728V103.976C214.06 103.741 214.134 103.549 214.284 103.4C214.444 103.24 214.636 103.16 214.86 103.16ZM211.596 113.688C212.108 113.688 212.55 113.56 212.924 113.304C213.308 113.048 213.606 112.701 213.82 112.264C214.033 111.827 214.14 111.331 214.14 110.776C214.14 110.221 214.033 109.725 213.82 109.288C213.606 108.851 213.308 108.504 212.924 108.248C212.54 107.992 212.097 107.864 211.596 107.864C211.105 107.864 210.668 107.992 210.284 108.248C209.91 108.504 209.612 108.851 209.388 109.288C209.174 109.725 209.068 110.221 209.068 110.776C209.068 111.331 209.174 111.827 209.388 112.264C209.612 112.701 209.91 113.048 210.284 113.304C210.668 113.56 211.105 113.688 211.596 113.688ZM82.0866 126.44C82.8226 126.44 83.3932 126.6 83.7986 126.92C84.2039 127.229 84.4866 127.651 84.6466 128.184C84.8172 128.717 84.9026 129.304 84.9026 129.944V134.184C84.9026 134.419 84.8226 134.616 84.6626 134.776C84.5132 134.925 84.3266 135 84.1026 135C83.8679 135 83.6759 134.925 83.5266 134.776C83.3772 134.616 83.3026 134.419 83.3026 134.184V129.944C83.3026 129.571 83.2492 129.229 83.1426 128.92C83.0466 128.611 82.8706 128.365 82.6146 128.184C82.3692 128.003 82.0226 127.912 81.5746 127.912C81.1586 127.912 80.7852 128.003 80.4546 128.184C80.1346 128.365 79.8839 128.611 79.7026 128.92C79.5319 129.229 79.4466 129.571 79.4466 129.944V134.184C79.4466 134.419 79.3666 134.616 79.2066 134.776C79.0572 134.925 78.8706 135 78.6466 135C78.4119 135 78.2199 134.925 78.0706 134.776C77.9212 134.616 77.8466 134.419 77.8466 134.184V123.976C77.8466 123.741 77.9212 123.549 78.0706 123.4C78.2199 123.24 78.4119 123.16 78.6466 123.16C78.8706 123.16 79.0572 123.24 79.2066 123.4C79.3666 123.549 79.4466 123.741 79.4466 123.976V128.344L79.1586 128.504C79.2332 128.269 79.3559 128.029 79.5266 127.784C79.7079 127.539 79.9266 127.315 80.1826 127.112C80.4492 126.909 80.7426 126.749 81.0626 126.632C81.3826 126.504 81.7239 126.44 82.0866 126.44ZM91.0478 135.16C90.1625 135.16 89.3945 134.979 88.7438 134.616C88.0931 134.243 87.5865 133.736 87.2238 133.096C86.8718 132.445 86.6958 131.704 86.6958 130.872C86.6958 129.933 86.8825 129.133 87.2558 128.472C87.6398 127.8 88.1358 127.288 88.7438 126.936C89.3518 126.573 89.9971 126.392 90.6798 126.392C91.2025 126.392 91.6985 126.499 92.1678 126.712C92.6371 126.915 93.0531 127.203 93.4158 127.576C93.7891 127.939 94.0825 128.371 94.2958 128.872C94.5091 129.363 94.6211 129.901 94.6318 130.488C94.6211 130.701 94.5358 130.877 94.3758 131.016C94.2158 131.155 94.0291 131.224 93.8158 131.224H87.5918L87.2078 129.864H93.2238L92.9198 130.152V129.752C92.8985 129.379 92.7758 129.053 92.5518 128.776C92.3278 128.488 92.0505 128.269 91.7198 128.12C91.3891 127.96 91.0425 127.88 90.6798 127.88C90.3598 127.88 90.0505 127.933 89.7518 128.04C89.4638 128.136 89.2025 128.296 88.9678 128.52C88.7438 128.744 88.5625 129.043 88.4238 129.416C88.2958 129.779 88.2318 130.232 88.2318 130.776C88.2318 131.363 88.3545 131.875 88.5998 132.312C88.8451 132.749 89.1758 133.091 89.5918 133.336C90.0078 133.571 90.4665 133.688 90.9678 133.688C91.3625 133.688 91.6878 133.651 91.9438 133.576C92.1998 133.491 92.4131 133.389 92.5838 133.272C92.7545 133.155 92.9038 133.043 93.0318 132.936C93.1918 132.84 93.3518 132.792 93.5118 132.792C93.7038 132.792 93.8638 132.861 93.9918 133C94.1198 133.128 94.1838 133.283 94.1838 133.464C94.1838 133.699 94.0665 133.912 93.8318 134.104C93.5438 134.381 93.1438 134.627 92.6318 134.84C92.1305 135.053 91.6025 135.16 91.0478 135.16ZM103.399 126.456C103.633 126.456 103.825 126.536 103.975 126.696C104.124 126.845 104.199 127.037 104.199 127.272V134.184C104.199 134.419 104.124 134.616 103.975 134.776C103.825 134.925 103.633 135 103.399 135C103.175 135 102.983 134.925 102.823 134.776C102.673 134.616 102.599 134.419 102.599 134.184V133.032L102.935 133.08C102.935 133.272 102.855 133.485 102.695 133.72C102.545 133.955 102.337 134.184 102.071 134.408C101.804 134.621 101.489 134.803 101.127 134.952C100.764 135.091 100.375 135.16 99.9588 135.16C99.2228 135.16 98.5615 134.973 97.9748 134.6C97.3881 134.216 96.9241 133.693 96.5828 133.032C96.2415 132.371 96.0708 131.619 96.0708 130.776C96.0708 129.912 96.2415 129.155 96.5828 128.504C96.9241 127.843 97.3828 127.325 97.9588 126.952C98.5455 126.579 99.1961 126.392 99.9108 126.392C100.369 126.392 100.791 126.467 101.175 126.616C101.569 126.765 101.911 126.957 102.199 127.192C102.487 127.427 102.705 127.677 102.855 127.944C103.015 128.2 103.095 128.445 103.095 128.68L102.599 128.728V127.272C102.599 127.048 102.673 126.856 102.823 126.696C102.983 126.536 103.175 126.456 103.399 126.456ZM100.135 133.688C100.636 133.688 101.079 133.56 101.463 133.304C101.847 133.048 102.145 132.701 102.359 132.264C102.572 131.816 102.679 131.32 102.679 130.776C102.679 130.221 102.572 129.725 102.359 129.288C102.145 128.851 101.847 128.504 101.463 128.248C101.079 127.992 100.636 127.864 100.135 127.864C99.6441 127.864 99.2068 127.992 98.8228 128.248C98.4495 128.504 98.1508 128.851 97.9268 129.288C97.7135 129.725 97.6068 130.221 97.6068 130.776C97.6068 131.32 97.7135 131.816 97.9268 132.264C98.1508 132.701 98.4495 133.048 98.8228 133.304C99.2068 133.56 99.6441 133.688 100.135 133.688ZM108.168 134.184C108.168 134.419 108.088 134.616 107.928 134.776C107.779 134.925 107.592 135 107.368 135C107.144 135 106.952 134.925 106.792 134.776C106.643 134.616 106.568 134.419 106.568 134.184V123.976C106.568 123.741 106.648 123.549 106.808 123.4C106.968 123.24 107.16 123.16 107.384 123.16C107.619 123.16 107.806 123.24 107.944 123.4C108.094 123.549 108.168 123.741 108.168 123.976V134.184ZM110.391 126.68H114.151C114.364 126.68 114.54 126.755 114.679 126.904C114.828 127.043 114.903 127.219 114.903 127.432C114.903 127.635 114.828 127.805 114.679 127.944C114.54 128.083 114.364 128.152 114.151 128.152H110.391C110.177 128.152 109.996 128.083 109.847 127.944C109.708 127.795 109.639 127.619 109.639 127.416C109.639 127.203 109.708 127.027 109.847 126.888C109.996 126.749 110.177 126.68 110.391 126.68ZM112.071 124.6C112.305 124.6 112.497 124.68 112.647 124.84C112.796 124.989 112.871 125.181 112.871 125.416V132.84C112.871 133.032 112.903 133.187 112.967 133.304C113.031 133.421 113.116 133.501 113.223 133.544C113.34 133.587 113.457 133.608 113.575 133.608C113.692 133.608 113.793 133.587 113.879 133.544C113.975 133.501 114.087 133.48 114.215 133.48C114.343 133.48 114.46 133.539 114.567 133.656C114.673 133.773 114.727 133.933 114.727 134.136C114.727 134.392 114.588 134.6 114.311 134.76C114.033 134.92 113.735 135 113.415 135C113.233 135 113.02 134.984 112.775 134.952C112.529 134.92 112.289 134.84 112.055 134.712C111.831 134.584 111.644 134.381 111.495 134.104C111.345 133.816 111.271 133.416 111.271 132.904V125.416C111.271 125.181 111.345 124.989 111.495 124.84C111.655 124.68 111.847 124.6 112.071 124.6ZM120.915 126.44C121.651 126.44 122.221 126.6 122.627 126.92C123.032 127.229 123.315 127.651 123.475 128.184C123.645 128.717 123.731 129.304 123.731 129.944V134.184C123.731 134.419 123.651 134.616 123.491 134.776C123.341 134.925 123.155 135 122.931 135C122.696 135 122.504 134.925 122.355 134.776C122.205 134.616 122.131 134.419 122.131 134.184V129.944C122.131 129.571 122.077 129.229 121.971 128.92C121.875 128.611 121.699 128.365 121.443 128.184C121.197 128.003 120.851 127.912 120.403 127.912C119.987 127.912 119.613 128.003 119.283 128.184C118.963 128.365 118.712 128.611 118.531 128.92C118.36 129.229 118.275 129.571 118.275 129.944V134.184C118.275 134.419 118.195 134.616 118.035 134.776C117.885 134.925 117.699 135 117.475 135C117.24 135 117.048 134.925 116.899 134.776C116.749 134.616 116.675 134.419 116.675 134.184V123.976C116.675 123.741 116.749 123.549 116.899 123.4C117.048 123.24 117.24 123.16 117.475 123.16C117.699 123.16 117.885 123.24 118.035 123.4C118.195 123.549 118.275 123.741 118.275 123.976V128.344L117.987 128.504C118.061 128.269 118.184 128.029 118.355 127.784C118.536 127.539 118.755 127.315 119.011 127.112C119.277 126.909 119.571 126.749 119.891 126.632C120.211 126.504 120.552 126.44 120.915 126.44ZM137.305 123.16C137.54 123.16 137.732 123.235 137.881 123.384C138.03 123.533 138.105 123.731 138.105 123.976V134.184C138.105 134.419 138.03 134.616 137.881 134.776C137.732 134.925 137.54 135 137.305 135C137.081 135 136.889 134.925 136.729 134.776C136.58 134.616 136.505 134.419 136.505 134.184V133.032L136.841 133.048C136.841 133.24 136.761 133.459 136.601 133.704C136.452 133.939 136.244 134.168 135.977 134.392C135.71 134.616 135.396 134.803 135.033 134.952C134.67 135.091 134.281 135.16 133.865 135.16C133.129 135.16 132.468 134.973 131.881 134.6C131.294 134.216 130.83 133.699 130.489 133.048C130.148 132.387 129.977 131.629 129.977 130.776C129.977 129.923 130.148 129.171 130.489 128.52C130.83 127.859 131.289 127.341 131.865 126.968C132.452 126.584 133.102 126.392 133.817 126.392C134.265 126.392 134.681 126.467 135.065 126.616C135.46 126.765 135.801 126.957 136.089 127.192C136.377 127.427 136.601 127.677 136.761 127.944C136.921 128.2 137.001 128.445 137.001 128.68L136.505 128.728V123.976C136.505 123.741 136.58 123.549 136.729 123.4C136.889 123.24 137.081 123.16 137.305 123.16ZM134.041 133.688C134.553 133.688 134.996 133.56 135.369 133.304C135.753 133.048 136.052 132.701 136.265 132.264C136.478 131.827 136.585 131.331 136.585 130.776C136.585 130.221 136.478 129.725 136.265 129.288C136.052 128.851 135.753 128.504 135.369 128.248C134.985 127.992 134.542 127.864 134.041 127.864C133.55 127.864 133.113 127.992 132.729 128.248C132.356 128.504 132.057 128.851 131.833 129.288C131.62 129.725 131.513 130.221 131.513 130.776C131.513 131.331 131.62 131.827 131.833 132.264C132.057 132.701 132.356 133.048 132.729 133.304C133.113 133.56 133.55 133.688 134.041 133.688ZM147.243 126.456C147.477 126.456 147.669 126.536 147.819 126.696C147.968 126.845 148.043 127.037 148.043 127.272V134.184C148.043 134.419 147.968 134.616 147.819 134.776C147.669 134.925 147.477 135 147.243 135C147.019 135 146.827 134.925 146.667 134.776C146.517 134.616 146.443 134.419 146.443 134.184V133.032L146.779 133.08C146.779 133.272 146.699 133.485 146.539 133.72C146.389 133.955 146.181 134.184 145.915 134.408C145.648 134.621 145.333 134.803 144.971 134.952C144.608 135.091 144.219 135.16 143.803 135.16C143.067 135.16 142.405 134.973 141.819 134.6C141.232 134.216 140.768 133.693 140.427 133.032C140.085 132.371 139.915 131.619 139.915 130.776C139.915 129.912 140.085 129.155 140.427 128.504C140.768 127.843 141.227 127.325 141.803 126.952C142.389 126.579 143.04 126.392 143.755 126.392C144.213 126.392 144.635 126.467 145.019 126.616C145.413 126.765 145.755 126.957 146.043 127.192C146.331 127.427 146.549 127.677 146.699 127.944C146.859 128.2 146.939 128.445 146.939 128.68L146.443 128.728V127.272C146.443 127.048 146.517 126.856 146.667 126.696C146.827 126.536 147.019 126.456 147.243 126.456ZM143.979 133.688C144.48 133.688 144.923 133.56 145.307 133.304C145.691 133.048 145.989 132.701 146.203 132.264C146.416 131.816 146.523 131.32 146.523 130.776C146.523 130.221 146.416 129.725 146.203 129.288C145.989 128.851 145.691 128.504 145.307 128.248C144.923 127.992 144.48 127.864 143.979 127.864C143.488 127.864 143.051 127.992 142.667 128.248C142.293 128.504 141.995 128.851 141.771 129.288C141.557 129.725 141.451 130.221 141.451 130.776C141.451 131.32 141.557 131.816 141.771 132.264C141.995 132.701 142.293 133.048 142.667 133.304C143.051 133.56 143.488 133.688 143.979 133.688ZM150.172 126.68H153.932C154.145 126.68 154.321 126.755 154.46 126.904C154.609 127.043 154.684 127.219 154.684 127.432C154.684 127.635 154.609 127.805 154.46 127.944C154.321 128.083 154.145 128.152 153.932 128.152H150.172C149.959 128.152 149.777 128.083 149.628 127.944C149.489 127.795 149.42 127.619 149.42 127.416C149.42 127.203 149.489 127.027 149.628 126.888C149.777 126.749 149.959 126.68 150.172 126.68ZM151.852 124.6C152.087 124.6 152.279 124.68 152.428 124.84C152.577 124.989 152.652 125.181 152.652 125.416V132.84C152.652 133.032 152.684 133.187 152.748 133.304C152.812 133.421 152.897 133.501 153.004 133.544C153.121 133.587 153.239 133.608 153.356 133.608C153.473 133.608 153.575 133.587 153.66 133.544C153.756 133.501 153.868 133.48 153.996 133.48C154.124 133.48 154.241 133.539 154.348 133.656C154.455 133.773 154.508 133.933 154.508 134.136C154.508 134.392 154.369 134.6 154.092 134.76C153.815 134.92 153.516 135 153.196 135C153.015 135 152.801 134.984 152.556 134.952C152.311 134.92 152.071 134.84 151.836 134.712C151.612 134.584 151.425 134.381 151.276 134.104C151.127 133.816 151.052 133.416 151.052 132.904V125.416C151.052 125.181 151.127 124.989 151.276 124.84C151.436 124.68 151.628 124.6 151.852 124.6ZM163.352 126.456C163.587 126.456 163.779 126.536 163.928 126.696C164.077 126.845 164.152 127.037 164.152 127.272V134.184C164.152 134.419 164.077 134.616 163.928 134.776C163.779 134.925 163.587 135 163.352 135C163.128 135 162.936 134.925 162.776 134.776C162.627 134.616 162.552 134.419 162.552 134.184V133.032L162.888 133.08C162.888 133.272 162.808 133.485 162.648 133.72C162.499 133.955 162.291 134.184 162.024 134.408C161.757 134.621 161.443 134.803 161.08 134.952C160.717 135.091 160.328 135.16 159.912 135.16C159.176 135.16 158.515 134.973 157.928 134.6C157.341 134.216 156.877 133.693 156.536 133.032C156.195 132.371 156.024 131.619 156.024 130.776C156.024 129.912 156.195 129.155 156.536 128.504C156.877 127.843 157.336 127.325 157.912 126.952C158.499 126.579 159.149 126.392 159.864 126.392C160.323 126.392 160.744 126.467 161.128 126.616C161.523 126.765 161.864 126.957 162.152 127.192C162.44 127.427 162.659 127.677 162.808 127.944C162.968 128.2 163.048 128.445 163.048 128.68L162.552 128.728V127.272C162.552 127.048 162.627 126.856 162.776 126.696C162.936 126.536 163.128 126.456 163.352 126.456ZM160.088 133.688C160.589 133.688 161.032 133.56 161.416 133.304C161.8 133.048 162.099 132.701 162.312 132.264C162.525 131.816 162.632 131.32 162.632 130.776C162.632 130.221 162.525 129.725 162.312 129.288C162.099 128.851 161.8 128.504 161.416 128.248C161.032 127.992 160.589 127.864 160.088 127.864C159.597 127.864 159.16 127.992 158.776 128.248C158.403 128.504 158.104 128.851 157.88 129.288C157.667 129.725 157.56 130.221 157.56 130.776C157.56 131.32 157.667 131.816 157.88 132.264C158.104 132.701 158.403 133.048 158.776 133.304C159.16 133.56 159.597 133.688 160.088 133.688Z" fill="white"/>
</svg>
