<svg width="40" height="40" viewBox="0 0 40 40" fill="none" xmlns="http://www.w3.org/2000/svg">
<circle cx="20" cy="20" r="20" fill="#BDC5C4"/>
<path d="M15.8789 27V25.3008L20.7617 20.4766C21.2956 19.9492 21.6992 19.526 21.9727 19.207C22.2461 18.888 22.4674 18.5527 22.6367 18.2012C22.8125 17.8496 22.9004 17.4948 22.9004 17.1367C22.9004 16.5378 22.6855 16.0462 22.2559 15.6621C21.8327 15.2715 21.2956 15.0762 20.6445 15.0762C19.8503 15.0762 19.222 15.3203 18.7598 15.8086C18.2975 16.2904 18.0632 16.9609 18.0566 17.8203L15.7617 17.7031C15.7617 16.2839 16.2337 15.112 17.1777 14.1875C18.1217 13.263 19.2839 12.8008 20.6641 12.8008C21.9987 12.8008 23.1055 13.2044 23.9844 14.0117C24.8633 14.8125 25.3027 15.8346 25.3027 17.0781C25.3027 17.8984 25.0586 18.6927 24.5703 19.4609C24.0885 20.2292 23.3724 21.0625 22.4219 21.9609L19.6582 24.7246H25.4004V27H15.8789Z" fill="white"/>
</svg>
