<svg width="327" height="250" viewBox="0 0 327 250" fill="none" xmlns="http://www.w3.org/2000/svg">
<g filter="url(#filter0_f_17_726)">
<rect x="80" y="80" width="216" height="90" fill="white"/>
</g>
<g filter="url(#filter1_b_17_726)">
<rect x="80" y="84" width="216" height="81" rx="8" fill="#00544F"/>
<circle cx="117" cy="124.5" r="18" fill="#E7C13C" fill-opacity="0.5"/>
<path d="M108.818 126.136C110.454 127.227 113.727 129.736 113.727 131.045C113.727 132.355 121.364 123.955 125.182 119.591" stroke="#E7C13C" stroke-width="5" stroke-linecap="round"/>
<path d="M159.049 122.712C159.593 122.28 159.841 122.08 159.793 122.112C161.361 120.816 162.593 119.752 163.489 118.92C164.401 118.088 165.169 117.216 165.793 116.304C166.417 115.392 166.729 114.504 166.729 113.64C166.729 112.984 166.577 112.472 166.273 112.104C165.969 111.736 165.513 111.552 164.905 111.552C164.297 111.552 163.817 111.784 163.465 112.248C163.129 112.696 162.961 113.336 162.961 114.168H159.001C159.033 112.808 159.321 111.672 159.865 110.76C160.425 109.848 161.153 109.176 162.049 108.744C162.961 108.312 163.969 108.096 165.073 108.096C166.977 108.096 168.409 108.584 169.369 109.56C170.345 110.536 170.833 111.808 170.833 113.376C170.833 115.088 170.249 116.68 169.081 118.152C167.913 119.608 166.425 121.032 164.617 122.424H171.097V125.76H159.049V122.712ZM173 122.88V119.568L180.584 108.72H185.168V119.328H187.136V122.88H185.168V126H181.064V122.88H173ZM181.352 113.232L177.32 119.328H181.352V113.232ZM197.786 112.464C199.322 112.464 200.554 112.976 201.482 114C202.41 115.008 202.874 116.4 202.874 118.176V126H198.794V118.728C198.794 117.832 198.562 117.136 198.098 116.64C197.634 116.144 197.01 115.896 196.226 115.896C195.442 115.896 194.818 116.144 194.354 116.64C193.89 117.136 193.658 117.832 193.658 118.728V126H189.554V108.24H193.658V114.408C194.074 113.816 194.642 113.344 195.362 112.992C196.082 112.64 196.89 112.464 197.786 112.464ZM209.83 114.84C210.31 114.104 210.91 113.528 211.63 113.112C212.35 112.68 213.15 112.464 214.03 112.464V116.808H212.902C211.878 116.808 211.11 117.032 210.598 117.48C210.086 117.912 209.83 118.68 209.83 119.784V126H205.726V112.608H209.83V114.84ZM221.44 126.192C220.272 126.192 219.232 125.992 218.32 125.592C217.408 125.192 216.688 124.648 216.16 123.96C215.632 123.256 215.336 122.472 215.272 121.608H219.328C219.376 122.072 219.592 122.448 219.976 122.736C220.36 123.024 220.832 123.168 221.392 123.168C221.904 123.168 222.296 123.072 222.568 122.88C222.856 122.672 223 122.408 223 122.088C223 121.704 222.8 121.424 222.4 121.248C222 121.056 221.352 120.848 220.456 120.624C219.496 120.4 218.696 120.168 218.056 119.928C217.416 119.672 216.864 119.28 216.4 118.752C215.936 118.208 215.704 117.48 215.704 116.568C215.704 115.8 215.912 115.104 216.328 114.48C216.76 113.84 217.384 113.336 218.2 112.968C219.032 112.6 220.016 112.416 221.152 112.416C222.832 112.416 224.152 112.832 225.112 113.664C226.088 114.496 226.648 115.6 226.792 116.976H223C222.936 116.512 222.728 116.144 222.376 115.872C222.04 115.6 221.592 115.464 221.032 115.464C220.552 115.464 220.184 115.56 219.928 115.752C219.672 115.928 219.544 116.176 219.544 116.496C219.544 116.88 219.744 117.168 220.144 117.36C220.56 117.552 221.2 117.744 222.064 117.936C223.056 118.192 223.864 118.448 224.488 118.704C225.112 118.944 225.656 119.344 226.12 119.904C226.6 120.448 226.848 121.184 226.864 122.112C226.864 122.896 226.64 123.6 226.192 124.224C225.76 124.832 225.128 125.312 224.296 125.664C223.48 126.016 222.528 126.192 221.44 126.192Z" fill="white"/>
<path d="M161.677 139.16L158.977 145.64C158.929 145.768 158.857 145.868 158.761 145.94C158.665 146.012 158.557 146.048 158.437 146.048C158.261 146.048 158.129 146 158.041 145.904C157.953 145.8 157.905 145.672 157.897 145.52C157.897 145.464 157.909 145.4 157.933 145.328L160.981 137.96C161.037 137.824 161.117 137.72 161.221 137.648C161.333 137.576 161.453 137.544 161.581 137.552C161.701 137.552 161.813 137.588 161.917 137.66C162.021 137.732 162.097 137.832 162.145 137.96L165.157 145.22C165.189 145.3 165.205 145.38 165.205 145.46C165.205 145.636 165.145 145.78 165.025 145.892C164.913 145.996 164.785 146.048 164.641 146.048C164.521 146.048 164.409 146.012 164.305 145.94C164.209 145.86 164.137 145.76 164.089 145.64L161.365 139.196L161.677 139.16ZM159.457 143.936L159.997 142.784H163.393L163.597 143.936H159.457ZM169.04 139.544C169.472 139.544 169.856 139.592 170.192 139.688C170.528 139.776 170.788 139.904 170.972 140.072C171.164 140.232 171.26 140.42 171.26 140.636C171.26 140.772 171.22 140.9 171.14 141.02C171.06 141.132 170.94 141.188 170.78 141.188C170.668 141.188 170.572 141.168 170.492 141.128C170.42 141.088 170.352 141.04 170.288 140.984C170.224 140.928 170.144 140.872 170.048 140.816C169.96 140.768 169.828 140.728 169.652 140.696C169.484 140.664 169.332 140.648 169.196 140.648C168.772 140.648 168.404 140.744 168.092 140.936C167.788 141.128 167.548 141.388 167.372 141.716C167.204 142.044 167.12 142.416 167.12 142.832C167.12 143.248 167.204 143.62 167.372 143.948C167.548 144.276 167.784 144.536 168.08 144.728C168.384 144.92 168.736 145.016 169.136 145.016C169.376 145.016 169.572 145 169.724 144.968C169.876 144.928 170.008 144.88 170.12 144.824C170.24 144.752 170.34 144.68 170.42 144.608C170.508 144.528 170.628 144.488 170.78 144.488C170.956 144.488 171.088 144.544 171.176 144.656C171.272 144.76 171.32 144.892 171.32 145.052C171.32 145.228 171.212 145.4 170.996 145.568C170.788 145.728 170.508 145.86 170.156 145.964C169.804 146.068 169.416 146.12 168.992 146.12C168.368 146.12 167.824 145.976 167.36 145.688C166.904 145.4 166.548 145.008 166.292 144.512C166.044 144.016 165.92 143.456 165.92 142.832C165.92 142.2 166.052 141.64 166.316 141.152C166.58 140.656 166.948 140.264 167.42 139.976C167.892 139.688 168.432 139.544 169.04 139.544ZM172.383 139.76H175.203C175.363 139.76 175.495 139.816 175.599 139.928C175.711 140.032 175.767 140.164 175.767 140.324C175.767 140.476 175.711 140.604 175.599 140.708C175.495 140.812 175.363 140.864 175.203 140.864H172.383C172.223 140.864 172.087 140.812 171.975 140.708C171.871 140.596 171.819 140.464 171.819 140.312C171.819 140.152 171.871 140.02 171.975 139.916C172.087 139.812 172.223 139.76 172.383 139.76ZM173.643 138.2C173.819 138.2 173.963 138.26 174.075 138.38C174.187 138.492 174.243 138.636 174.243 138.812V144.38C174.243 144.524 174.267 144.64 174.315 144.728C174.363 144.816 174.427 144.876 174.507 144.908C174.595 144.94 174.683 144.956 174.771 144.956C174.859 144.956 174.935 144.94 174.999 144.908C175.071 144.876 175.155 144.86 175.251 144.86C175.347 144.86 175.435 144.904 175.515 144.992C175.595 145.08 175.635 145.2 175.635 145.352C175.635 145.544 175.531 145.7 175.323 145.82C175.115 145.94 174.891 146 174.651 146C174.515 146 174.355 145.988 174.171 145.964C173.987 145.94 173.807 145.88 173.631 145.784C173.463 145.688 173.323 145.536 173.211 145.328C173.099 145.112 173.043 144.812 173.043 144.428V138.812C173.043 138.636 173.099 138.492 173.211 138.38C173.331 138.26 173.475 138.2 173.643 138.2ZM178.224 145.388C178.224 145.564 178.168 145.712 178.056 145.832C177.944 145.944 177.8 146 177.624 146C177.456 146 177.312 145.944 177.192 145.832C177.08 145.712 177.024 145.564 177.024 145.388V140.252C177.024 140.076 177.08 139.932 177.192 139.82C177.312 139.7 177.456 139.64 177.624 139.64C177.8 139.64 177.944 139.7 178.056 139.82C178.168 139.932 178.224 140.076 178.224 140.252V145.388ZM177.612 138.848C177.38 138.848 177.212 138.808 177.108 138.728C177.004 138.64 176.952 138.496 176.952 138.296V138.104C176.952 137.904 177.008 137.764 177.12 137.684C177.232 137.604 177.4 137.564 177.624 137.564C177.864 137.564 178.036 137.608 178.14 137.696C178.244 137.776 178.296 137.912 178.296 138.104V138.296C178.296 138.504 178.24 138.648 178.128 138.728C178.024 138.808 177.852 138.848 177.612 138.848ZM179.982 139.628C180.102 139.628 180.214 139.66 180.318 139.724C180.43 139.788 180.51 139.884 180.558 140.012L182.442 144.368L182.214 144.476L184.122 140.024C184.234 139.76 184.414 139.632 184.662 139.64C184.822 139.64 184.954 139.692 185.058 139.796C185.17 139.892 185.226 140.02 185.226 140.18C185.226 140.228 185.218 140.28 185.202 140.336C185.186 140.384 185.166 140.432 185.142 140.48L182.862 145.616C182.758 145.856 182.586 145.984 182.346 146C182.226 146.016 182.106 145.992 181.986 145.928C181.874 145.856 181.786 145.752 181.722 145.616L179.454 140.48C179.438 140.448 179.422 140.408 179.406 140.36C179.39 140.304 179.382 140.24 179.382 140.168C179.382 140.048 179.434 139.928 179.538 139.808C179.65 139.688 179.798 139.628 179.982 139.628ZM189.329 146.12C188.665 146.12 188.089 145.984 187.601 145.712C187.113 145.432 186.733 145.052 186.461 144.572C186.197 144.084 186.065 143.528 186.065 142.904C186.065 142.2 186.205 141.6 186.485 141.104C186.773 140.6 187.145 140.216 187.601 139.952C188.057 139.68 188.541 139.544 189.053 139.544C189.445 139.544 189.817 139.624 190.169 139.784C190.521 139.936 190.833 140.152 191.105 140.432C191.385 140.704 191.605 141.028 191.765 141.404C191.925 141.772 192.009 142.176 192.017 142.616C192.009 142.776 191.945 142.908 191.825 143.012C191.705 143.116 191.565 143.168 191.405 143.168H186.737L186.449 142.148H190.961L190.733 142.364V142.064C190.717 141.784 190.625 141.54 190.457 141.332C190.289 141.116 190.081 140.952 189.833 140.84C189.585 140.72 189.325 140.66 189.053 140.66C188.813 140.66 188.581 140.7 188.357 140.78C188.141 140.852 187.945 140.972 187.769 141.14C187.601 141.308 187.465 141.532 187.361 141.812C187.265 142.084 187.217 142.424 187.217 142.832C187.217 143.272 187.309 143.656 187.493 143.984C187.677 144.312 187.925 144.568 188.237 144.752C188.549 144.928 188.893 145.016 189.269 145.016C189.565 145.016 189.809 144.988 190.001 144.932C190.193 144.868 190.353 144.792 190.481 144.704C190.609 144.616 190.721 144.532 190.817 144.452C190.937 144.38 191.057 144.344 191.177 144.344C191.321 144.344 191.441 144.396 191.537 144.5C191.633 144.596 191.681 144.712 191.681 144.848C191.681 145.024 191.593 145.184 191.417 145.328C191.201 145.536 190.901 145.72 190.517 145.88C190.141 146.04 189.745 146.12 189.329 146.12ZM199.653 137.132C199.805 137.132 199.961 137.152 200.121 137.192C200.281 137.232 200.413 137.3 200.517 137.396C200.629 137.484 200.685 137.608 200.685 137.768C200.685 137.928 200.637 138.06 200.541 138.164C200.445 138.26 200.333 138.308 200.205 138.308C200.125 138.308 200.017 138.292 199.881 138.26C199.745 138.22 199.609 138.2 199.473 138.2C199.289 138.2 199.141 138.244 199.029 138.332C198.917 138.412 198.837 138.516 198.789 138.644C198.741 138.764 198.717 138.884 198.717 139.004V145.388C198.717 145.564 198.657 145.712 198.537 145.832C198.425 145.944 198.285 146 198.117 146C197.941 146 197.797 145.944 197.685 145.832C197.573 145.712 197.517 145.564 197.517 145.388V139.016C197.517 138.464 197.697 138.012 198.057 137.66C198.425 137.308 198.957 137.132 199.653 137.132ZM199.893 139.796C200.053 139.796 200.185 139.848 200.289 139.952C200.393 140.056 200.445 140.188 200.445 140.348C200.445 140.508 200.393 140.64 200.289 140.744C200.185 140.848 200.053 140.9 199.893 140.9H196.785C196.633 140.9 196.501 140.848 196.389 140.744C196.285 140.64 196.233 140.508 196.233 140.348C196.233 140.188 196.285 140.056 196.389 139.952C196.501 139.848 196.633 139.796 196.785 139.796H199.893ZM207.308 142.844C207.308 143.484 207.168 144.052 206.888 144.548C206.608 145.036 206.228 145.42 205.748 145.7C205.268 145.98 204.728 146.12 204.128 146.12C203.528 146.12 202.988 145.98 202.508 145.7C202.028 145.42 201.644 145.036 201.356 144.548C201.076 144.052 200.936 143.484 200.936 142.844C200.936 142.196 201.076 141.628 201.356 141.14C201.644 140.644 202.028 140.256 202.508 139.976C202.988 139.688 203.528 139.544 204.128 139.544C204.728 139.544 205.268 139.688 205.748 139.976C206.228 140.256 206.608 140.644 206.888 141.14C207.168 141.628 207.308 142.196 207.308 142.844ZM206.108 142.844C206.108 142.404 206.02 142.024 205.844 141.704C205.668 141.376 205.428 141.12 205.124 140.936C204.828 140.744 204.496 140.648 204.128 140.648C203.76 140.648 203.424 140.744 203.12 140.936C202.816 141.12 202.576 141.376 202.4 141.704C202.224 142.024 202.136 142.404 202.136 142.844C202.136 143.268 202.224 143.644 202.4 143.972C202.576 144.3 202.816 144.556 203.12 144.74C203.424 144.924 203.76 145.016 204.128 145.016C204.496 145.016 204.828 144.924 205.124 144.74C205.428 144.556 205.668 144.3 205.844 143.972C206.02 143.644 206.108 143.268 206.108 142.844ZM209.266 146C209.09 146 208.946 145.944 208.834 145.832C208.722 145.712 208.666 145.564 208.666 145.388V140.3C208.666 140.124 208.722 139.98 208.834 139.868C208.946 139.748 209.09 139.688 209.266 139.688C209.434 139.688 209.574 139.748 209.686 139.868C209.806 139.98 209.866 140.124 209.866 140.3V141.644L209.746 141.128C209.81 140.904 209.906 140.696 210.034 140.504C210.17 140.312 210.33 140.144 210.514 140C210.698 139.856 210.902 139.744 211.126 139.664C211.358 139.584 211.598 139.544 211.846 139.544C212.054 139.544 212.234 139.6 212.386 139.712C212.538 139.824 212.614 139.964 212.614 140.132C212.614 140.348 212.558 140.508 212.446 140.612C212.334 140.708 212.21 140.756 212.074 140.756C211.954 140.756 211.838 140.732 211.726 140.684C211.614 140.628 211.482 140.6 211.33 140.6C211.162 140.6 210.99 140.644 210.814 140.732C210.638 140.82 210.478 140.952 210.334 141.128C210.19 141.296 210.074 141.496 209.986 141.728C209.906 141.96 209.866 142.22 209.866 142.508V145.388C209.866 145.564 209.806 145.712 209.686 145.832C209.574 145.944 209.434 146 209.266 146ZM217.622 146C217.446 146 217.302 145.944 217.19 145.832C217.078 145.712 217.022 145.564 217.022 145.388V140.3C217.022 140.124 217.078 139.98 217.19 139.868C217.302 139.748 217.446 139.688 217.622 139.688C217.79 139.688 217.93 139.748 218.042 139.868C218.162 139.98 218.222 140.124 218.222 140.3V141.644L218.102 141.128C218.166 140.904 218.262 140.696 218.39 140.504C218.526 140.312 218.686 140.144 218.87 140C219.054 139.856 219.258 139.744 219.482 139.664C219.714 139.584 219.954 139.544 220.202 139.544C220.41 139.544 220.59 139.6 220.742 139.712C220.894 139.824 220.97 139.964 220.97 140.132C220.97 140.348 220.914 140.508 220.802 140.612C220.69 140.708 220.566 140.756 220.43 140.756C220.31 140.756 220.194 140.732 220.082 140.684C219.97 140.628 219.838 140.6 219.686 140.6C219.518 140.6 219.346 140.644 219.17 140.732C218.994 140.82 218.834 140.952 218.69 141.128C218.546 141.296 218.43 141.496 218.342 141.728C218.262 141.96 218.222 142.22 218.222 142.508V145.388C218.222 145.564 218.162 145.712 218.042 145.832C217.93 145.944 217.79 146 217.622 146ZM224.708 146.12C224.044 146.12 223.468 145.984 222.98 145.712C222.492 145.432 222.112 145.052 221.84 144.572C221.576 144.084 221.444 143.528 221.444 142.904C221.444 142.2 221.584 141.6 221.864 141.104C222.152 140.6 222.524 140.216 222.98 139.952C223.436 139.68 223.92 139.544 224.432 139.544C224.824 139.544 225.196 139.624 225.548 139.784C225.9 139.936 226.212 140.152 226.484 140.432C226.764 140.704 226.984 141.028 227.144 141.404C227.304 141.772 227.388 142.176 227.396 142.616C227.388 142.776 227.324 142.908 227.204 143.012C227.084 143.116 226.944 143.168 226.784 143.168H222.116L221.828 142.148H226.34L226.112 142.364V142.064C226.096 141.784 226.004 141.54 225.836 141.332C225.668 141.116 225.46 140.952 225.212 140.84C224.964 140.72 224.704 140.66 224.432 140.66C224.192 140.66 223.96 140.7 223.736 140.78C223.52 140.852 223.324 140.972 223.148 141.14C222.98 141.308 222.844 141.532 222.74 141.812C222.644 142.084 222.596 142.424 222.596 142.832C222.596 143.272 222.688 143.656 222.872 143.984C223.056 144.312 223.304 144.568 223.616 144.752C223.928 144.928 224.272 145.016 224.648 145.016C224.944 145.016 225.188 144.988 225.38 144.932C225.572 144.868 225.732 144.792 225.86 144.704C225.988 144.616 226.1 144.532 226.196 144.452C226.316 144.38 226.436 144.344 226.556 144.344C226.7 144.344 226.82 144.396 226.916 144.5C227.012 144.596 227.06 144.712 227.06 144.848C227.06 145.024 226.972 145.184 226.796 145.328C226.58 145.536 226.28 145.72 225.896 145.88C225.52 146.04 225.124 146.12 224.708 146.12ZM228.38 145.016C228.308 144.904 228.276 144.776 228.284 144.632C228.292 144.48 228.376 144.352 228.536 144.248C228.648 144.176 228.764 144.148 228.884 144.164C229.012 144.172 229.132 144.232 229.244 144.344C229.468 144.592 229.716 144.788 229.988 144.932C230.268 145.076 230.604 145.148 230.996 145.148C231.156 145.14 231.32 145.116 231.488 145.076C231.656 145.028 231.8 144.948 231.92 144.836C232.04 144.716 232.1 144.544 232.1 144.32C232.1 144.12 232.036 143.96 231.908 143.84C231.78 143.72 231.612 143.624 231.404 143.552C231.196 143.472 230.972 143.4 230.732 143.336C230.476 143.264 230.216 143.184 229.952 143.096C229.696 143.008 229.464 142.896 229.256 142.76C229.048 142.616 228.876 142.432 228.74 142.208C228.612 141.984 228.548 141.708 228.548 141.38C228.548 141.004 228.652 140.68 228.86 140.408C229.076 140.136 229.352 139.924 229.688 139.772C230.032 139.62 230.404 139.544 230.804 139.544C231.036 139.544 231.28 139.576 231.536 139.64C231.792 139.696 232.04 139.788 232.28 139.916C232.52 140.044 232.728 140.212 232.904 140.42C232.984 140.524 233.028 140.648 233.036 140.792C233.052 140.936 232.988 141.064 232.844 141.176C232.748 141.256 232.632 141.292 232.496 141.284C232.36 141.276 232.248 141.232 232.16 141.152C232.008 140.96 231.812 140.812 231.572 140.708C231.332 140.596 231.06 140.54 230.756 140.54C230.604 140.54 230.444 140.564 230.276 140.612C230.116 140.652 229.98 140.728 229.868 140.84C229.756 140.952 229.7 141.116 229.7 141.332C229.7 141.532 229.764 141.692 229.892 141.812C230.028 141.932 230.204 142.032 230.42 142.112C230.636 142.192 230.872 142.264 231.128 142.328C231.376 142.392 231.62 142.468 231.86 142.556C232.108 142.644 232.328 142.76 232.52 142.904C232.72 143.04 232.88 143.22 233 143.444C233.128 143.66 233.192 143.936 233.192 144.272C233.192 144.664 233.076 145 232.844 145.28C232.62 145.552 232.332 145.76 231.98 145.904C231.636 146.048 231.272 146.12 230.888 146.12C230.432 146.12 229.976 146.04 229.52 145.88C229.072 145.712 228.692 145.424 228.38 145.016ZM237.663 139.58C238.223 139.58 238.719 139.72 239.151 140C239.591 140.28 239.939 140.664 240.195 141.152C240.451 141.632 240.579 142.192 240.579 142.832C240.579 143.472 240.451 144.04 240.195 144.536C239.939 145.024 239.595 145.408 239.163 145.688C238.731 145.968 238.243 146.108 237.699 146.108C237.395 146.108 237.107 146.06 236.835 145.964C236.563 145.868 236.323 145.744 236.115 145.592C235.907 145.432 235.735 145.264 235.599 145.088C235.471 144.912 235.391 144.748 235.359 144.596L235.683 144.44V147.788C235.683 147.964 235.623 148.108 235.503 148.22C235.391 148.34 235.251 148.4 235.083 148.4C234.907 148.4 234.763 148.34 234.651 148.22C234.539 148.108 234.483 147.964 234.483 147.788V140.276C234.483 140.108 234.539 139.964 234.651 139.844C234.763 139.724 234.907 139.664 235.083 139.664C235.251 139.664 235.391 139.724 235.503 139.844C235.623 139.964 235.683 140.108 235.683 140.276V141.104L235.491 140.996C235.515 140.844 235.591 140.688 235.719 140.528C235.847 140.36 236.007 140.204 236.199 140.06C236.399 139.916 236.623 139.8 236.871 139.712C237.127 139.624 237.391 139.58 237.663 139.58ZM237.531 140.684C237.147 140.684 236.811 140.78 236.523 140.972C236.243 141.156 236.023 141.408 235.863 141.728C235.703 142.048 235.623 142.416 235.623 142.832C235.623 143.24 235.703 143.612 235.863 143.948C236.023 144.276 236.243 144.536 236.523 144.728C236.811 144.912 237.147 145.004 237.531 145.004C237.907 145.004 238.235 144.912 238.515 144.728C238.795 144.536 239.015 144.276 239.175 143.948C239.343 143.612 239.427 143.24 239.427 142.832C239.427 142.424 239.343 142.06 239.175 141.74C239.015 141.412 238.795 141.156 238.515 140.972C238.235 140.78 237.907 140.684 237.531 140.684ZM247.984 142.844C247.984 143.484 247.844 144.052 247.564 144.548C247.284 145.036 246.904 145.42 246.424 145.7C245.944 145.98 245.404 146.12 244.804 146.12C244.204 146.12 243.664 145.98 243.184 145.7C242.704 145.42 242.32 145.036 242.032 144.548C241.752 144.052 241.612 143.484 241.612 142.844C241.612 142.196 241.752 141.628 242.032 141.14C242.32 140.644 242.704 140.256 243.184 139.976C243.664 139.688 244.204 139.544 244.804 139.544C245.404 139.544 245.944 139.688 246.424 139.976C246.904 140.256 247.284 140.644 247.564 141.14C247.844 141.628 247.984 142.196 247.984 142.844ZM246.784 142.844C246.784 142.404 246.696 142.024 246.52 141.704C246.344 141.376 246.104 141.12 245.8 140.936C245.504 140.744 245.172 140.648 244.804 140.648C244.436 140.648 244.1 140.744 243.796 140.936C243.492 141.12 243.252 141.376 243.076 141.704C242.9 142.024 242.812 142.404 242.812 142.844C242.812 143.268 242.9 143.644 243.076 143.972C243.252 144.3 243.492 144.556 243.796 144.74C244.1 144.924 244.436 145.016 244.804 145.016C245.172 145.016 245.504 144.924 245.8 144.74C246.104 144.556 246.344 144.3 246.52 143.972C246.696 143.644 246.784 143.268 246.784 142.844ZM252.594 139.544C253.162 139.544 253.602 139.664 253.914 139.904C254.226 140.136 254.442 140.452 254.562 140.852C254.69 141.244 254.754 141.684 254.754 142.172V145.388C254.754 145.564 254.694 145.712 254.574 145.832C254.462 145.944 254.322 146 254.154 146C253.978 146 253.834 145.944 253.722 145.832C253.61 145.712 253.554 145.564 253.554 145.388V142.184C253.554 141.896 253.514 141.64 253.434 141.416C253.354 141.184 253.214 141 253.014 140.864C252.822 140.72 252.55 140.648 252.198 140.648C251.87 140.648 251.582 140.72 251.334 140.864C251.086 141 250.89 141.184 250.746 141.416C250.61 141.64 250.542 141.896 250.542 142.184V145.388C250.542 145.564 250.482 145.712 250.362 145.832C250.25 145.944 250.11 146 249.942 146C249.766 146 249.622 145.944 249.51 145.832C249.398 145.712 249.342 145.564 249.342 145.388V140.3C249.342 140.124 249.398 139.98 249.51 139.868C249.622 139.748 249.766 139.688 249.942 139.688C250.11 139.688 250.25 139.748 250.362 139.868C250.482 139.98 250.542 140.124 250.542 140.3V140.972L250.326 141.092C250.382 140.916 250.478 140.74 250.614 140.564C250.758 140.38 250.93 140.212 251.13 140.06C251.33 139.9 251.554 139.776 251.802 139.688C252.05 139.592 252.314 139.544 252.594 139.544ZM256.048 145.016C255.976 144.904 255.944 144.776 255.952 144.632C255.96 144.48 256.044 144.352 256.204 144.248C256.316 144.176 256.432 144.148 256.552 144.164C256.68 144.172 256.8 144.232 256.912 144.344C257.136 144.592 257.384 144.788 257.656 144.932C257.936 145.076 258.272 145.148 258.664 145.148C258.824 145.14 258.988 145.116 259.156 145.076C259.324 145.028 259.468 144.948 259.588 144.836C259.708 144.716 259.768 144.544 259.768 144.32C259.768 144.12 259.704 143.96 259.576 143.84C259.448 143.72 259.28 143.624 259.072 143.552C258.864 143.472 258.64 143.4 258.4 143.336C258.144 143.264 257.884 143.184 257.62 143.096C257.364 143.008 257.132 142.896 256.924 142.76C256.716 142.616 256.544 142.432 256.408 142.208C256.28 141.984 256.216 141.708 256.216 141.38C256.216 141.004 256.32 140.68 256.528 140.408C256.744 140.136 257.02 139.924 257.356 139.772C257.7 139.62 258.072 139.544 258.472 139.544C258.704 139.544 258.948 139.576 259.204 139.64C259.46 139.696 259.708 139.788 259.948 139.916C260.188 140.044 260.396 140.212 260.572 140.42C260.652 140.524 260.696 140.648 260.704 140.792C260.72 140.936 260.656 141.064 260.512 141.176C260.416 141.256 260.3 141.292 260.164 141.284C260.028 141.276 259.916 141.232 259.828 141.152C259.676 140.96 259.48 140.812 259.24 140.708C259 140.596 258.728 140.54 258.424 140.54C258.272 140.54 258.112 140.564 257.944 140.612C257.784 140.652 257.648 140.728 257.536 140.84C257.424 140.952 257.368 141.116 257.368 141.332C257.368 141.532 257.432 141.692 257.56 141.812C257.696 141.932 257.872 142.032 258.088 142.112C258.304 142.192 258.54 142.264 258.796 142.328C259.044 142.392 259.288 142.468 259.528 142.556C259.776 142.644 259.996 142.76 260.188 142.904C260.388 143.04 260.548 143.22 260.668 143.444C260.796 143.66 260.86 143.936 260.86 144.272C260.86 144.664 260.744 145 260.512 145.28C260.288 145.552 260 145.76 259.648 145.904C259.304 146.048 258.94 146.12 258.556 146.12C258.1 146.12 257.644 146.04 257.188 145.88C256.74 145.712 256.36 145.424 256.048 145.016ZM265.091 146.12C264.427 146.12 263.851 145.984 263.363 145.712C262.875 145.432 262.495 145.052 262.223 144.572C261.959 144.084 261.827 143.528 261.827 142.904C261.827 142.2 261.967 141.6 262.247 141.104C262.535 140.6 262.907 140.216 263.363 139.952C263.819 139.68 264.303 139.544 264.815 139.544C265.207 139.544 265.579 139.624 265.931 139.784C266.283 139.936 266.595 140.152 266.867 140.432C267.147 140.704 267.367 141.028 267.527 141.404C267.687 141.772 267.771 142.176 267.779 142.616C267.771 142.776 267.707 142.908 267.587 143.012C267.467 143.116 267.327 143.168 267.167 143.168H262.499L262.211 142.148H266.723L266.495 142.364V142.064C266.479 141.784 266.387 141.54 266.219 141.332C266.051 141.116 265.843 140.952 265.595 140.84C265.347 140.72 265.087 140.66 264.815 140.66C264.575 140.66 264.343 140.7 264.119 140.78C263.903 140.852 263.707 140.972 263.531 141.14C263.363 141.308 263.227 141.532 263.123 141.812C263.027 142.084 262.979 142.424 262.979 142.832C262.979 143.272 263.071 143.656 263.255 143.984C263.439 144.312 263.687 144.568 263.999 144.752C264.311 144.928 264.655 145.016 265.031 145.016C265.327 145.016 265.571 144.988 265.763 144.932C265.955 144.868 266.115 144.792 266.243 144.704C266.371 144.616 266.483 144.532 266.579 144.452C266.699 144.38 266.819 144.344 266.939 144.344C267.083 144.344 267.203 144.396 267.299 144.5C267.395 144.596 267.443 144.712 267.443 144.848C267.443 145.024 267.355 145.184 267.179 145.328C266.963 145.536 266.663 145.72 266.279 145.88C265.903 146.04 265.507 146.12 265.091 146.12Z" fill="white"/>
</g>
<defs>
<filter id="filter0_f_17_726" x="0" y="0" width="376" height="250" filterUnits="userSpaceOnUse" color-interpolation-filters="sRGB">
<feFlood flood-opacity="0" result="BackgroundImageFix"/>
<feBlend mode="normal" in="SourceGraphic" in2="BackgroundImageFix" result="shape"/>
<feGaussianBlur stdDeviation="40" result="effect1_foregroundBlur_17_726"/>
</filter>
<filter id="filter1_b_17_726" x="56.9" y="60.9" width="262.2" height="127.2" filterUnits="userSpaceOnUse" color-interpolation-filters="sRGB">
<feFlood flood-opacity="0" result="BackgroundImageFix"/>
<feGaussianBlur in="BackgroundImageFix" stdDeviation="11.55"/>
<feComposite in2="SourceAlpha" operator="in" result="effect1_backgroundBlur_17_726"/>
<feBlend mode="normal" in="SourceGraphic" in2="effect1_backgroundBlur_17_726" result="shape"/>
</filter>
</defs>
</svg>
