<svg width="40" height="40" viewBox="0 0 40 40" fill="none" xmlns="http://www.w3.org/2000/svg">
<circle cx="20" cy="20" r="20" fill="#BDC5C4"/>
<path d="M18.2031 18.8555L21.4844 15.2422H15.7422V12.9961H24.8633V14.5586L21.1426 18.4355H21.3574C22.4512 18.4355 23.3724 18.8229 24.1211 19.5977C24.8698 20.3659 25.2441 21.3327 25.2441 22.498C25.2441 23.8652 24.7754 24.9915 23.8379 25.877C22.9004 26.7559 21.709 27.1953 20.2637 27.1953C19.0007 27.1953 17.9069 26.8405 16.9824 26.1309C16.0579 25.4147 15.5046 24.4967 15.3223 23.377L17.4219 22.6641C17.5651 23.3281 17.9004 23.8717 18.4277 24.2949C18.9551 24.7116 19.5671 24.9199 20.2637 24.9199C21.0189 24.9199 21.6374 24.6888 22.1191 24.2266C22.6009 23.7643 22.8418 23.1686 22.8418 22.4395C22.8418 21.7298 22.5944 21.1667 22.0996 20.75C21.6048 20.3268 20.9993 20.1152 20.2832 20.1152C19.847 20.1152 19.4076 20.2031 18.9648 20.3789L18.2031 18.8555Z" fill="white"/>
</svg>
