<svg width="242" height="158" viewBox="0 0 242 158" fill="none" xmlns="http://www.w3.org/2000/svg">
<path d="M0 8C0 3.58172 3.58172 0 8 0H186C216.928 0 242 25.0721 242 56V150C242 154.418 238.418 158 234 158H8C3.58173 158 0 154.418 0 150V8Z" fill="#027E6D"/>
<path d="M73.9685 68.016C74.5285 70.9653 76.2459 72.44 79.1205 72.44C81.0992 72.44 82.4992 71.5627 83.3205 69.808C84.1419 68.0533 84.5525 65.1973 84.5525 61.24C83.7312 62.3973 82.6112 63.2933 81.1925 63.928C79.7739 64.5627 78.1872 64.88 76.4325 64.88C74.0432 64.88 71.9152 64.3947 70.0485 63.424C68.1819 62.416 66.7072 60.9413 65.6245 59C64.5792 57.0213 64.0565 54.632 64.0565 51.832C64.0565 49.0693 64.6165 46.6613 65.7365 44.608C66.8939 42.5547 68.5179 40.968 70.6085 39.848C72.7365 38.728 75.2379 38.168 78.1125 38.168C83.6379 38.168 87.5019 39.8853 89.7045 43.32C91.9072 46.7547 93.0085 51.8133 93.0085 58.496C93.0085 63.3493 92.5605 67.3627 91.6645 70.536C90.8059 73.672 89.3312 76.0613 87.2405 77.704C85.1872 79.3467 82.3685 80.168 78.7845 80.168C75.9472 80.168 73.5205 79.608 71.5045 78.488C69.5259 77.368 67.9952 75.8933 66.9125 74.064C65.8672 72.2347 65.2699 70.2187 65.1205 68.016H73.9685ZM78.6165 57.32C80.1845 57.32 81.4352 56.8533 82.3685 55.92C83.3019 54.9493 83.7685 53.6427 83.7685 52C83.7685 50.208 83.2832 48.8267 82.3125 47.856C81.3419 46.8853 80.0352 46.4 78.3925 46.4C76.7499 46.4 75.4432 46.904 74.4725 47.912C73.5392 48.8827 73.0725 50.2267 73.0725 51.944C73.0725 53.5493 73.5392 54.856 74.4725 55.864C75.4432 56.8347 76.8245 57.32 78.6165 57.32ZM98.1177 59C98.1177 52.5787 99.3497 47.52 101.814 43.824C104.315 40.128 108.328 38.28 113.854 38.28C119.379 38.28 123.374 40.128 125.838 43.824C128.339 47.52 129.59 52.5787 129.59 59C129.59 65.496 128.339 70.592 125.838 74.288C123.374 77.984 119.379 79.832 113.854 79.832C108.328 79.832 104.315 77.984 101.814 74.288C99.3497 70.592 98.1177 65.496 98.1177 59ZM120.182 59C120.182 55.2293 119.771 52.336 118.95 50.32C118.128 48.2667 116.43 47.24 113.854 47.24C111.278 47.24 109.579 48.2667 108.758 50.32C107.936 52.336 107.526 55.2293 107.526 59C107.526 61.5387 107.675 63.648 107.974 65.328C108.272 66.9707 108.87 68.3147 109.766 69.36C110.699 70.368 112.062 70.872 113.854 70.872C115.646 70.872 116.99 70.368 117.886 69.36C118.819 68.3147 119.435 66.9707 119.734 65.328C120.032 63.648 120.182 61.5387 120.182 59ZM133.865 49.424C133.865 46.4 134.724 44.0667 136.441 42.424C138.196 40.7813 140.454 39.96 143.217 39.96C145.98 39.96 148.22 40.7813 149.937 42.424C151.654 44.0667 152.513 46.4 152.513 49.424C152.513 52.448 151.654 54.7813 149.937 56.424C148.22 58.0667 145.98 58.888 143.217 58.888C140.454 58.888 138.196 58.0667 136.441 56.424C134.724 54.7813 133.865 52.448 133.865 49.424ZM171.889 40.576L150.329 80H141.089L162.649 40.576H171.889ZM143.161 45.56C141.369 45.56 140.473 46.848 140.473 49.424C140.473 51.9627 141.369 53.232 143.161 53.232C144.02 53.232 144.692 52.9147 145.177 52.28C145.662 51.6453 145.905 50.6933 145.905 49.424C145.905 46.848 144.99 45.56 143.161 45.56ZM160.521 71.152C160.521 68.128 161.38 65.7947 163.097 64.152C164.814 62.5093 167.054 61.688 169.817 61.688C172.58 61.688 174.82 62.5093 176.537 64.152C178.254 65.7947 179.113 68.128 179.113 71.152C179.113 74.176 178.254 76.5093 176.537 78.152C174.82 79.7947 172.58 80.616 169.817 80.616C167.054 80.616 164.814 79.7947 163.097 78.152C161.38 76.5093 160.521 74.176 160.521 71.152ZM169.761 67.288C168.902 67.288 168.23 67.6053 167.745 68.24C167.297 68.8747 167.073 69.8453 167.073 71.152C167.073 73.6907 167.969 74.96 169.761 74.96C170.62 74.96 171.292 74.6427 171.777 74.008C172.262 73.3733 172.505 72.4213 172.505 71.152C172.505 69.8827 172.262 68.9307 171.777 68.296C171.292 67.624 170.62 67.288 169.761 67.288Z" fill="white"/>
<path d="M33.3441 107.456C33.5788 107.456 33.7708 107.536 33.9201 107.696C34.0695 107.845 34.1441 108.037 34.1441 108.272V115.184C34.1441 115.419 34.0695 115.616 33.9201 115.776C33.7708 115.925 33.5788 116 33.3441 116C33.1201 116 32.9281 115.925 32.7681 115.776C32.6188 115.616 32.5441 115.419 32.5441 115.184V114.032L32.8801 114.08C32.8801 114.272 32.8001 114.485 32.6401 114.72C32.4908 114.955 32.2828 115.184 32.0161 115.408C31.7495 115.621 31.4348 115.803 31.0721 115.952C30.7095 116.091 30.3201 116.16 29.9041 116.16C29.1681 116.16 28.5068 115.973 27.9201 115.6C27.3335 115.216 26.8695 114.693 26.5281 114.032C26.1868 113.371 26.0161 112.619 26.0161 111.776C26.0161 110.912 26.1868 110.155 26.5281 109.504C26.8695 108.843 27.3281 108.325 27.9041 107.952C28.4908 107.579 29.1415 107.392 29.8561 107.392C30.3148 107.392 30.7361 107.467 31.1201 107.616C31.5148 107.765 31.8561 107.957 32.1441 108.192C32.4321 108.427 32.6508 108.677 32.8001 108.944C32.9601 109.2 33.0401 109.445 33.0401 109.68L32.5441 109.728V108.272C32.5441 108.048 32.6188 107.856 32.7681 107.696C32.9281 107.536 33.1201 107.456 33.3441 107.456ZM30.0801 114.688C30.5815 114.688 31.0241 114.56 31.4081 114.304C31.7921 114.048 32.0908 113.701 32.3041 113.264C32.5175 112.816 32.6241 112.32 32.6241 111.776C32.6241 111.221 32.5175 110.725 32.3041 110.288C32.0908 109.851 31.7921 109.504 31.4081 109.248C31.0241 108.992 30.5815 108.864 30.0801 108.864C29.5895 108.864 29.1521 108.992 28.7681 109.248C28.3948 109.504 28.0961 109.851 27.8721 110.288C27.6588 110.725 27.5521 111.221 27.5521 111.776C27.5521 112.32 27.6588 112.816 27.8721 113.264C28.0961 113.701 28.3948 114.048 28.7681 114.304C29.1521 114.56 29.5895 114.688 30.0801 114.688ZM40.1136 107.392C40.6896 107.392 41.2016 107.456 41.6496 107.584C42.0976 107.701 42.4443 107.872 42.6896 108.096C42.9456 108.309 43.0736 108.56 43.0736 108.848C43.0736 109.029 43.0203 109.2 42.9136 109.36C42.807 109.509 42.647 109.584 42.4336 109.584C42.2843 109.584 42.1563 109.557 42.0496 109.504C41.9536 109.451 41.863 109.387 41.7776 109.312C41.6923 109.237 41.5856 109.163 41.4576 109.088C41.3403 109.024 41.1643 108.971 40.9296 108.928C40.7056 108.885 40.503 108.864 40.3216 108.864C39.7563 108.864 39.2656 108.992 38.8496 109.248C38.4443 109.504 38.1243 109.851 37.8896 110.288C37.6656 110.725 37.5536 111.221 37.5536 111.776C37.5536 112.331 37.6656 112.827 37.8896 113.264C38.1243 113.701 38.439 114.048 38.8336 114.304C39.239 114.56 39.7083 114.688 40.2416 114.688C40.5616 114.688 40.823 114.667 41.0256 114.624C41.2283 114.571 41.4043 114.507 41.5536 114.432C41.7136 114.336 41.847 114.24 41.9536 114.144C42.071 114.037 42.231 113.984 42.4336 113.984C42.6683 113.984 42.8443 114.059 42.9616 114.208C43.0896 114.347 43.1536 114.523 43.1536 114.736C43.1536 114.971 43.0096 115.2 42.7216 115.424C42.4443 115.637 42.071 115.813 41.6016 115.952C41.1323 116.091 40.615 116.16 40.0496 116.16C39.2176 116.16 38.4923 115.968 37.8736 115.584C37.2656 115.2 36.791 114.677 36.4496 114.016C36.119 113.355 35.9536 112.608 35.9536 111.776C35.9536 110.933 36.1296 110.187 36.4816 109.536C36.8336 108.875 37.3243 108.352 37.9536 107.968C38.583 107.584 39.303 107.392 40.1136 107.392ZM48.4105 107.392C48.9865 107.392 49.4985 107.456 49.9465 107.584C50.3945 107.701 50.7412 107.872 50.9865 108.096C51.2425 108.309 51.3705 108.56 51.3705 108.848C51.3705 109.029 51.3172 109.2 51.2105 109.36C51.1038 109.509 50.9438 109.584 50.7305 109.584C50.5812 109.584 50.4532 109.557 50.3465 109.504C50.2505 109.451 50.1598 109.387 50.0745 109.312C49.9892 109.237 49.8825 109.163 49.7545 109.088C49.6372 109.024 49.4612 108.971 49.2265 108.928C49.0025 108.885 48.7998 108.864 48.6185 108.864C48.0532 108.864 47.5625 108.992 47.1465 109.248C46.7412 109.504 46.4212 109.851 46.1865 110.288C45.9625 110.725 45.8505 111.221 45.8505 111.776C45.8505 112.331 45.9625 112.827 46.1865 113.264C46.4212 113.701 46.7358 114.048 47.1305 114.304C47.5358 114.56 48.0052 114.688 48.5385 114.688C48.8585 114.688 49.1198 114.667 49.3225 114.624C49.5252 114.571 49.7012 114.507 49.8505 114.432C50.0105 114.336 50.1438 114.24 50.2505 114.144C50.3678 114.037 50.5278 113.984 50.7305 113.984C50.9652 113.984 51.1412 114.059 51.2585 114.208C51.3865 114.347 51.4505 114.523 51.4505 114.736C51.4505 114.971 51.3065 115.2 51.0185 115.424C50.7412 115.637 50.3678 115.813 49.8985 115.952C49.4292 116.091 48.9118 116.16 48.3465 116.16C47.5145 116.16 46.7892 115.968 46.1705 115.584C45.5625 115.2 45.0878 114.677 44.7465 114.016C44.4158 113.355 44.2505 112.608 44.2505 111.776C44.2505 110.933 44.4265 110.187 44.7785 109.536C45.1305 108.875 45.6212 108.352 46.2505 107.968C46.8798 107.584 47.5998 107.392 48.4105 107.392ZM59.2514 107.584C59.4754 107.584 59.662 107.664 59.8114 107.824C59.9714 107.973 60.0514 108.165 60.0514 108.4V112.608C60.0514 113.717 59.742 114.587 59.1234 115.216C58.5047 115.835 57.63 116.144 56.4994 116.144C55.3794 116.144 54.51 115.835 53.8914 115.216C53.2834 114.587 52.9794 113.717 52.9794 112.608V108.4C52.9794 108.165 53.054 107.973 53.2034 107.824C53.3527 107.664 53.5447 107.584 53.7794 107.584C54.0034 107.584 54.19 107.664 54.3394 107.824C54.4994 107.973 54.5794 108.165 54.5794 108.4V112.608C54.5794 113.301 54.7394 113.819 55.0594 114.16C55.39 114.501 55.87 114.672 56.4994 114.672C57.1394 114.672 57.6247 114.501 57.9554 114.16C58.286 113.819 58.4514 113.301 58.4514 112.608V108.4C58.4514 108.165 58.526 107.973 58.6754 107.824C58.8247 107.664 59.0167 107.584 59.2514 107.584ZM63.0763 116C62.8416 116 62.6496 115.925 62.5003 115.776C62.3509 115.616 62.2763 115.419 62.2763 115.184V108.4C62.2763 108.165 62.3509 107.973 62.5003 107.824C62.6496 107.664 62.8416 107.584 63.0763 107.584C63.3003 107.584 63.4869 107.664 63.6363 107.824C63.7963 107.973 63.8763 108.165 63.8763 108.4V110.192L63.7163 109.504C63.8016 109.205 63.9296 108.928 64.1003 108.672C64.2816 108.416 64.4949 108.192 64.7403 108C64.9856 107.808 65.2576 107.659 65.5563 107.552C65.8656 107.445 66.1856 107.392 66.5163 107.392C66.7936 107.392 67.0336 107.467 67.2363 107.616C67.4389 107.765 67.5403 107.952 67.5403 108.176C67.5403 108.464 67.4656 108.677 67.3163 108.816C67.1669 108.944 67.0016 109.008 66.8203 109.008C66.6603 109.008 66.5056 108.976 66.3563 108.912C66.2069 108.837 66.0309 108.8 65.8283 108.8C65.6043 108.8 65.3749 108.859 65.1403 108.976C64.9056 109.093 64.6923 109.269 64.5003 109.504C64.3083 109.728 64.1536 109.995 64.0363 110.304C63.9296 110.613 63.8763 110.96 63.8763 111.344V115.184C63.8763 115.419 63.7963 115.616 63.6363 115.776C63.4869 115.925 63.3003 116 63.0763 116ZM75.6723 107.456C75.9069 107.456 76.0989 107.536 76.2483 107.696C76.3976 107.845 76.4722 108.037 76.4722 108.272V115.184C76.4722 115.419 76.3976 115.616 76.2483 115.776C76.0989 115.925 75.9069 116 75.6723 116C75.4483 116 75.2563 115.925 75.0963 115.776C74.9469 115.616 74.8723 115.419 74.8723 115.184V114.032L75.2083 114.08C75.2083 114.272 75.1283 114.485 74.9683 114.72C74.8189 114.955 74.6109 115.184 74.3443 115.408C74.0776 115.621 73.7629 115.803 73.4003 115.952C73.0376 116.091 72.6483 116.16 72.2323 116.16C71.4963 116.16 70.8349 115.973 70.2483 115.6C69.6616 115.216 69.1976 114.693 68.8563 114.032C68.5149 113.371 68.3443 112.619 68.3443 111.776C68.3443 110.912 68.5149 110.155 68.8563 109.504C69.1976 108.843 69.6563 108.325 70.2323 107.952C70.8189 107.579 71.4696 107.392 72.1843 107.392C72.6429 107.392 73.0643 107.467 73.4483 107.616C73.8429 107.765 74.1843 107.957 74.4723 108.192C74.7603 108.427 74.9789 108.677 75.1283 108.944C75.2883 109.2 75.3683 109.445 75.3683 109.68L74.8723 109.728V108.272C74.8723 108.048 74.9469 107.856 75.0963 107.696C75.2563 107.536 75.4483 107.456 75.6723 107.456ZM72.4083 114.688C72.9096 114.688 73.3523 114.56 73.7363 114.304C74.1203 114.048 74.4189 113.701 74.6323 113.264C74.8456 112.816 74.9523 112.32 74.9523 111.776C74.9523 111.221 74.8456 110.725 74.6323 110.288C74.4189 109.851 74.1203 109.504 73.7363 109.248C73.3523 108.992 72.9096 108.864 72.4083 108.864C71.9176 108.864 71.4803 108.992 71.0963 109.248C70.7229 109.504 70.4243 109.851 70.2003 110.288C69.9869 110.725 69.8803 111.221 69.8803 111.776C69.8803 112.32 69.9869 112.816 70.2003 113.264C70.4243 113.701 70.7229 114.048 71.0963 114.304C71.4803 114.56 71.9176 114.688 72.4083 114.688ZM82.4418 107.392C83.0178 107.392 83.5298 107.456 83.9778 107.584C84.4258 107.701 84.7724 107.872 85.0178 108.096C85.2738 108.309 85.4018 108.56 85.4018 108.848C85.4018 109.029 85.3484 109.2 85.2418 109.36C85.1351 109.509 84.9751 109.584 84.7618 109.584C84.6124 109.584 84.4844 109.557 84.3778 109.504C84.2818 109.451 84.1911 109.387 84.1058 109.312C84.0204 109.237 83.9138 109.163 83.7858 109.088C83.6684 109.024 83.4924 108.971 83.2578 108.928C83.0338 108.885 82.8311 108.864 82.6498 108.864C82.0844 108.864 81.5938 108.992 81.1778 109.248C80.7724 109.504 80.4524 109.851 80.2178 110.288C79.9938 110.725 79.8818 111.221 79.8818 111.776C79.8818 112.331 79.9938 112.827 80.2178 113.264C80.4524 113.701 80.7671 114.048 81.1618 114.304C81.5671 114.56 82.0364 114.688 82.5698 114.688C82.8898 114.688 83.1511 114.667 83.3538 114.624C83.5564 114.571 83.7324 114.507 83.8818 114.432C84.0418 114.336 84.1751 114.24 84.2818 114.144C84.3991 114.037 84.5591 113.984 84.7618 113.984C84.9964 113.984 85.1724 114.059 85.2898 114.208C85.4178 114.347 85.4818 114.523 85.4818 114.736C85.4818 114.971 85.3378 115.2 85.0498 115.424C84.7724 115.637 84.3991 115.813 83.9298 115.952C83.4604 116.091 82.9431 116.16 82.3778 116.16C81.5458 116.16 80.8204 115.968 80.2018 115.584C79.5938 115.2 79.1191 114.677 78.7778 114.016C78.4471 113.355 78.2818 112.608 78.2818 111.776C78.2818 110.933 78.4578 110.187 78.8098 109.536C79.1618 108.875 79.6524 108.352 80.2818 107.968C80.9111 107.584 81.6311 107.392 82.4418 107.392ZM93.2666 107.52C93.5013 107.52 93.6933 107.6 93.8426 107.76C93.992 107.909 94.0666 108.101 94.0666 108.336V115.216C94.0666 116.155 93.8853 116.917 93.5226 117.504C93.1706 118.091 92.6906 118.517 92.0826 118.784C91.4853 119.061 90.808 119.2 90.0506 119.2C89.6666 119.2 89.2826 119.163 88.8986 119.088C88.5146 119.024 88.2 118.928 87.9546 118.8C87.6986 118.683 87.5173 118.539 87.4106 118.368C87.304 118.197 87.288 118.011 87.3626 117.808C87.4373 117.552 87.5653 117.376 87.7466 117.28C87.928 117.195 88.1146 117.189 88.3066 117.264C88.488 117.339 88.728 117.435 89.0266 117.552C89.3253 117.669 89.6666 117.728 90.0506 117.728C90.5733 117.728 91.016 117.643 91.3786 117.472C91.7413 117.301 92.0133 117.035 92.1946 116.672C92.3866 116.309 92.4826 115.84 92.4826 115.264V114.16L92.7386 114.544C92.568 114.896 92.344 115.189 92.0666 115.424C91.7893 115.659 91.4586 115.84 91.0746 115.968C90.7013 116.096 90.2853 116.16 89.8266 116.16C89.24 116.16 88.7333 116.032 88.3066 115.776C87.8906 115.509 87.5706 115.147 87.3466 114.688C87.1226 114.219 87.0106 113.685 87.0106 113.088V108.336C87.0106 108.101 87.0853 107.909 87.2346 107.76C87.384 107.6 87.576 107.52 87.8106 107.52C88.0346 107.52 88.2213 107.6 88.3706 107.76C88.5306 107.909 88.6106 108.101 88.6106 108.336V112.656C88.6106 113.36 88.7653 113.877 89.0746 114.208C89.384 114.528 89.8426 114.688 90.4506 114.688C90.856 114.688 91.208 114.603 91.5066 114.432C91.8053 114.261 92.04 114.027 92.2106 113.728C92.3813 113.419 92.4666 113.061 92.4666 112.656V108.336C92.4666 108.101 92.5413 107.909 92.6906 107.76C92.8506 107.6 93.0426 107.52 93.2666 107.52ZM110.569 107.504C110.771 107.504 110.947 107.584 111.097 107.744C111.257 107.893 111.337 108.091 111.337 108.336C111.337 108.389 111.331 108.443 111.321 108.496C111.31 108.549 111.294 108.597 111.273 108.64L108.825 115.488C108.761 115.669 108.649 115.808 108.489 115.904C108.329 115.989 108.163 116.021 107.993 116C107.683 115.979 107.454 115.808 107.305 115.488L105.497 110.688L105.865 110.72L104.201 115.488C104.051 115.808 103.822 115.979 103.513 116C103.353 116.021 103.187 115.989 103.017 115.904C102.857 115.808 102.745 115.669 102.681 115.488L100.217 108.64C100.174 108.544 100.153 108.443 100.153 108.336C100.153 108.112 100.222 107.92 100.361 107.76C100.51 107.589 100.707 107.504 100.953 107.504C101.123 107.504 101.273 107.547 101.401 107.632C101.539 107.717 101.635 107.845 101.689 108.016L103.737 113.792L103.369 113.76L105.033 109.392C105.171 109.061 105.417 108.896 105.769 108.896C105.961 108.896 106.11 108.939 106.217 109.024C106.323 109.109 106.409 109.232 106.473 109.392L108.169 113.776L107.737 113.824L109.801 108.016C109.907 107.675 110.163 107.504 110.569 107.504ZM117.204 107.44C117.94 107.44 118.51 107.6 118.916 107.92C119.321 108.229 119.604 108.651 119.764 109.184C119.934 109.717 120.02 110.304 120.02 110.944V115.184C120.02 115.419 119.94 115.616 119.78 115.776C119.63 115.925 119.444 116 119.22 116C118.985 116 118.793 115.925 118.644 115.776C118.494 115.616 118.42 115.419 118.42 115.184V110.944C118.42 110.571 118.366 110.229 118.26 109.92C118.164 109.611 117.988 109.365 117.732 109.184C117.486 109.003 117.14 108.912 116.692 108.912C116.276 108.912 115.902 109.003 115.572 109.184C115.252 109.365 115.001 109.611 114.82 109.92C114.649 110.229 114.564 110.571 114.564 110.944V115.184C114.564 115.419 114.484 115.616 114.324 115.776C114.174 115.925 113.988 116 113.764 116C113.529 116 113.337 115.925 113.188 115.776C113.038 115.616 112.964 115.419 112.964 115.184V104.976C112.964 104.741 113.038 104.549 113.188 104.4C113.337 104.24 113.529 104.16 113.764 104.16C113.988 104.16 114.174 104.24 114.324 104.4C114.484 104.549 114.564 104.741 114.564 104.976V109.344L114.276 109.504C114.35 109.269 114.473 109.029 114.644 108.784C114.825 108.539 115.044 108.315 115.3 108.112C115.566 107.909 115.86 107.749 116.18 107.632C116.5 107.504 116.841 107.44 117.204 107.44ZM126.165 116.16C125.28 116.16 124.512 115.979 123.861 115.616C123.21 115.243 122.704 114.736 122.341 114.096C121.989 113.445 121.813 112.704 121.813 111.872C121.813 110.933 122 110.133 122.373 109.472C122.757 108.8 123.253 108.288 123.861 107.936C124.469 107.573 125.114 107.392 125.797 107.392C126.32 107.392 126.816 107.499 127.285 107.712C127.754 107.915 128.17 108.203 128.533 108.576C128.906 108.939 129.2 109.371 129.413 109.872C129.626 110.363 129.738 110.901 129.749 111.488C129.738 111.701 129.653 111.877 129.493 112.016C129.333 112.155 129.146 112.224 128.933 112.224H122.709L122.325 110.864H128.341L128.037 111.152V110.752C128.016 110.379 127.893 110.053 127.669 109.776C127.445 109.488 127.168 109.269 126.837 109.12C126.506 108.96 126.16 108.88 125.797 108.88C125.477 108.88 125.168 108.933 124.869 109.04C124.581 109.136 124.32 109.296 124.085 109.52C123.861 109.744 123.68 110.043 123.541 110.416C123.413 110.779 123.349 111.232 123.349 111.776C123.349 112.363 123.472 112.875 123.717 113.312C123.962 113.749 124.293 114.091 124.709 114.336C125.125 114.571 125.584 114.688 126.085 114.688C126.48 114.688 126.805 114.651 127.061 114.576C127.317 114.491 127.53 114.389 127.701 114.272C127.872 114.155 128.021 114.043 128.149 113.936C128.309 113.84 128.469 113.792 128.629 113.792C128.821 113.792 128.981 113.861 129.109 114C129.237 114.128 129.301 114.283 129.301 114.464C129.301 114.699 129.184 114.912 128.949 115.104C128.661 115.381 128.261 115.627 127.749 115.84C127.248 116.053 126.72 116.16 126.165 116.16ZM135.894 107.392C136.651 107.392 137.238 107.552 137.654 107.872C138.07 108.181 138.358 108.603 138.517 109.136C138.688 109.659 138.774 110.245 138.774 110.896V115.184C138.774 115.419 138.694 115.616 138.534 115.776C138.384 115.925 138.198 116 137.974 116C137.739 116 137.547 115.925 137.398 115.776C137.248 115.616 137.174 115.419 137.174 115.184V110.912C137.174 110.528 137.12 110.187 137.014 109.888C136.907 109.579 136.72 109.333 136.454 109.152C136.198 108.96 135.835 108.864 135.366 108.864C134.928 108.864 134.544 108.96 134.214 109.152C133.883 109.333 133.622 109.579 133.43 109.888C133.248 110.187 133.158 110.528 133.158 110.912V115.184C133.158 115.419 133.078 115.616 132.918 115.776C132.768 115.925 132.582 116 132.358 116C132.123 116 131.931 115.925 131.782 115.776C131.632 115.616 131.558 115.419 131.558 115.184V108.4C131.558 108.165 131.632 107.973 131.782 107.824C131.931 107.664 132.123 107.584 132.358 107.584C132.582 107.584 132.768 107.664 132.918 107.824C133.078 107.973 133.158 108.165 133.158 108.4V109.296L132.87 109.456C132.944 109.221 133.072 108.987 133.254 108.752C133.446 108.507 133.675 108.283 133.942 108.08C134.208 107.867 134.507 107.701 134.838 107.584C135.168 107.456 135.52 107.392 135.894 107.392ZM152.344 104.16C152.579 104.16 152.771 104.235 152.92 104.384C153.069 104.533 153.144 104.731 153.144 104.976V115.184C153.144 115.419 153.069 115.616 152.92 115.776C152.771 115.925 152.579 116 152.344 116C152.12 116 151.928 115.925 151.768 115.776C151.619 115.616 151.544 115.419 151.544 115.184V114.032L151.88 114.048C151.88 114.24 151.8 114.459 151.64 114.704C151.491 114.939 151.283 115.168 151.016 115.392C150.749 115.616 150.435 115.803 150.072 115.952C149.709 116.091 149.32 116.16 148.904 116.16C148.168 116.16 147.507 115.973 146.92 115.6C146.333 115.216 145.869 114.699 145.528 114.048C145.187 113.387 145.016 112.629 145.016 111.776C145.016 110.923 145.187 110.171 145.528 109.52C145.869 108.859 146.328 108.341 146.904 107.968C147.491 107.584 148.141 107.392 148.856 107.392C149.304 107.392 149.72 107.467 150.104 107.616C150.499 107.765 150.84 107.957 151.128 108.192C151.416 108.427 151.64 108.677 151.8 108.944C151.96 109.2 152.04 109.445 152.04 109.68L151.544 109.728V104.976C151.544 104.741 151.619 104.549 151.768 104.4C151.928 104.24 152.12 104.16 152.344 104.16ZM149.08 114.688C149.592 114.688 150.035 114.56 150.408 114.304C150.792 114.048 151.091 113.701 151.304 113.264C151.517 112.827 151.624 112.331 151.624 111.776C151.624 111.221 151.517 110.725 151.304 110.288C151.091 109.851 150.792 109.504 150.408 109.248C150.024 108.992 149.581 108.864 149.08 108.864C148.589 108.864 148.152 108.992 147.768 109.248C147.395 109.504 147.096 109.851 146.872 110.288C146.659 110.725 146.552 111.221 146.552 111.776C146.552 112.331 146.659 112.827 146.872 113.264C147.096 113.701 147.395 114.048 147.768 114.304C148.152 114.56 148.589 114.688 149.08 114.688ZM159.306 116.16C158.42 116.16 157.652 115.979 157.002 115.616C156.351 115.243 155.844 114.736 155.482 114.096C155.13 113.445 154.954 112.704 154.954 111.872C154.954 110.933 155.14 110.133 155.514 109.472C155.898 108.8 156.394 108.288 157.002 107.936C157.61 107.573 158.255 107.392 158.938 107.392C159.46 107.392 159.956 107.499 160.426 107.712C160.895 107.915 161.311 108.203 161.674 108.576C162.047 108.939 162.34 109.371 162.554 109.872C162.767 110.363 162.879 110.901 162.89 111.488C162.879 111.701 162.794 111.877 162.634 112.016C162.474 112.155 162.287 112.224 162.074 112.224H155.85L155.466 110.864H161.482L161.178 111.152V110.752C161.156 110.379 161.034 110.053 160.81 109.776C160.586 109.488 160.308 109.269 159.978 109.12C159.647 108.96 159.3 108.88 158.938 108.88C158.618 108.88 158.308 108.933 158.01 109.04C157.722 109.136 157.46 109.296 157.226 109.52C157.002 109.744 156.82 110.043 156.682 110.416C156.554 110.779 156.49 111.232 156.49 111.776C156.49 112.363 156.612 112.875 156.858 113.312C157.103 113.749 157.434 114.091 157.85 114.336C158.266 114.571 158.724 114.688 159.226 114.688C159.62 114.688 159.946 114.651 160.202 114.576C160.458 114.491 160.671 114.389 160.842 114.272C161.012 114.155 161.162 114.043 161.29 113.936C161.45 113.84 161.61 113.792 161.77 113.792C161.962 113.792 162.122 113.861 162.25 114C162.378 114.128 162.442 114.283 162.442 114.464C162.442 114.699 162.324 114.912 162.09 115.104C161.802 115.381 161.402 115.627 160.89 115.84C160.388 116.053 159.86 116.16 159.306 116.16ZM164.586 107.68H168.346C168.559 107.68 168.735 107.755 168.874 107.904C169.023 108.043 169.098 108.219 169.098 108.432C169.098 108.635 169.023 108.805 168.874 108.944C168.735 109.083 168.559 109.152 168.346 109.152H164.586C164.373 109.152 164.191 109.083 164.042 108.944C163.903 108.795 163.834 108.619 163.834 108.416C163.834 108.203 163.903 108.027 164.042 107.888C164.191 107.749 164.373 107.68 164.586 107.68ZM166.266 105.6C166.501 105.6 166.693 105.68 166.842 105.84C166.991 105.989 167.066 106.181 167.066 106.416V113.84C167.066 114.032 167.098 114.187 167.162 114.304C167.226 114.421 167.311 114.501 167.418 114.544C167.535 114.587 167.653 114.608 167.77 114.608C167.887 114.608 167.989 114.587 168.074 114.544C168.17 114.501 168.282 114.48 168.41 114.48C168.538 114.48 168.655 114.539 168.762 114.656C168.869 114.773 168.922 114.933 168.922 115.136C168.922 115.392 168.783 115.6 168.506 115.76C168.229 115.92 167.93 116 167.61 116C167.429 116 167.215 115.984 166.97 115.952C166.725 115.92 166.485 115.84 166.25 115.712C166.026 115.584 165.839 115.381 165.69 115.104C165.541 114.816 165.466 114.416 165.466 113.904V106.416C165.466 106.181 165.541 105.989 165.69 105.84C165.85 105.68 166.042 105.6 166.266 105.6ZM174.712 116.16C173.827 116.16 173.059 115.979 172.408 115.616C171.757 115.243 171.251 114.736 170.888 114.096C170.536 113.445 170.36 112.704 170.36 111.872C170.36 110.933 170.547 110.133 170.92 109.472C171.304 108.8 171.8 108.288 172.408 107.936C173.016 107.573 173.661 107.392 174.344 107.392C174.867 107.392 175.363 107.499 175.832 107.712C176.301 107.915 176.717 108.203 177.08 108.576C177.453 108.939 177.747 109.371 177.96 109.872C178.173 110.363 178.285 110.901 178.296 111.488C178.285 111.701 178.2 111.877 178.04 112.016C177.88 112.155 177.693 112.224 177.48 112.224H171.256L170.872 110.864H176.888L176.584 111.152V110.752C176.563 110.379 176.44 110.053 176.216 109.776C175.992 109.488 175.715 109.269 175.384 109.12C175.053 108.96 174.707 108.88 174.344 108.88C174.024 108.88 173.715 108.933 173.416 109.04C173.128 109.136 172.867 109.296 172.632 109.52C172.408 109.744 172.227 110.043 172.088 110.416C171.96 110.779 171.896 111.232 171.896 111.776C171.896 112.363 172.019 112.875 172.264 113.312C172.509 113.749 172.84 114.091 173.256 114.336C173.672 114.571 174.131 114.688 174.632 114.688C175.027 114.688 175.352 114.651 175.608 114.576C175.864 114.491 176.077 114.389 176.248 114.272C176.419 114.155 176.568 114.043 176.696 113.936C176.856 113.84 177.016 113.792 177.176 113.792C177.368 113.792 177.528 113.861 177.656 114C177.784 114.128 177.848 114.283 177.848 114.464C177.848 114.699 177.731 114.912 177.496 115.104C177.208 115.381 176.808 115.627 176.296 115.84C175.795 116.053 175.267 116.16 174.712 116.16ZM183.832 107.392C184.408 107.392 184.92 107.456 185.368 107.584C185.816 107.701 186.163 107.872 186.408 108.096C186.664 108.309 186.792 108.56 186.792 108.848C186.792 109.029 186.739 109.2 186.632 109.36C186.526 109.509 186.366 109.584 186.152 109.584C186.003 109.584 185.875 109.557 185.768 109.504C185.672 109.451 185.582 109.387 185.496 109.312C185.411 109.237 185.304 109.163 185.176 109.088C185.059 109.024 184.883 108.971 184.648 108.928C184.424 108.885 184.222 108.864 184.04 108.864C183.475 108.864 182.984 108.992 182.568 109.248C182.163 109.504 181.843 109.851 181.608 110.288C181.384 110.725 181.272 111.221 181.272 111.776C181.272 112.331 181.384 112.827 181.608 113.264C181.843 113.701 182.158 114.048 182.552 114.304C182.958 114.56 183.427 114.688 183.96 114.688C184.28 114.688 184.542 114.667 184.744 114.624C184.947 114.571 185.123 114.507 185.272 114.432C185.432 114.336 185.566 114.24 185.672 114.144C185.79 114.037 185.95 113.984 186.152 113.984C186.387 113.984 186.563 114.059 186.68 114.208C186.808 114.347 186.872 114.523 186.872 114.736C186.872 114.971 186.728 115.2 186.44 115.424C186.163 115.637 185.79 115.813 185.32 115.952C184.851 116.091 184.334 116.16 183.768 116.16C182.936 116.16 182.211 115.968 181.592 115.584C180.984 115.2 180.51 114.677 180.168 114.016C179.838 113.355 179.672 112.608 179.672 111.776C179.672 110.933 179.848 110.187 180.2 109.536C180.552 108.875 181.043 108.352 181.672 107.968C182.302 107.584 183.022 107.392 183.832 107.392ZM188.289 107.68H192.049C192.263 107.68 192.439 107.755 192.577 107.904C192.727 108.043 192.801 108.219 192.801 108.432C192.801 108.635 192.727 108.805 192.577 108.944C192.439 109.083 192.263 109.152 192.049 109.152H188.289C188.076 109.152 187.895 109.083 187.745 108.944C187.607 108.795 187.537 108.619 187.537 108.416C187.537 108.203 187.607 108.027 187.745 107.888C187.895 107.749 188.076 107.68 188.289 107.68ZM189.969 105.6C190.204 105.6 190.396 105.68 190.545 105.84C190.695 105.989 190.769 106.181 190.769 106.416V113.84C190.769 114.032 190.801 114.187 190.865 114.304C190.929 114.421 191.015 114.501 191.121 114.544C191.239 114.587 191.356 114.608 191.473 114.608C191.591 114.608 191.692 114.587 191.777 114.544C191.873 114.501 191.985 114.48 192.113 114.48C192.241 114.48 192.359 114.539 192.465 114.656C192.572 114.773 192.625 114.933 192.625 115.136C192.625 115.392 192.487 115.6 192.209 115.76C191.932 115.92 191.633 116 191.313 116C191.132 116 190.919 115.984 190.673 115.952C190.428 115.92 190.188 115.84 189.953 115.712C189.729 115.584 189.543 115.381 189.393 115.104C189.244 114.816 189.169 114.416 189.169 113.904V106.416C189.169 106.181 189.244 105.989 189.393 105.84C189.553 105.68 189.745 105.6 189.969 105.6ZM196.077 115.184C196.077 115.419 196.002 115.616 195.853 115.776C195.704 115.925 195.512 116 195.277 116C195.053 116 194.861 115.925 194.701 115.776C194.552 115.616 194.477 115.419 194.477 115.184V108.336C194.477 108.101 194.552 107.909 194.701 107.76C194.861 107.6 195.053 107.52 195.277 107.52C195.512 107.52 195.704 107.6 195.853 107.76C196.002 107.909 196.077 108.101 196.077 108.336V115.184ZM195.261 106.464C194.952 106.464 194.728 106.411 194.589 106.304C194.45 106.187 194.381 105.995 194.381 105.728V105.472C194.381 105.205 194.456 105.019 194.605 104.912C194.754 104.805 194.978 104.752 195.277 104.752C195.597 104.752 195.826 104.811 195.965 104.928C196.104 105.035 196.173 105.216 196.173 105.472V105.728C196.173 106.005 196.098 106.197 195.949 106.304C195.81 106.411 195.581 106.464 195.261 106.464ZM202.565 107.392C203.323 107.392 203.909 107.552 204.325 107.872C204.741 108.181 205.029 108.603 205.189 109.136C205.36 109.659 205.445 110.245 205.445 110.896V115.184C205.445 115.419 205.365 115.616 205.205 115.776C205.056 115.925 204.869 116 204.645 116C204.411 116 204.219 115.925 204.069 115.776C203.92 115.616 203.845 115.419 203.845 115.184V110.912C203.845 110.528 203.792 110.187 203.685 109.888C203.579 109.579 203.392 109.333 203.125 109.152C202.869 108.96 202.507 108.864 202.037 108.864C201.6 108.864 201.216 108.96 200.885 109.152C200.555 109.333 200.293 109.579 200.101 109.888C199.92 110.187 199.829 110.528 199.829 110.912V115.184C199.829 115.419 199.749 115.616 199.589 115.776C199.44 115.925 199.253 116 199.029 116C198.795 116 198.603 115.925 198.453 115.776C198.304 115.616 198.229 115.419 198.229 115.184V108.4C198.229 108.165 198.304 107.973 198.453 107.824C198.603 107.664 198.795 107.584 199.029 107.584C199.253 107.584 199.44 107.664 199.589 107.824C199.749 107.973 199.829 108.165 199.829 108.4V109.296L199.541 109.456C199.616 109.221 199.744 108.987 199.925 108.752C200.117 108.507 200.347 108.283 200.613 108.08C200.88 107.867 201.179 107.701 201.509 107.584C201.84 107.456 202.192 107.392 202.565 107.392ZM211.171 107.392C211.63 107.392 212.051 107.467 212.435 107.616C212.819 107.765 213.15 107.957 213.427 108.192C213.715 108.416 213.939 108.651 214.099 108.896C214.259 109.141 214.339 109.355 214.339 109.536L213.971 109.552V108.272C213.971 108.048 214.046 107.856 214.195 107.696C214.344 107.536 214.536 107.456 214.771 107.456C215.006 107.456 215.198 107.536 215.347 107.696C215.496 107.845 215.571 108.037 215.571 108.272V115.328C215.571 116.235 215.379 116.971 214.995 117.536C214.611 118.112 214.099 118.533 213.459 118.8C212.83 119.067 212.136 119.2 211.379 119.2C211.112 119.2 210.798 119.163 210.435 119.088C210.072 119.024 209.736 118.944 209.427 118.848C209.128 118.752 208.92 118.656 208.803 118.56C208.558 118.432 208.392 118.283 208.307 118.112C208.232 117.941 208.232 117.771 208.307 117.6C208.414 117.365 208.558 117.221 208.739 117.168C208.92 117.115 209.128 117.131 209.363 117.216C209.47 117.248 209.635 117.307 209.859 117.392C210.083 117.477 210.334 117.552 210.611 117.616C210.888 117.691 211.15 117.728 211.395 117.728C212.248 117.728 212.888 117.531 213.315 117.136C213.752 116.741 213.971 116.203 213.971 115.52V114.08L214.147 114.192C214.115 114.416 214.014 114.645 213.843 114.88C213.683 115.104 213.47 115.312 213.203 115.504C212.936 115.696 212.627 115.856 212.275 115.984C211.934 116.101 211.582 116.16 211.219 116.16C210.462 116.16 209.784 115.973 209.187 115.6C208.59 115.216 208.115 114.699 207.763 114.048C207.411 113.387 207.235 112.629 207.235 111.776C207.235 110.923 207.411 110.171 207.763 109.52C208.115 108.859 208.584 108.341 209.171 107.968C209.768 107.584 210.435 107.392 211.171 107.392ZM211.411 108.864C210.888 108.864 210.43 108.992 210.035 109.248C209.64 109.504 209.331 109.851 209.107 110.288C208.883 110.725 208.771 111.221 208.771 111.776C208.771 112.331 208.883 112.827 209.107 113.264C209.331 113.701 209.64 114.048 210.035 114.304C210.43 114.56 210.888 114.688 211.411 114.688C211.934 114.688 212.392 114.565 212.787 114.32C213.182 114.064 213.491 113.717 213.715 113.28C213.939 112.832 214.051 112.331 214.051 111.776C214.051 111.221 213.939 110.725 213.715 110.288C213.491 109.84 213.182 109.493 212.787 109.248C212.392 108.992 211.934 108.864 211.411 108.864ZM54.1647 127.44C54.9114 127.44 55.5727 127.627 56.1487 128C56.7354 128.373 57.1994 128.885 57.5407 129.536C57.882 130.176 58.0527 130.923 58.0527 131.776C58.0527 132.629 57.882 133.387 57.5407 134.048C57.1994 134.699 56.7407 135.211 56.1647 135.584C55.5887 135.957 54.938 136.144 54.2127 136.144C53.8074 136.144 53.4234 136.08 53.0607 135.952C52.698 135.824 52.378 135.659 52.1007 135.456C51.8234 135.243 51.594 135.019 51.4127 134.784C51.242 134.549 51.1354 134.331 51.0927 134.128L51.5247 133.92V138.384C51.5247 138.619 51.4447 138.811 51.2847 138.96C51.1354 139.12 50.9487 139.2 50.7247 139.2C50.49 139.2 50.298 139.12 50.1487 138.96C49.9994 138.811 49.9247 138.619 49.9247 138.384V128.368C49.9247 128.144 49.9994 127.952 50.1487 127.792C50.298 127.632 50.49 127.552 50.7247 127.552C50.9487 127.552 51.1354 127.632 51.2847 127.792C51.4447 127.952 51.5247 128.144 51.5247 128.368V129.472L51.2687 129.328C51.3007 129.125 51.402 128.917 51.5727 128.704C51.7434 128.48 51.9567 128.272 52.2127 128.08C52.4794 127.888 52.778 127.733 53.1087 127.616C53.45 127.499 53.802 127.44 54.1647 127.44ZM53.9887 128.912C53.4767 128.912 53.0287 129.04 52.6447 129.296C52.2714 129.541 51.978 129.877 51.7647 130.304C51.5514 130.731 51.4447 131.221 51.4447 131.776C51.4447 132.32 51.5514 132.816 51.7647 133.264C51.978 133.701 52.2714 134.048 52.6447 134.304C53.0287 134.549 53.4767 134.672 53.9887 134.672C54.49 134.672 54.9274 134.549 55.3007 134.304C55.674 134.048 55.9674 133.701 56.1807 133.264C56.4047 132.816 56.5167 132.32 56.5167 131.776C56.5167 131.232 56.4047 130.747 56.1807 130.32C55.9674 129.883 55.674 129.541 55.3007 129.296C54.9274 129.04 54.49 128.912 53.9887 128.912ZM67.9262 131.792C67.9262 132.645 67.7395 133.403 67.3662 134.064C66.9929 134.715 66.4862 135.227 65.8462 135.6C65.2062 135.973 64.4862 136.16 63.6862 136.16C62.8862 136.16 62.1662 135.973 61.5262 135.6C60.8862 135.227 60.3742 134.715 59.9902 134.064C59.6169 133.403 59.4302 132.645 59.4302 131.792C59.4302 130.928 59.6169 130.171 59.9902 129.52C60.3742 128.859 60.8862 128.341 61.5262 127.968C62.1662 127.584 62.8862 127.392 63.6862 127.392C64.4862 127.392 65.2062 127.584 65.8462 127.968C66.4862 128.341 66.9929 128.859 67.3662 129.52C67.7395 130.171 67.9262 130.928 67.9262 131.792ZM66.3262 131.792C66.3262 131.205 66.2089 130.699 65.9742 130.272C65.7395 129.835 65.4195 129.493 65.0142 129.248C64.6195 128.992 64.1769 128.864 63.6862 128.864C63.1955 128.864 62.7475 128.992 62.3422 129.248C61.9369 129.493 61.6169 129.835 61.3822 130.272C61.1475 130.699 61.0302 131.205 61.0302 131.792C61.0302 132.357 61.1475 132.859 61.3822 133.296C61.6169 133.733 61.9369 134.075 62.3422 134.32C62.7475 134.565 63.1955 134.688 63.6862 134.688C64.1769 134.688 64.6195 134.565 65.0142 134.32C65.4195 134.075 65.7395 133.733 65.9742 133.296C66.2089 132.859 66.3262 132.357 66.3262 131.792ZM69.2412 134.688C69.1452 134.539 69.1025 134.368 69.1132 134.176C69.1239 133.973 69.2359 133.803 69.4492 133.664C69.5985 133.568 69.7532 133.531 69.9132 133.552C70.0839 133.563 70.2439 133.643 70.3932 133.792C70.6919 134.123 71.0225 134.384 71.3852 134.576C71.7585 134.768 72.2065 134.864 72.7292 134.864C72.9425 134.853 73.1612 134.821 73.3852 134.768C73.6092 134.704 73.8012 134.597 73.9612 134.448C74.1212 134.288 74.2012 134.059 74.2012 133.76C74.2012 133.493 74.1159 133.28 73.9452 133.12C73.7745 132.96 73.5505 132.832 73.2732 132.736C72.9959 132.629 72.6972 132.533 72.3772 132.448C72.0359 132.352 71.6892 132.245 71.3372 132.128C70.9959 132.011 70.6865 131.861 70.4092 131.68C70.1319 131.488 69.9025 131.243 69.7212 130.944C69.5505 130.645 69.4652 130.277 69.4652 129.84C69.4652 129.339 69.6039 128.907 69.8812 128.544C70.1692 128.181 70.5372 127.899 70.9852 127.696C71.4439 127.493 71.9399 127.392 72.4732 127.392C72.7825 127.392 73.1079 127.435 73.4492 127.52C73.7905 127.595 74.1212 127.717 74.4412 127.888C74.7612 128.059 75.0385 128.283 75.2732 128.56C75.3799 128.699 75.4385 128.864 75.4492 129.056C75.4705 129.248 75.3852 129.419 75.1932 129.568C75.0652 129.675 74.9105 129.723 74.7292 129.712C74.5479 129.701 74.3985 129.643 74.2812 129.536C74.0785 129.28 73.8172 129.083 73.4972 128.944C73.1772 128.795 72.8145 128.72 72.4092 128.72C72.2065 128.72 71.9932 128.752 71.7692 128.816C71.5559 128.869 71.3745 128.971 71.2252 129.12C71.0759 129.269 71.0012 129.488 71.0012 129.776C71.0012 130.043 71.0865 130.256 71.2572 130.416C71.4385 130.576 71.6732 130.709 71.9612 130.816C72.2492 130.923 72.5639 131.019 72.9052 131.104C73.2359 131.189 73.5612 131.291 73.8812 131.408C74.2119 131.525 74.5052 131.68 74.7612 131.872C75.0279 132.053 75.2412 132.293 75.4012 132.592C75.5719 132.88 75.6572 133.248 75.6572 133.696C75.6572 134.219 75.5025 134.667 75.1932 135.04C74.8945 135.403 74.5105 135.68 74.0412 135.872C73.5825 136.064 73.0972 136.16 72.5852 136.16C71.9772 136.16 71.3692 136.053 70.7612 135.84C70.1639 135.616 69.6572 135.232 69.2412 134.688ZM76.8818 134.688C76.7858 134.539 76.7431 134.368 76.7538 134.176C76.7645 133.973 76.8765 133.803 77.0898 133.664C77.2391 133.568 77.3938 133.531 77.5538 133.552C77.7245 133.563 77.8845 133.643 78.0338 133.792C78.3325 134.123 78.6631 134.384 79.0258 134.576C79.3991 134.768 79.8471 134.864 80.3698 134.864C80.5831 134.853 80.8018 134.821 81.0258 134.768C81.2498 134.704 81.4418 134.597 81.6018 134.448C81.7618 134.288 81.8418 134.059 81.8418 133.76C81.8418 133.493 81.7565 133.28 81.5858 133.12C81.4151 132.96 81.1911 132.832 80.9138 132.736C80.6365 132.629 80.3378 132.533 80.0178 132.448C79.6765 132.352 79.3298 132.245 78.9778 132.128C78.6365 132.011 78.3271 131.861 78.0498 131.68C77.7725 131.488 77.5431 131.243 77.3618 130.944C77.1911 130.645 77.1058 130.277 77.1058 129.84C77.1058 129.339 77.2445 128.907 77.5218 128.544C77.8098 128.181 78.1778 127.899 78.6258 127.696C79.0845 127.493 79.5805 127.392 80.1138 127.392C80.4231 127.392 80.7485 127.435 81.0898 127.52C81.4311 127.595 81.7618 127.717 82.0818 127.888C82.4018 128.059 82.6791 128.283 82.9138 128.56C83.0205 128.699 83.0791 128.864 83.0898 129.056C83.1111 129.248 83.0258 129.419 82.8338 129.568C82.7058 129.675 82.5511 129.723 82.3698 129.712C82.1885 129.701 82.0391 129.643 81.9218 129.536C81.7191 129.28 81.4578 129.083 81.1378 128.944C80.8178 128.795 80.4551 128.72 80.0498 128.72C79.8471 128.72 79.6338 128.752 79.4098 128.816C79.1965 128.869 79.0151 128.971 78.8658 129.12C78.7165 129.269 78.6418 129.488 78.6418 129.776C78.6418 130.043 78.7271 130.256 78.8978 130.416C79.0791 130.576 79.3138 130.709 79.6018 130.816C79.8898 130.923 80.2045 131.019 80.5458 131.104C80.8765 131.189 81.2018 131.291 81.5218 131.408C81.8525 131.525 82.1458 131.68 82.4018 131.872C82.6685 132.053 82.8818 132.293 83.0418 132.592C83.2125 132.88 83.2978 133.248 83.2978 133.696C83.2978 134.219 83.1431 134.667 82.8338 135.04C82.5351 135.403 82.1511 135.68 81.6818 135.872C81.2231 136.064 80.7378 136.16 80.2258 136.16C79.6178 136.16 79.0098 136.053 78.4018 135.84C77.8045 135.616 77.2978 135.232 76.8818 134.688ZM86.5224 135.184C86.5224 135.419 86.4478 135.616 86.2984 135.776C86.1491 135.925 85.9571 136 85.7224 136C85.4984 136 85.3064 135.925 85.1464 135.776C84.9971 135.616 84.9224 135.419 84.9224 135.184V128.336C84.9224 128.101 84.9971 127.909 85.1464 127.76C85.3064 127.6 85.4984 127.52 85.7224 127.52C85.9571 127.52 86.1491 127.6 86.2984 127.76C86.4478 127.909 86.5224 128.101 86.5224 128.336V135.184ZM85.7064 126.464C85.3971 126.464 85.1731 126.411 85.0344 126.304C84.8958 126.187 84.8264 125.995 84.8264 125.728V125.472C84.8264 125.205 84.9011 125.019 85.0504 124.912C85.1998 124.805 85.4238 124.752 85.7224 124.752C86.0424 124.752 86.2718 124.811 86.4104 124.928C86.5491 125.035 86.6184 125.216 86.6184 125.472V125.728C86.6184 126.005 86.5438 126.197 86.3944 126.304C86.2558 126.411 86.0264 126.464 85.7064 126.464ZM92.9147 127.392C93.6614 127.392 94.3227 127.579 94.8987 127.952C95.4854 128.325 95.9494 128.843 96.2907 129.504C96.632 130.155 96.8027 130.907 96.8027 131.76C96.8027 132.613 96.632 133.371 96.2907 134.032C95.9494 134.693 95.4907 135.216 94.9147 135.6C94.3387 135.973 93.688 136.16 92.9627 136.16C92.5574 136.16 92.1734 136.096 91.8107 135.968C91.448 135.829 91.128 135.659 90.8507 135.456C90.5734 135.243 90.344 135.019 90.1627 134.784C89.992 134.549 89.8854 134.331 89.8427 134.128L90.2747 133.92V135.312C90.2747 135.536 90.1947 135.728 90.0347 135.888C89.8854 136.037 89.6987 136.112 89.4747 136.112C89.24 136.112 89.048 136.037 88.8987 135.888C88.7494 135.739 88.6747 135.547 88.6747 135.312V124.976C88.6747 124.741 88.7494 124.549 88.8987 124.4C89.048 124.24 89.24 124.16 89.4747 124.16C89.6987 124.16 89.8854 124.24 90.0347 124.4C90.1947 124.549 90.2747 124.741 90.2747 124.976V129.472L90.0187 129.328C90.0507 129.125 90.152 128.917 90.3227 128.704C90.4934 128.48 90.7067 128.267 90.9627 128.064C91.2294 127.861 91.528 127.701 91.8587 127.584C92.2 127.456 92.552 127.392 92.9147 127.392ZM92.7387 128.864C92.2267 128.864 91.7787 128.992 91.3947 129.248C91.0214 129.504 90.728 129.851 90.5147 130.288C90.3014 130.715 90.1947 131.205 90.1947 131.76C90.1947 132.315 90.3014 132.816 90.5147 133.264C90.728 133.701 91.0214 134.048 91.3947 134.304C91.7787 134.56 92.2267 134.688 92.7387 134.688C93.24 134.688 93.6774 134.56 94.0507 134.304C94.424 134.048 94.7174 133.696 94.9307 133.248C95.1547 132.8 95.2667 132.304 95.2667 131.76C95.2667 131.205 95.1547 130.715 94.9307 130.288C94.7174 129.851 94.424 129.504 94.0507 129.248C93.6774 128.992 93.24 128.864 92.7387 128.864ZM100.34 135.184C100.34 135.419 100.26 135.616 100.1 135.776C99.9509 135.925 99.7642 136 99.5402 136C99.3162 136 99.1242 135.925 98.9642 135.776C98.8149 135.616 98.7402 135.419 98.7402 135.184V124.976C98.7402 124.741 98.8202 124.549 98.9802 124.4C99.1402 124.24 99.3322 124.16 99.5562 124.16C99.7909 124.16 99.9775 124.24 100.116 124.4C100.266 124.549 100.34 124.741 100.34 124.976V135.184ZM106.485 136.16C105.6 136.16 104.832 135.979 104.181 135.616C103.531 135.243 103.024 134.736 102.661 134.096C102.309 133.445 102.133 132.704 102.133 131.872C102.133 130.933 102.32 130.133 102.693 129.472C103.077 128.8 103.573 128.288 104.181 127.936C104.789 127.573 105.435 127.392 106.117 127.392C106.64 127.392 107.136 127.499 107.605 127.712C108.075 127.915 108.491 128.203 108.853 128.576C109.227 128.939 109.52 129.371 109.733 129.872C109.947 130.363 110.059 130.901 110.069 131.488C110.059 131.701 109.973 131.877 109.813 132.016C109.653 132.155 109.467 132.224 109.253 132.224H103.029L102.645 130.864H108.661L108.357 131.152V130.752C108.336 130.379 108.213 130.053 107.989 129.776C107.765 129.488 107.488 129.269 107.157 129.12C106.827 128.96 106.48 128.88 106.117 128.88C105.797 128.88 105.488 128.933 105.189 129.04C104.901 129.136 104.64 129.296 104.405 129.52C104.181 129.744 104 130.043 103.861 130.416C103.733 130.779 103.669 131.232 103.669 131.776C103.669 132.363 103.792 132.875 104.037 133.312C104.283 133.749 104.613 134.091 105.029 134.336C105.445 134.571 105.904 134.688 106.405 134.688C106.8 134.688 107.125 134.651 107.381 134.576C107.637 134.491 107.851 134.389 108.021 134.272C108.192 134.155 108.341 134.043 108.469 133.936C108.629 133.84 108.789 133.792 108.949 133.792C109.141 133.792 109.301 133.861 109.429 134C109.557 134.128 109.621 134.283 109.621 134.464C109.621 134.699 109.504 134.912 109.269 135.104C108.981 135.381 108.581 135.627 108.069 135.84C107.568 136.053 107.04 136.16 106.485 136.16ZM120.059 127.392C120.635 127.392 121.147 127.456 121.595 127.584C122.043 127.701 122.39 127.872 122.635 128.096C122.891 128.309 123.019 128.56 123.019 128.848C123.019 129.029 122.966 129.2 122.859 129.36C122.752 129.509 122.592 129.584 122.379 129.584C122.23 129.584 122.102 129.557 121.995 129.504C121.899 129.451 121.808 129.387 121.723 129.312C121.638 129.237 121.531 129.163 121.403 129.088C121.286 129.024 121.11 128.971 120.875 128.928C120.651 128.885 120.448 128.864 120.267 128.864C119.702 128.864 119.211 128.992 118.795 129.248C118.39 129.504 118.07 129.851 117.835 130.288C117.611 130.725 117.499 131.221 117.499 131.776C117.499 132.331 117.611 132.827 117.835 133.264C118.07 133.701 118.384 134.048 118.779 134.304C119.184 134.56 119.654 134.688 120.187 134.688C120.507 134.688 120.768 134.667 120.971 134.624C121.174 134.571 121.35 134.507 121.499 134.432C121.659 134.336 121.792 134.24 121.899 134.144C122.016 134.037 122.176 133.984 122.379 133.984C122.614 133.984 122.79 134.059 122.907 134.208C123.035 134.347 123.099 134.523 123.099 134.736C123.099 134.971 122.955 135.2 122.667 135.424C122.39 135.637 122.016 135.813 121.547 135.952C121.078 136.091 120.56 136.16 119.995 136.16C119.163 136.16 118.438 135.968 117.819 135.584C117.211 135.2 116.736 134.677 116.395 134.016C116.064 133.355 115.899 132.608 115.899 131.776C115.899 130.933 116.075 130.187 116.427 129.536C116.779 128.875 117.27 128.352 117.899 127.968C118.528 127.584 119.248 127.392 120.059 127.392ZM132.692 131.792C132.692 132.645 132.505 133.403 132.132 134.064C131.758 134.715 131.252 135.227 130.612 135.6C129.972 135.973 129.252 136.16 128.452 136.16C127.652 136.16 126.932 135.973 126.292 135.6C125.652 135.227 125.14 134.715 124.756 134.064C124.382 133.403 124.196 132.645 124.196 131.792C124.196 130.928 124.382 130.171 124.756 129.52C125.14 128.859 125.652 128.341 126.292 127.968C126.932 127.584 127.652 127.392 128.452 127.392C129.252 127.392 129.972 127.584 130.612 127.968C131.252 128.341 131.758 128.859 132.132 129.52C132.505 130.171 132.692 130.928 132.692 131.792ZM131.092 131.792C131.092 131.205 130.974 130.699 130.74 130.272C130.505 129.835 130.185 129.493 129.78 129.248C129.385 128.992 128.942 128.864 128.452 128.864C127.961 128.864 127.513 128.992 127.108 129.248C126.702 129.493 126.382 129.835 126.148 130.272C125.913 130.699 125.796 131.205 125.796 131.792C125.796 132.357 125.913 132.859 126.148 133.296C126.382 133.733 126.702 134.075 127.108 134.32C127.513 134.565 127.961 134.688 128.452 134.688C128.942 134.688 129.385 134.565 129.78 134.32C130.185 134.075 130.505 133.733 130.74 133.296C130.974 132.859 131.092 132.357 131.092 131.792ZM138.839 127.392C139.596 127.392 140.183 127.552 140.599 127.872C141.015 128.181 141.303 128.603 141.463 129.136C141.633 129.659 141.719 130.245 141.719 130.896V135.184C141.719 135.419 141.639 135.616 141.479 135.776C141.329 135.925 141.143 136 140.919 136C140.684 136 140.492 135.925 140.343 135.776C140.193 135.616 140.119 135.419 140.119 135.184V130.912C140.119 130.528 140.065 130.187 139.959 129.888C139.852 129.579 139.665 129.333 139.399 129.152C139.143 128.96 138.78 128.864 138.311 128.864C137.873 128.864 137.489 128.96 137.159 129.152C136.828 129.333 136.567 129.579 136.375 129.888C136.193 130.187 136.103 130.528 136.103 130.912V135.184C136.103 135.419 136.023 135.616 135.863 135.776C135.713 135.925 135.527 136 135.303 136C135.068 136 134.876 135.925 134.727 135.776C134.577 135.616 134.503 135.419 134.503 135.184V128.4C134.503 128.165 134.577 127.973 134.727 127.824C134.876 127.664 135.068 127.584 135.303 127.584C135.527 127.584 135.713 127.664 135.863 127.824C136.023 127.973 136.103 128.165 136.103 128.4V129.296L135.815 129.456C135.889 129.221 136.017 128.987 136.199 128.752C136.391 128.507 136.62 128.283 136.887 128.08C137.153 127.867 137.452 127.701 137.783 127.584C138.113 127.456 138.465 127.392 138.839 127.392ZM150.836 124.16C151.071 124.16 151.263 124.235 151.412 124.384C151.562 124.533 151.636 124.731 151.636 124.976V135.184C151.636 135.419 151.562 135.616 151.412 135.776C151.263 135.925 151.071 136 150.836 136C150.612 136 150.42 135.925 150.26 135.776C150.111 135.616 150.036 135.419 150.036 135.184V134.032L150.372 134.048C150.372 134.24 150.292 134.459 150.132 134.704C149.983 134.939 149.775 135.168 149.508 135.392C149.242 135.616 148.927 135.803 148.564 135.952C148.202 136.091 147.812 136.16 147.396 136.16C146.66 136.16 145.999 135.973 145.412 135.6C144.826 135.216 144.362 134.699 144.02 134.048C143.679 133.387 143.508 132.629 143.508 131.776C143.508 130.923 143.679 130.171 144.02 129.52C144.362 128.859 144.82 128.341 145.396 127.968C145.983 127.584 146.634 127.392 147.348 127.392C147.796 127.392 148.212 127.467 148.596 127.616C148.991 127.765 149.332 127.957 149.62 128.192C149.908 128.427 150.132 128.677 150.292 128.944C150.452 129.2 150.532 129.445 150.532 129.68L150.036 129.728V124.976C150.036 124.741 150.111 124.549 150.26 124.4C150.42 124.24 150.612 124.16 150.836 124.16ZM147.572 134.688C148.084 134.688 148.527 134.56 148.9 134.304C149.284 134.048 149.583 133.701 149.796 133.264C150.01 132.827 150.116 132.331 150.116 131.776C150.116 131.221 150.01 130.725 149.796 130.288C149.583 129.851 149.284 129.504 148.9 129.248C148.516 128.992 148.074 128.864 147.572 128.864C147.082 128.864 146.644 128.992 146.26 129.248C145.887 129.504 145.588 129.851 145.364 130.288C145.151 130.725 145.044 131.221 145.044 131.776C145.044 132.331 145.151 132.827 145.364 133.264C145.588 133.701 145.887 134.048 146.26 134.304C146.644 134.56 147.082 134.688 147.572 134.688ZM155.382 135.184C155.382 135.419 155.307 135.616 155.158 135.776C155.008 135.925 154.816 136 154.582 136C154.358 136 154.166 135.925 154.006 135.776C153.856 135.616 153.782 135.419 153.782 135.184V128.336C153.782 128.101 153.856 127.909 154.006 127.76C154.166 127.6 154.358 127.52 154.582 127.52C154.816 127.52 155.008 127.6 155.158 127.76C155.307 127.909 155.382 128.101 155.382 128.336V135.184ZM154.566 126.464C154.256 126.464 154.032 126.411 153.894 126.304C153.755 126.187 153.686 125.995 153.686 125.728V125.472C153.686 125.205 153.76 125.019 153.91 124.912C154.059 124.805 154.283 124.752 154.582 124.752C154.902 124.752 155.131 124.811 155.27 124.928C155.408 125.035 155.478 125.216 155.478 125.472V125.728C155.478 126.005 155.403 126.197 155.254 126.304C155.115 126.411 154.886 126.464 154.566 126.464ZM157.422 127.68H161.182C161.395 127.68 161.571 127.755 161.71 127.904C161.859 128.043 161.934 128.219 161.934 128.432C161.934 128.635 161.859 128.805 161.71 128.944C161.571 129.083 161.395 129.152 161.182 129.152H157.422C157.209 129.152 157.027 129.083 156.878 128.944C156.739 128.795 156.67 128.619 156.67 128.416C156.67 128.203 156.739 128.027 156.878 127.888C157.027 127.749 157.209 127.68 157.422 127.68ZM159.102 125.6C159.337 125.6 159.529 125.68 159.678 125.84C159.827 125.989 159.902 126.181 159.902 126.416V133.84C159.902 134.032 159.934 134.187 159.998 134.304C160.062 134.421 160.147 134.501 160.254 134.544C160.371 134.587 160.489 134.608 160.606 134.608C160.723 134.608 160.825 134.587 160.91 134.544C161.006 134.501 161.118 134.48 161.246 134.48C161.374 134.48 161.491 134.539 161.598 134.656C161.705 134.773 161.758 134.933 161.758 135.136C161.758 135.392 161.619 135.6 161.342 135.76C161.065 135.92 160.766 136 160.446 136C160.265 136 160.051 135.984 159.806 135.952C159.561 135.92 159.321 135.84 159.086 135.712C158.862 135.584 158.675 135.381 158.526 135.104C158.377 134.816 158.302 134.416 158.302 133.904V126.416C158.302 126.181 158.377 125.989 158.526 125.84C158.686 125.68 158.878 125.6 159.102 125.6ZM165.21 135.184C165.21 135.419 165.135 135.616 164.986 135.776C164.837 135.925 164.645 136 164.41 136C164.186 136 163.994 135.925 163.834 135.776C163.685 135.616 163.61 135.419 163.61 135.184V128.336C163.61 128.101 163.685 127.909 163.834 127.76C163.994 127.6 164.186 127.52 164.41 127.52C164.645 127.52 164.837 127.6 164.986 127.76C165.135 127.909 165.21 128.101 165.21 128.336V135.184ZM164.394 126.464C164.085 126.464 163.861 126.411 163.722 126.304C163.583 126.187 163.514 125.995 163.514 125.728V125.472C163.514 125.205 163.589 125.019 163.738 124.912C163.887 124.805 164.111 124.752 164.41 124.752C164.73 124.752 164.959 124.811 165.098 124.928C165.237 125.035 165.306 125.216 165.306 125.472V125.728C165.306 126.005 165.231 126.197 165.082 126.304C164.943 126.411 164.714 126.464 164.394 126.464ZM175.426 131.792C175.426 132.645 175.24 133.403 174.866 134.064C174.493 134.715 173.986 135.227 173.346 135.6C172.706 135.973 171.986 136.16 171.186 136.16C170.386 136.16 169.666 135.973 169.026 135.6C168.386 135.227 167.874 134.715 167.49 134.064C167.117 133.403 166.93 132.645 166.93 131.792C166.93 130.928 167.117 130.171 167.49 129.52C167.874 128.859 168.386 128.341 169.026 127.968C169.666 127.584 170.386 127.392 171.186 127.392C171.986 127.392 172.706 127.584 173.346 127.968C173.986 128.341 174.493 128.859 174.866 129.52C175.24 130.171 175.426 130.928 175.426 131.792ZM173.826 131.792C173.826 131.205 173.709 130.699 173.474 130.272C173.24 129.835 172.92 129.493 172.514 129.248C172.12 128.992 171.677 128.864 171.186 128.864C170.696 128.864 170.248 128.992 169.842 129.248C169.437 129.493 169.117 129.835 168.882 130.272C168.648 130.699 168.53 131.205 168.53 131.792C168.53 132.357 168.648 132.859 168.882 133.296C169.117 133.733 169.437 134.075 169.842 134.32C170.248 134.565 170.696 134.688 171.186 134.688C171.677 134.688 172.12 134.565 172.514 134.32C172.92 134.075 173.24 133.733 173.474 133.296C173.709 132.859 173.826 132.357 173.826 131.792ZM181.573 127.392C182.331 127.392 182.917 127.552 183.333 127.872C183.749 128.181 184.037 128.603 184.197 129.136C184.368 129.659 184.453 130.245 184.453 130.896V135.184C184.453 135.419 184.373 135.616 184.213 135.776C184.064 135.925 183.877 136 183.653 136C183.419 136 183.227 135.925 183.077 135.776C182.928 135.616 182.853 135.419 182.853 135.184V130.912C182.853 130.528 182.8 130.187 182.693 129.888C182.587 129.579 182.4 129.333 182.133 129.152C181.877 128.96 181.515 128.864 181.045 128.864C180.608 128.864 180.224 128.96 179.893 129.152C179.563 129.333 179.301 129.579 179.109 129.888C178.928 130.187 178.837 130.528 178.837 130.912V135.184C178.837 135.419 178.757 135.616 178.597 135.776C178.448 135.925 178.261 136 178.037 136C177.803 136 177.611 135.925 177.461 135.776C177.312 135.616 177.237 135.419 177.237 135.184V128.4C177.237 128.165 177.312 127.973 177.461 127.824C177.611 127.664 177.803 127.584 178.037 127.584C178.261 127.584 178.448 127.664 178.597 127.824C178.757 127.973 178.837 128.165 178.837 128.4V129.296L178.549 129.456C178.624 129.221 178.752 128.987 178.933 128.752C179.125 128.507 179.355 128.283 179.621 128.08C179.888 127.867 180.187 127.701 180.517 127.584C180.848 127.456 181.2 127.392 181.573 127.392ZM186.179 134.688C186.083 134.539 186.04 134.368 186.051 134.176C186.061 133.973 186.173 133.803 186.387 133.664C186.536 133.568 186.691 133.531 186.851 133.552C187.021 133.563 187.181 133.643 187.331 133.792C187.629 134.123 187.96 134.384 188.323 134.576C188.696 134.768 189.144 134.864 189.667 134.864C189.88 134.853 190.099 134.821 190.323 134.768C190.547 134.704 190.739 134.597 190.899 134.448C191.059 134.288 191.139 134.059 191.139 133.76C191.139 133.493 191.053 133.28 190.883 133.12C190.712 132.96 190.488 132.832 190.211 132.736C189.933 132.629 189.635 132.533 189.315 132.448C188.973 132.352 188.627 132.245 188.275 132.128C187.933 132.011 187.624 131.861 187.347 131.68C187.069 131.488 186.84 131.243 186.659 130.944C186.488 130.645 186.403 130.277 186.403 129.84C186.403 129.339 186.541 128.907 186.819 128.544C187.107 128.181 187.475 127.899 187.923 127.696C188.381 127.493 188.877 127.392 189.411 127.392C189.72 127.392 190.045 127.435 190.387 127.52C190.728 127.595 191.059 127.717 191.379 127.888C191.699 128.059 191.976 128.283 192.211 128.56C192.317 128.699 192.376 128.864 192.387 129.056C192.408 129.248 192.323 129.419 192.131 129.568C192.003 129.675 191.848 129.723 191.667 129.712C191.485 129.701 191.336 129.643 191.219 129.536C191.016 129.28 190.755 129.083 190.435 128.944C190.115 128.795 189.752 128.72 189.347 128.72C189.144 128.72 188.931 128.752 188.707 128.816C188.493 128.869 188.312 128.971 188.163 129.12C188.013 129.269 187.939 129.488 187.939 129.776C187.939 130.043 188.024 130.256 188.195 130.416C188.376 130.576 188.611 130.709 188.899 130.816C189.187 130.923 189.501 131.019 189.843 131.104C190.173 131.189 190.499 131.291 190.819 131.408C191.149 131.525 191.443 131.68 191.699 131.872C191.965 132.053 192.179 132.293 192.339 132.592C192.509 132.88 192.595 133.248 192.595 133.696C192.595 134.219 192.44 134.667 192.131 135.04C191.832 135.403 191.448 135.68 190.979 135.872C190.52 136.064 190.035 136.16 189.523 136.16C188.915 136.16 188.307 136.053 187.699 135.84C187.101 135.616 186.595 135.232 186.179 134.688Z" fill="white"/>
</svg>
