<svg width="416" height="210" viewBox="0 0 416 210" fill="none" xmlns="http://www.w3.org/2000/svg">
<g filter="url(#filter0_f_18_940)">
<rect x="80" y="80" width="267" height="50" fill="#E2A53E"/>
</g>
<rect x="80" y="80" width="263" height="53" rx="8" fill="#EEA73C"/>
<path d="M102.08 101.8C102.261 101.8 102.416 101.864 102.544 101.992C102.672 102.109 102.736 102.264 102.736 102.456V112.344C102.736 112.525 102.667 112.68 102.528 112.808C102.4 112.936 102.245 113 102.064 113C101.861 113 101.701 112.936 101.584 112.808C101.467 112.68 101.408 112.525 101.408 112.344V102.456C101.408 102.264 101.472 102.109 101.6 101.992C101.728 101.864 101.888 101.8 102.08 101.8ZM109.456 101.8C109.648 101.8 109.803 101.864 109.92 101.992C110.048 102.109 110.112 102.264 110.112 102.456V112.344C110.112 112.525 110.048 112.68 109.92 112.808C109.792 112.936 109.632 113 109.44 113C109.259 113 109.104 112.936 108.976 112.808C108.848 112.68 108.784 112.525 108.784 112.344V102.456C108.784 102.264 108.848 102.109 108.976 101.992C109.115 101.864 109.275 101.8 109.456 101.8ZM102.016 106.68H109.472L109.456 107.928H101.968L102.016 106.68ZM114.092 112.344C114.092 112.525 114.028 112.68 113.9 112.808C113.782 112.936 113.633 113 113.452 113C113.26 113 113.105 112.936 112.988 112.808C112.87 112.68 112.812 112.525 112.812 112.344V105.24C112.812 105.059 112.87 104.909 112.988 104.792C113.116 104.664 113.27 104.6 113.452 104.6C113.633 104.6 113.782 104.664 113.9 104.792C114.028 104.909 114.092 105.059 114.092 105.24V112.344ZM113.452 103.528C113.185 103.528 112.988 103.475 112.86 103.368C112.732 103.261 112.668 103.096 112.668 102.872V102.648C112.668 102.424 112.737 102.259 112.876 102.152C113.014 102.045 113.212 101.992 113.468 101.992C113.724 101.992 113.916 102.045 114.044 102.152C114.172 102.259 114.236 102.424 114.236 102.648V102.872C114.236 103.096 114.166 103.261 114.028 103.368C113.9 103.475 113.708 103.528 113.452 103.528ZM118.215 113.032C118.215 113.341 118.124 113.645 117.943 113.944C117.772 114.253 117.554 114.504 117.287 114.696C117.02 114.899 116.748 115 116.471 115C116.375 115 116.279 114.963 116.183 114.888C116.087 114.824 116.039 114.707 116.039 114.536C116.039 114.355 116.098 114.248 116.215 114.216C116.332 114.184 116.46 114.136 116.599 114.072C116.759 113.987 116.882 113.88 116.967 113.752C117.063 113.635 117.111 113.496 117.111 113.336C117.111 113.208 117.063 113.101 116.967 113.016C116.882 112.941 116.775 112.904 116.647 112.904C116.572 112.904 116.492 112.915 116.407 112.936C116.332 112.957 116.268 112.989 116.215 113.032C116.14 112.979 116.076 112.915 116.023 112.84C115.97 112.765 115.943 112.669 115.943 112.552C115.954 112.317 116.071 112.12 116.295 111.96C116.519 111.789 116.775 111.704 117.063 111.704C117.404 111.704 117.682 111.832 117.895 112.088C118.108 112.344 118.215 112.659 118.215 113.032ZM128.808 104.6C129.512 104.6 130.067 104.755 130.472 105.064C130.888 105.363 131.182 105.768 131.352 106.28C131.534 106.781 131.624 107.341 131.624 107.96V112.344C131.624 112.525 131.56 112.68 131.432 112.808C131.315 112.936 131.166 113 130.984 113C130.803 113 130.648 112.936 130.52 112.808C130.403 112.68 130.344 112.525 130.344 112.344V107.96C130.344 107.555 130.286 107.192 130.168 106.872C130.051 106.541 129.854 106.28 129.576 106.088C129.31 105.885 128.942 105.784 128.472 105.784C128.035 105.784 127.635 105.885 127.272 106.088C126.91 106.28 126.622 106.541 126.408 106.872C126.195 107.192 126.088 107.555 126.088 107.96V112.344C126.088 112.525 126.024 112.68 125.896 112.808C125.779 112.936 125.63 113 125.448 113C125.267 113 125.112 112.936 124.984 112.808C124.867 112.68 124.808 112.525 124.808 112.344V101.8C124.808 101.619 124.867 101.469 124.984 101.352C125.112 101.224 125.267 101.16 125.448 101.16C125.64 101.16 125.795 101.224 125.912 101.352C126.03 101.469 126.088 101.619 126.088 101.8V106.584L125.768 106.936C125.822 106.659 125.939 106.381 126.12 106.104C126.302 105.816 126.531 105.56 126.808 105.336C127.086 105.112 127.395 104.936 127.736 104.808C128.078 104.669 128.435 104.6 128.808 104.6ZM142.012 108.84C142.012 109.672 141.825 110.413 141.452 111.064C141.089 111.715 140.593 112.227 139.964 112.6C139.345 112.973 138.647 113.16 137.868 113.16C137.089 113.16 136.385 112.973 135.756 112.6C135.127 112.227 134.625 111.715 134.252 111.064C133.889 110.413 133.708 109.672 133.708 108.84C133.708 108.008 133.889 107.267 134.252 106.616C134.625 105.965 135.127 105.453 135.756 105.08C136.385 104.707 137.089 104.52 137.868 104.52C138.647 104.52 139.345 104.707 139.964 105.08C140.593 105.453 141.089 105.965 141.452 106.616C141.825 107.267 142.012 108.008 142.012 108.84ZM140.732 108.84C140.732 108.221 140.604 107.677 140.348 107.208C140.103 106.739 139.761 106.371 139.324 106.104C138.897 105.837 138.412 105.704 137.868 105.704C137.324 105.704 136.833 105.837 136.396 106.104C135.969 106.371 135.628 106.739 135.372 107.208C135.116 107.677 134.988 108.221 134.988 108.84C134.988 109.448 135.116 109.987 135.372 110.456C135.628 110.925 135.969 111.299 136.396 111.576C136.833 111.843 137.324 111.976 137.868 111.976C138.412 111.976 138.897 111.843 139.324 111.576C139.761 111.299 140.103 110.925 140.348 110.456C140.604 109.987 140.732 109.448 140.732 108.84ZM153.857 104.584C154.028 104.584 154.172 104.643 154.289 104.76C154.417 104.877 154.481 105.032 154.481 105.224C154.481 105.267 154.476 105.315 154.465 105.368C154.465 105.411 154.454 105.453 154.433 105.496L151.969 112.584C151.916 112.723 151.825 112.829 151.697 112.904C151.58 112.979 151.452 113.011 151.313 113C151.068 112.989 150.881 112.851 150.753 112.584L148.737 107.528L149.057 107.576L147.233 112.584C147.116 112.851 146.929 112.989 146.673 113C146.534 113.011 146.401 112.979 146.273 112.904C146.145 112.829 146.06 112.723 146.017 112.584L143.505 105.496C143.473 105.4 143.457 105.309 143.457 105.224C143.457 105.053 143.516 104.904 143.633 104.776C143.75 104.648 143.91 104.584 144.113 104.584C144.241 104.584 144.358 104.616 144.465 104.68C144.572 104.744 144.646 104.845 144.689 104.984L146.849 111.288L146.513 111.272L148.385 106.472C148.492 106.205 148.689 106.072 148.977 106.072C149.126 106.072 149.244 106.109 149.329 106.184C149.425 106.248 149.494 106.344 149.537 106.472L151.489 111.272L151.089 111.304L153.249 104.984C153.345 104.717 153.548 104.584 153.857 104.584ZM164.613 104.52C165.157 104.52 165.647 104.579 166.085 104.696C166.522 104.813 166.869 104.973 167.125 105.176C167.381 105.379 167.509 105.608 167.509 105.864C167.509 106.003 167.461 106.136 167.365 106.264C167.269 106.392 167.141 106.456 166.981 106.456C166.831 106.456 166.709 106.429 166.613 106.376C166.527 106.323 166.442 106.253 166.357 106.168C166.282 106.083 166.175 106.008 166.037 105.944C165.909 105.869 165.722 105.811 165.477 105.768C165.231 105.725 164.986 105.704 164.741 105.704C164.154 105.704 163.637 105.843 163.189 106.12C162.751 106.397 162.405 106.771 162.149 107.24C161.893 107.709 161.765 108.243 161.765 108.84C161.765 109.437 161.887 109.971 162.133 110.44C162.378 110.909 162.719 111.283 163.157 111.56C163.594 111.837 164.101 111.976 164.677 111.976C165.05 111.976 165.349 111.944 165.573 111.88C165.797 111.816 165.983 111.741 166.133 111.656C166.325 111.549 166.469 111.443 166.565 111.336C166.671 111.229 166.81 111.176 166.981 111.176C167.162 111.176 167.301 111.235 167.397 111.352C167.503 111.469 167.557 111.613 167.557 111.784C167.557 111.976 167.423 112.179 167.157 112.392C166.89 112.605 166.527 112.787 166.069 112.936C165.621 113.085 165.109 113.16 164.533 113.16C163.722 113.16 163.013 112.973 162.405 112.6C161.797 112.216 161.322 111.699 160.981 111.048C160.65 110.387 160.485 109.651 160.485 108.84C160.485 108.029 160.655 107.299 160.997 106.648C161.349 105.997 161.834 105.48 162.453 105.096C163.071 104.712 163.791 104.52 164.613 104.52ZM176.206 104.648C176.387 104.648 176.536 104.712 176.654 104.84C176.782 104.957 176.846 105.107 176.846 105.288V112.344C176.846 112.525 176.782 112.68 176.654 112.808C176.536 112.936 176.387 113 176.206 113C176.014 113 175.859 112.936 175.742 112.808C175.624 112.68 175.566 112.525 175.566 112.344V110.824L175.87 110.792C175.87 111.027 175.79 111.283 175.63 111.56C175.47 111.837 175.251 112.099 174.974 112.344C174.696 112.579 174.366 112.776 173.982 112.936C173.608 113.085 173.203 113.16 172.766 113.16C172.04 113.16 171.39 112.973 170.814 112.6C170.238 112.216 169.779 111.699 169.438 111.048C169.107 110.397 168.942 109.656 168.942 108.824C168.942 107.981 169.107 107.24 169.438 106.6C169.779 105.949 170.238 105.443 170.814 105.08C171.39 104.707 172.03 104.52 172.734 104.52C173.192 104.52 173.619 104.595 174.014 104.744C174.408 104.893 174.75 105.096 175.038 105.352C175.336 105.608 175.566 105.891 175.726 106.2C175.896 106.509 175.982 106.819 175.982 107.128L175.566 107.032V105.288C175.566 105.107 175.624 104.957 175.742 104.84C175.859 104.712 176.014 104.648 176.206 104.648ZM172.91 111.976C173.443 111.976 173.912 111.837 174.318 111.56C174.734 111.283 175.054 110.909 175.278 110.44C175.512 109.96 175.63 109.421 175.63 108.824C175.63 108.237 175.512 107.709 175.278 107.24C175.054 106.76 174.734 106.387 174.318 106.12C173.912 105.843 173.443 105.704 172.91 105.704C172.387 105.704 171.918 105.837 171.502 106.104C171.096 106.371 170.776 106.739 170.542 107.208C170.307 107.677 170.19 108.216 170.19 108.824C170.19 109.421 170.302 109.96 170.526 110.44C170.76 110.909 171.08 111.283 171.486 111.56C171.902 111.837 172.376 111.976 172.91 111.976ZM183.49 104.52C184.215 104.52 184.786 104.669 185.202 104.968C185.618 105.267 185.911 105.667 186.082 106.168C186.263 106.669 186.354 107.229 186.354 107.848V112.344C186.354 112.525 186.29 112.68 186.162 112.808C186.044 112.936 185.895 113 185.714 113C185.532 113 185.378 112.936 185.25 112.808C185.132 112.68 185.074 112.525 185.074 112.344V107.88C185.074 107.475 185.01 107.112 184.882 106.792C184.764 106.461 184.562 106.2 184.274 106.008C183.996 105.805 183.612 105.704 183.122 105.704C182.674 105.704 182.263 105.805 181.89 106.008C181.516 106.2 181.218 106.461 180.994 106.792C180.77 107.112 180.658 107.475 180.658 107.88V112.344C180.658 112.525 180.594 112.68 180.466 112.808C180.348 112.936 180.199 113 180.018 113C179.836 113 179.682 112.936 179.554 112.808C179.436 112.68 179.378 112.525 179.378 112.344V105.368C179.378 105.187 179.436 105.037 179.554 104.92C179.682 104.792 179.836 104.728 180.018 104.728C180.21 104.728 180.364 104.792 180.482 104.92C180.599 105.037 180.658 105.187 180.658 105.368V106.504L180.338 106.856C180.391 106.579 180.514 106.301 180.706 106.024C180.898 105.736 181.138 105.48 181.426 105.256C181.714 105.032 182.034 104.856 182.386 104.728C182.738 104.589 183.106 104.52 183.49 104.52ZM194.68 112.344C194.68 112.525 194.616 112.68 194.488 112.808C194.37 112.936 194.221 113 194.04 113C193.848 113 193.693 112.936 193.576 112.808C193.458 112.68 193.4 112.525 193.4 112.344V105.24C193.4 105.059 193.458 104.909 193.576 104.792C193.704 104.664 193.858 104.6 194.04 104.6C194.221 104.6 194.37 104.664 194.488 104.792C194.616 104.909 194.68 105.059 194.68 105.24V112.344ZM194.04 103.528C193.773 103.528 193.576 103.475 193.448 103.368C193.32 103.261 193.256 103.096 193.256 102.872V102.648C193.256 102.424 193.325 102.259 193.464 102.152C193.602 102.045 193.8 101.992 194.056 101.992C194.312 101.992 194.504 102.045 194.632 102.152C194.76 102.259 194.824 102.424 194.824 102.648V102.872C194.824 103.096 194.754 103.261 194.616 103.368C194.488 103.475 194.296 103.528 194.04 103.528ZM205.705 104.6C206.409 104.6 206.964 104.755 207.369 105.064C207.785 105.363 208.079 105.768 208.249 106.28C208.431 106.781 208.521 107.341 208.521 107.96V112.344C208.521 112.525 208.457 112.68 208.329 112.808C208.212 112.936 208.063 113 207.881 113C207.7 113 207.545 112.936 207.417 112.808C207.3 112.68 207.241 112.525 207.241 112.344V107.96C207.241 107.555 207.183 107.192 207.065 106.872C206.948 106.541 206.751 106.28 206.473 106.088C206.207 105.885 205.839 105.784 205.369 105.784C204.932 105.784 204.532 105.885 204.169 106.088C203.807 106.28 203.519 106.541 203.305 106.872C203.092 107.192 202.985 107.555 202.985 107.96V112.344C202.985 112.525 202.921 112.68 202.793 112.808C202.676 112.936 202.527 113 202.345 113C202.164 113 202.009 112.936 201.881 112.808C201.764 112.68 201.705 112.525 201.705 112.344V101.8C201.705 101.619 201.764 101.469 201.881 101.352C202.009 101.224 202.164 101.16 202.345 101.16C202.537 101.16 202.692 101.224 202.809 101.352C202.927 101.469 202.985 101.619 202.985 101.8V106.584L202.665 106.936C202.719 106.659 202.836 106.381 203.017 106.104C203.199 105.816 203.428 105.56 203.705 105.336C203.983 105.112 204.292 104.936 204.633 104.808C204.975 104.669 205.332 104.6 205.705 104.6ZM214.877 113.16C214.023 113.16 213.277 112.979 212.637 112.616C211.997 112.253 211.495 111.757 211.133 111.128C210.781 110.488 210.605 109.752 210.605 108.92C210.605 107.992 210.786 107.203 211.149 106.552C211.522 105.891 212.002 105.389 212.589 105.048C213.186 104.696 213.815 104.52 214.477 104.52C214.967 104.52 215.442 104.611 215.901 104.792C216.359 104.973 216.765 105.24 217.117 105.592C217.469 105.933 217.751 106.349 217.965 106.84C218.178 107.32 218.29 107.859 218.301 108.456C218.301 108.627 218.237 108.771 218.109 108.888C217.981 109.005 217.831 109.064 217.661 109.064H211.341L211.053 107.96H217.213L216.957 108.184V107.832C216.914 107.395 216.765 107.021 216.509 106.712C216.263 106.392 215.959 106.147 215.597 105.976C215.245 105.805 214.871 105.72 214.477 105.72C214.157 105.72 213.837 105.779 213.517 105.896C213.207 106.003 212.925 106.184 212.669 106.44C212.423 106.685 212.221 107.005 212.061 107.4C211.911 107.795 211.837 108.269 211.837 108.824C211.837 109.443 211.959 109.987 212.205 110.456C212.461 110.925 212.813 111.299 213.261 111.576C213.709 111.843 214.231 111.976 214.829 111.976C215.202 111.976 215.527 111.928 215.805 111.832C216.082 111.736 216.322 111.619 216.525 111.48C216.727 111.331 216.898 111.181 217.037 111.032C217.175 110.936 217.309 110.888 217.437 110.888C217.597 110.888 217.725 110.941 217.821 111.048C217.927 111.155 217.981 111.283 217.981 111.432C217.981 111.613 217.895 111.773 217.725 111.912C217.426 112.243 217.021 112.536 216.509 112.792C215.997 113.037 215.453 113.16 214.877 113.16ZM221.793 112.344C221.793 112.525 221.729 112.68 221.601 112.808C221.473 112.936 221.318 113 221.137 113C220.955 113 220.806 112.936 220.689 112.808C220.571 112.68 220.513 112.525 220.513 112.344V101.8C220.513 101.619 220.571 101.469 220.689 101.352C220.817 101.224 220.971 101.16 221.153 101.16C221.345 101.16 221.499 101.224 221.617 101.352C221.734 101.469 221.793 101.619 221.793 101.8V112.344ZM228.515 104.6C229.241 104.6 229.891 104.781 230.467 105.144C231.043 105.507 231.497 106.008 231.827 106.648C232.169 107.288 232.339 108.024 232.339 108.856C232.339 109.677 232.169 110.413 231.827 111.064C231.497 111.704 231.043 112.211 230.467 112.584C229.902 112.947 229.262 113.128 228.547 113.128C228.153 113.128 227.779 113.069 227.427 112.952C227.086 112.824 226.771 112.664 226.483 112.472C226.206 112.269 225.971 112.045 225.779 111.8C225.587 111.544 225.449 111.293 225.363 111.048L225.715 110.824V115.544C225.715 115.725 225.657 115.88 225.539 116.008C225.422 116.136 225.267 116.2 225.075 116.2C224.894 116.2 224.739 116.136 224.611 116.008C224.494 115.891 224.435 115.736 224.435 115.544V105.32C224.435 105.139 224.494 104.989 224.611 104.872C224.739 104.744 224.894 104.68 225.075 104.68C225.267 104.68 225.422 104.744 225.539 104.872C225.657 104.989 225.715 105.139 225.715 105.32V106.744L225.475 106.616C225.55 106.349 225.678 106.093 225.859 105.848C226.051 105.603 226.281 105.389 226.547 105.208C226.825 105.016 227.129 104.867 227.459 104.76C227.801 104.653 228.153 104.6 228.515 104.6ZM228.371 105.784C227.838 105.784 227.363 105.917 226.947 106.184C226.542 106.451 226.222 106.813 225.987 107.272C225.763 107.731 225.651 108.259 225.651 108.856C225.651 109.443 225.763 109.971 225.987 110.44C226.222 110.909 226.542 111.277 226.947 111.544C227.363 111.811 227.838 111.944 228.371 111.944C228.905 111.944 229.374 111.811 229.779 111.544C230.185 111.277 230.505 110.909 230.739 110.44C230.974 109.971 231.091 109.443 231.091 108.856C231.091 108.259 230.974 107.731 230.739 107.272C230.505 106.813 230.185 106.451 229.779 106.184C229.374 105.917 228.905 105.784 228.371 105.784ZM245.182 104.6C245.363 104.6 245.512 104.664 245.63 104.792C245.758 104.909 245.822 105.059 245.822 105.24V112.216C245.822 113.112 245.646 113.853 245.294 114.44C244.942 115.037 244.467 115.48 243.87 115.768C243.283 116.056 242.616 116.2 241.87 116.2C241.454 116.2 241.054 116.157 240.67 116.072C240.286 115.987 239.971 115.875 239.726 115.736C239.523 115.64 239.379 115.517 239.294 115.368C239.219 115.229 239.208 115.08 239.262 114.92C239.336 114.728 239.443 114.595 239.582 114.52C239.731 114.445 239.886 114.445 240.046 114.52C240.216 114.595 240.462 114.696 240.782 114.824C241.112 114.963 241.48 115.032 241.886 115.032C242.44 115.032 242.915 114.925 243.31 114.712C243.704 114.499 244.008 114.184 244.222 113.768C244.435 113.363 244.542 112.856 244.542 112.248V111.112L244.734 111.512C244.563 111.843 244.334 112.131 244.046 112.376C243.758 112.621 243.427 112.813 243.054 112.952C242.68 113.091 242.27 113.16 241.822 113.16C241.214 113.16 240.696 113.032 240.27 112.776C239.854 112.509 239.534 112.147 239.31 111.688C239.096 111.219 238.99 110.68 238.99 110.072V105.24C238.99 105.059 239.048 104.909 239.166 104.792C239.294 104.664 239.448 104.6 239.63 104.6C239.822 104.6 239.976 104.664 240.094 104.792C240.211 104.909 240.27 105.059 240.27 105.24V109.784C240.27 110.509 240.43 111.059 240.75 111.432C241.07 111.795 241.566 111.976 242.238 111.976C242.664 111.976 243.048 111.88 243.39 111.688C243.742 111.496 244.019 111.235 244.222 110.904C244.435 110.563 244.542 110.189 244.542 109.784V105.24C244.542 105.059 244.6 104.909 244.718 104.792C244.835 104.664 244.99 104.6 245.182 104.6ZM256.131 108.84C256.131 109.672 255.944 110.413 255.571 111.064C255.208 111.715 254.712 112.227 254.083 112.6C253.464 112.973 252.765 113.16 251.987 113.16C251.208 113.16 250.504 112.973 249.875 112.6C249.245 112.227 248.744 111.715 248.371 111.064C248.008 110.413 247.827 109.672 247.827 108.84C247.827 108.008 248.008 107.267 248.371 106.616C248.744 105.965 249.245 105.453 249.875 105.08C250.504 104.707 251.208 104.52 251.987 104.52C252.765 104.52 253.464 104.707 254.083 105.08C254.712 105.453 255.208 105.965 255.571 106.616C255.944 107.267 256.131 108.008 256.131 108.84ZM254.851 108.84C254.851 108.221 254.723 107.677 254.467 107.208C254.221 106.739 253.88 106.371 253.443 106.104C253.016 105.837 252.531 105.704 251.987 105.704C251.443 105.704 250.952 105.837 250.515 106.104C250.088 106.371 249.747 106.739 249.491 107.208C249.235 107.677 249.107 108.221 249.107 108.84C249.107 109.448 249.235 109.987 249.491 110.456C249.747 110.925 250.088 111.299 250.515 111.576C250.952 111.843 251.443 111.976 251.987 111.976C252.531 111.976 253.016 111.843 253.443 111.576C253.88 111.299 254.221 110.925 254.467 110.456C254.723 109.987 254.851 109.448 254.851 108.84ZM264.408 104.728C264.6 104.728 264.755 104.792 264.872 104.92C264.989 105.037 265.048 105.187 265.048 105.368V109.736C265.048 110.813 264.744 111.651 264.136 112.248C263.539 112.835 262.701 113.128 261.624 113.128C260.557 113.128 259.72 112.835 259.112 112.248C258.515 111.651 258.216 110.813 258.216 109.736V105.368C258.216 105.187 258.275 105.037 258.392 104.92C258.52 104.792 258.675 104.728 258.856 104.728C259.048 104.728 259.203 104.792 259.32 104.92C259.437 105.037 259.496 105.187 259.496 105.368V109.736C259.496 110.461 259.683 111.011 260.056 111.384C260.429 111.757 260.952 111.944 261.624 111.944C262.317 111.944 262.845 111.757 263.208 111.384C263.581 111.011 263.768 110.461 263.768 109.736V105.368C263.768 105.187 263.827 105.037 263.944 104.92C264.072 104.792 264.227 104.728 264.408 104.728ZM271.825 104.776H275.585C275.756 104.776 275.895 104.835 276.001 104.952C276.119 105.069 276.177 105.208 276.177 105.368C276.177 105.539 276.119 105.683 276.001 105.8C275.895 105.907 275.756 105.96 275.585 105.96H271.825C271.665 105.96 271.527 105.901 271.409 105.784C271.292 105.667 271.233 105.523 271.233 105.352C271.233 105.192 271.292 105.059 271.409 104.952C271.527 104.835 271.665 104.776 271.825 104.776ZM273.505 102.6C273.687 102.6 273.836 102.664 273.953 102.792C274.071 102.909 274.129 103.059 274.129 103.24V110.968C274.129 111.224 274.167 111.416 274.241 111.544C274.316 111.672 274.412 111.763 274.529 111.816C274.657 111.859 274.78 111.88 274.897 111.88C275.004 111.88 275.095 111.864 275.169 111.832C275.255 111.789 275.351 111.768 275.457 111.768C275.564 111.768 275.66 111.821 275.745 111.928C275.841 112.024 275.889 112.152 275.889 112.312C275.889 112.504 275.777 112.669 275.553 112.808C275.329 112.936 275.079 113 274.801 113C274.652 113 274.465 112.989 274.241 112.968C274.028 112.947 273.815 112.877 273.601 112.76C273.388 112.643 273.207 112.451 273.057 112.184C272.919 111.907 272.849 111.523 272.849 111.032V103.24C272.849 103.059 272.913 102.909 273.041 102.792C273.169 102.664 273.324 102.6 273.505 102.6ZM285.896 108.84C285.896 109.672 285.709 110.413 285.336 111.064C284.973 111.715 284.477 112.227 283.848 112.6C283.229 112.973 282.53 113.16 281.752 113.16C280.973 113.16 280.269 112.973 279.64 112.6C279.01 112.227 278.509 111.715 278.136 111.064C277.773 110.413 277.592 109.672 277.592 108.84C277.592 108.008 277.773 107.267 278.136 106.616C278.509 105.965 279.01 105.453 279.64 105.08C280.269 104.707 280.973 104.52 281.752 104.52C282.53 104.52 283.229 104.707 283.848 105.08C284.477 105.453 284.973 105.965 285.336 106.616C285.709 107.267 285.896 108.008 285.896 108.84ZM284.616 108.84C284.616 108.221 284.488 107.677 284.232 107.208C283.986 106.739 283.645 106.371 283.208 106.104C282.781 105.837 282.296 105.704 281.752 105.704C281.208 105.704 280.717 105.837 280.28 106.104C279.853 106.371 279.512 106.739 279.256 107.208C279 107.677 278.872 108.221 278.872 108.84C278.872 109.448 279 109.987 279.256 110.456C279.512 110.925 279.853 111.299 280.28 111.576C280.717 111.843 281.208 111.976 281.752 111.976C282.296 111.976 282.781 111.843 283.208 111.576C283.645 111.299 283.986 110.925 284.232 110.456C284.488 109.987 284.616 109.448 284.616 108.84ZM294.797 101.16C294.978 101.16 295.128 101.224 295.245 101.352C295.373 101.469 295.437 101.619 295.437 101.8V112.344C295.437 112.525 295.373 112.68 295.245 112.808C295.128 112.936 294.978 113 294.797 113C294.605 113 294.45 112.936 294.333 112.808C294.216 112.68 294.157 112.525 294.157 112.344V110.824L294.461 110.712C294.461 110.968 294.381 111.24 294.221 111.528C294.061 111.805 293.842 112.067 293.565 112.312C293.288 112.557 292.957 112.76 292.573 112.92C292.2 113.08 291.794 113.16 291.357 113.16C290.642 113.16 289.992 112.973 289.405 112.6C288.829 112.227 288.37 111.715 288.029 111.064C287.698 110.413 287.533 109.672 287.533 108.84C287.533 107.997 287.698 107.251 288.029 106.6C288.37 105.949 288.829 105.443 289.405 105.08C289.981 104.707 290.621 104.52 291.325 104.52C291.773 104.52 292.194 104.595 292.589 104.744C292.984 104.893 293.325 105.096 293.613 105.352C293.912 105.608 294.146 105.891 294.317 106.2C294.488 106.509 294.573 106.819 294.573 107.128L294.157 107.032V101.8C294.157 101.619 294.216 101.469 294.333 101.352C294.45 101.224 294.605 101.16 294.797 101.16ZM291.501 111.976C292.034 111.976 292.504 111.843 292.909 111.576C293.325 111.299 293.645 110.925 293.869 110.456C294.104 109.976 294.221 109.437 294.221 108.84C294.221 108.232 294.104 107.693 293.869 107.224C293.645 106.755 293.325 106.387 292.909 106.12C292.504 105.843 292.034 105.704 291.501 105.704C290.978 105.704 290.509 105.843 290.093 106.12C289.688 106.387 289.368 106.755 289.133 107.224C288.898 107.693 288.781 108.232 288.781 108.84C288.781 109.427 288.898 109.96 289.133 110.44C289.368 110.909 289.688 111.283 290.093 111.56C290.509 111.837 290.978 111.976 291.501 111.976ZM304.785 104.648C304.966 104.648 305.116 104.712 305.233 104.84C305.361 104.957 305.425 105.107 305.425 105.288V112.344C305.425 112.525 305.361 112.68 305.233 112.808C305.116 112.936 304.966 113 304.785 113C304.593 113 304.438 112.936 304.321 112.808C304.204 112.68 304.145 112.525 304.145 112.344V110.824L304.449 110.792C304.449 111.027 304.369 111.283 304.209 111.56C304.049 111.837 303.83 112.099 303.553 112.344C303.276 112.579 302.945 112.776 302.561 112.936C302.188 113.085 301.782 113.16 301.345 113.16C300.62 113.16 299.969 112.973 299.393 112.6C298.817 112.216 298.358 111.699 298.017 111.048C297.686 110.397 297.521 109.656 297.521 108.824C297.521 107.981 297.686 107.24 298.017 106.6C298.358 105.949 298.817 105.443 299.393 105.08C299.969 104.707 300.609 104.52 301.313 104.52C301.772 104.52 302.198 104.595 302.593 104.744C302.988 104.893 303.329 105.096 303.617 105.352C303.916 105.608 304.145 105.891 304.305 106.2C304.476 106.509 304.561 106.819 304.561 107.128L304.145 107.032V105.288C304.145 105.107 304.204 104.957 304.321 104.84C304.438 104.712 304.593 104.648 304.785 104.648ZM301.489 111.976C302.022 111.976 302.492 111.837 302.897 111.56C303.313 111.283 303.633 110.909 303.857 110.44C304.092 109.96 304.209 109.421 304.209 108.824C304.209 108.237 304.092 107.709 303.857 107.24C303.633 106.76 303.313 106.387 302.897 106.12C302.492 105.843 302.022 105.704 301.489 105.704C300.966 105.704 300.497 105.837 300.081 106.104C299.676 106.371 299.356 106.739 299.121 107.208C298.886 107.677 298.769 108.216 298.769 108.824C298.769 109.421 298.881 109.96 299.105 110.44C299.34 110.909 299.66 111.283 300.065 111.56C300.481 111.837 300.956 111.976 301.489 111.976ZM314.149 104.6C314.33 104.6 314.48 104.664 314.597 104.792C314.725 104.909 314.789 105.059 314.789 105.24V112.216C314.789 113.112 314.613 113.853 314.261 114.44C313.909 115.037 313.434 115.48 312.837 115.768C312.25 116.056 311.584 116.2 310.837 116.2C310.421 116.2 310.021 116.157 309.637 116.072C309.253 115.987 308.938 115.875 308.693 115.736C308.49 115.64 308.346 115.517 308.261 115.368C308.186 115.229 308.176 115.08 308.229 114.92C308.304 114.728 308.41 114.595 308.549 114.52C308.698 114.445 308.853 114.445 309.013 114.52C309.184 114.595 309.429 114.696 309.749 114.824C310.08 114.963 310.448 115.032 310.853 115.032C311.408 115.032 311.882 114.925 312.277 114.712C312.672 114.499 312.976 114.184 313.189 113.768C313.402 113.363 313.509 112.856 313.509 112.248V111.112L313.701 111.512C313.53 111.843 313.301 112.131 313.013 112.376C312.725 112.621 312.394 112.813 312.021 112.952C311.648 113.091 311.237 113.16 310.789 113.16C310.181 113.16 309.664 113.032 309.237 112.776C308.821 112.509 308.501 112.147 308.277 111.688C308.064 111.219 307.957 110.68 307.957 110.072V105.24C307.957 105.059 308.016 104.909 308.133 104.792C308.261 104.664 308.416 104.6 308.597 104.6C308.789 104.6 308.944 104.664 309.061 104.792C309.178 104.909 309.237 105.059 309.237 105.24V109.784C309.237 110.509 309.397 111.059 309.717 111.432C310.037 111.795 310.533 111.976 311.205 111.976C311.632 111.976 312.016 111.88 312.357 111.688C312.709 111.496 312.986 111.235 313.189 110.904C313.402 110.563 313.509 110.189 313.509 109.784V105.24C313.509 105.059 313.568 104.909 313.685 104.792C313.802 104.664 313.957 104.6 314.149 104.6ZM319.112 107.72C319.112 107.539 319.171 107.389 319.288 107.272C319.416 107.144 319.571 107.08 319.752 107.08C320.222 107.059 320.643 106.957 321.016 106.776C321.39 106.584 321.683 106.317 321.896 105.976C322.12 105.624 322.232 105.208 322.232 104.728C322.232 104.28 322.131 103.885 321.928 103.544C321.736 103.203 321.47 102.936 321.128 102.744C320.798 102.552 320.424 102.456 320.008 102.456C319.614 102.456 319.246 102.541 318.904 102.712C318.563 102.883 318.27 103.107 318.024 103.384C317.907 103.501 317.768 103.581 317.608 103.624C317.459 103.667 317.304 103.635 317.144 103.528C316.963 103.4 316.862 103.251 316.84 103.08C316.83 102.899 316.894 102.733 317.032 102.584C317.384 102.157 317.822 101.821 318.344 101.576C318.867 101.32 319.422 101.192 320.008 101.192C320.659 101.192 321.251 101.341 321.784 101.64C322.318 101.939 322.744 102.355 323.064 102.888C323.384 103.411 323.544 104.024 323.544 104.728C323.544 105.197 323.459 105.629 323.288 106.024C323.128 106.419 322.899 106.771 322.6 107.08C322.302 107.379 321.955 107.619 321.56 107.8C321.166 107.981 320.739 108.093 320.28 108.136C320.248 108.136 320.248 108.136 320.28 108.136C320.312 108.125 320.344 108.109 320.376 108.088V109.4C320.376 109.581 320.318 109.736 320.2 109.864C320.083 109.992 319.934 110.056 319.752 110.056C319.56 110.056 319.406 109.992 319.288 109.864C319.171 109.736 319.112 109.581 319.112 109.4V107.72ZM319.72 113C319.496 113 319.326 112.936 319.208 112.808C319.091 112.669 319.032 112.488 319.032 112.264V111.944C319.032 111.72 319.091 111.544 319.208 111.416C319.326 111.288 319.496 111.224 319.72 111.224H319.864C320.088 111.224 320.259 111.288 320.376 111.416C320.494 111.544 320.552 111.72 320.552 111.944V112.264C320.552 112.488 320.494 112.669 320.376 112.808C320.259 112.936 320.088 113 319.864 113H319.72Z" fill="white"/>
<defs>
<filter id="filter0_f_18_940" x="0" y="0" width="427" height="210" filterUnits="userSpaceOnUse" color-interpolation-filters="sRGB">
<feFlood flood-opacity="0" result="BackgroundImageFix"/>
<feBlend mode="normal" in="SourceGraphic" in2="BackgroundImageFix" result="shape"/>
<feGaussianBlur stdDeviation="40" result="effect1_foregroundBlur_18_940"/>
</filter>
</defs>
</svg>
