<svg width="227" height="227" viewBox="0 0 227 227" fill="none" xmlns="http://www.w3.org/2000/svg">
<g filter="url(#filter0_d_17_785)">
<circle cx="114.5" cy="109.5" r="50.5" fill="#AACD71"/>
<circle cx="114.5" cy="109.5" r="50" stroke="#AACD71"/>
</g>
<path d="M116.856 100.064C116.028 99.181 116.028 97.7486 116.856 96.8652C117.684 95.9818 119.026 95.9818 119.854 96.8652L130.455 108.176C131.283 109.059 131.283 110.492 130.455 111.375L119.854 122.686C119.026 123.569 117.684 123.569 116.856 122.686C116.028 121.803 116.028 120.37 116.856 119.487L123.838 112.038L99.2731 112.038C98.1021 112.038 97.1528 111.025 97.1528 109.776C97.1528 108.526 98.1021 107.513 99.2731 107.513L123.838 107.513L116.856 100.064Z" fill="white"/>
<defs>
<filter id="filter0_d_17_785" x="0.900002" y="0.900002" width="225.2" height="225.2" filterUnits="userSpaceOnUse" color-interpolation-filters="sRGB">
<feFlood flood-opacity="0" result="BackgroundImageFix"/>
<feColorMatrix in="SourceAlpha" type="matrix" values="0 0 0 0 0 0 0 0 0 0 0 0 0 0 0 0 0 0 127 0" result="hardAlpha"/>
<feOffset dx="-1" dy="4"/>
<feGaussianBlur stdDeviation="31.05"/>
<feComposite in2="hardAlpha" operator="out"/>
<feColorMatrix type="matrix" values="0 0 0 0 0.780685 0 0 0 0 0.879167 0 0 0 0 0.620301 0 0 0 1 0"/>
<feBlend mode="normal" in2="BackgroundImageFix" result="effect1_dropShadow_17_785"/>
<feBlend mode="normal" in="SourceGraphic" in2="effect1_dropShadow_17_785" result="shape"/>
</filter>
</defs>
</svg>
