<svg width="1278" height="640" viewBox="0 0 1278 640" fill="none" xmlns="http://www.w3.org/2000/svg">
<g filter="url(#filter0_b_17_835)">
<rect width="1278" height="640" fill="url(#paint0_linear_17_835)" fill-opacity="0.6"/>
<circle cx="651.5" cy="320.5" r="80.5" fill="#AACD71"/>
<path d="M687.5 318.402C689.5 319.557 689.5 322.443 687.5 323.598L635 353.909C633 355.064 630.5 353.62 630.5 351.311L630.5 290.689C630.5 288.38 633 286.936 635 288.091L687.5 318.402Z" fill="white"/>
<path d="M49.5364 45.3475V41.2682C49.5364 38.3587 47.1777 36 44.2682 36C41.3587 36 39 38.3587 39 41.2682V71.7252C39 74.6348 41.3587 76.9934 44.2682 76.9934C47.1777 76.9934 49.5364 74.6348 49.5364 71.7252V65.2256C49.5364 63.465 50.2388 61.7772 51.4878 60.5364L56.1679 55.8872C58.631 53.4404 56.8982 49.2375 53.4264 49.2375C51.278 49.2375 49.5364 47.4958 49.5364 45.3475Z" fill="white"/>
<path d="M60.1001 51.1631V40.95C60.1001 38.2162 62.3163 36 65.05 36C67.7838 36 70 38.2162 70 40.95V72.0435C70 74.7772 67.7838 76.9934 65.05 76.9934H64.5997C62.1146 76.9934 60.1001 74.9789 60.1001 72.4938V71.1807C60.1001 69.0199 58.1229 67.3995 56.0042 67.8239C52.821 68.4615 50.6207 64.7241 52.7229 62.2502L58.5424 55.4017C59.548 54.2183 60.1001 52.716 60.1001 51.1631Z" fill="#AACD71"/>
<path d="M90.096 51.0567C90.6507 51.0567 91.1093 51.238 91.472 51.6007C91.8347 51.9634 92.016 52.4327 92.016 53.0087V66.5447C92.016 67.0994 91.8347 67.5687 91.472 67.9527C91.1093 68.3154 90.6507 68.4967 90.096 68.4967C89.5413 68.4967 89.0827 68.3154 88.72 67.9527C88.3573 67.5687 88.176 67.0994 88.176 66.5447V64.9767L88.88 65.2647C88.88 65.542 88.7307 65.8834 88.432 66.2887C88.1333 66.6727 87.728 67.0567 87.216 67.4407C86.704 67.8247 86.096 68.1554 85.392 68.4327C84.7093 68.6887 83.9627 68.8167 83.152 68.8167C81.68 68.8167 80.3467 68.4434 79.152 67.6967C77.9573 66.9287 77.008 65.8834 76.304 64.5607C75.6213 63.2167 75.28 61.6807 75.28 59.9527C75.28 58.2034 75.6213 56.6674 76.304 55.3447C77.008 54.0007 77.9467 52.9554 79.12 52.2087C80.2933 51.4407 81.5947 51.0567 83.024 51.0567C83.9413 51.0567 84.784 51.1954 85.552 51.4727C86.32 51.75 86.9813 52.102 87.536 52.5287C88.112 52.9554 88.5493 53.3927 88.848 53.8407C89.168 54.2674 89.328 54.63 89.328 54.9287L88.176 55.3447V53.0087C88.176 52.454 88.3573 51.9954 88.72 51.6327C89.0827 51.2487 89.5413 51.0567 90.096 51.0567ZM83.632 65.2967C84.5707 65.2967 85.392 65.062 86.096 64.5927C86.8 64.1234 87.344 63.4834 87.728 62.6727C88.1333 61.862 88.336 60.9554 88.336 59.9527C88.336 58.9287 88.1333 58.0114 87.728 57.2007C87.344 56.39 86.8 55.75 86.096 55.2807C85.392 54.8114 84.5707 54.5767 83.632 54.5767C82.7147 54.5767 81.904 54.8114 81.2 55.2807C80.496 55.75 79.9413 56.39 79.536 57.2007C79.152 58.0114 78.96 58.9287 78.96 59.9527C78.96 60.9554 79.152 61.862 79.536 62.6727C79.9413 63.4834 80.496 64.1234 81.2 64.5927C81.904 65.062 82.7147 65.2967 83.632 65.2967ZM105.038 51.0567C106.531 51.0567 107.864 51.4407 109.038 52.2087C110.232 52.9554 111.171 53.99 111.854 55.3127C112.558 56.6354 112.91 58.1714 112.91 59.9207C112.91 61.67 112.558 63.2167 111.854 64.5607C111.171 65.8834 110.243 66.9287 109.07 67.6967C107.918 68.4434 106.616 68.8167 105.166 68.8167C104.312 68.8167 103.512 68.678 102.766 68.4007C102.019 68.1234 101.358 67.7714 100.782 67.3447C100.227 66.918 99.7898 66.4914 99.4698 66.0647C99.1711 65.6167 99.0218 65.2434 99.0218 64.9447L100.014 64.5287V72.9447C100.014 73.4994 99.8324 73.958 99.4698 74.3207C99.1071 74.7047 98.6484 74.8967 98.0938 74.8967C97.5391 74.8967 97.0804 74.7154 96.7178 74.3527C96.3551 73.99 96.1738 73.5207 96.1738 72.9447V53.3287C96.1738 52.774 96.3551 52.3154 96.7178 51.9527C97.0804 51.5687 97.5391 51.3767 98.0938 51.3767C98.6484 51.3767 99.1071 51.5687 99.4698 51.9527C99.8324 52.3154 100.014 52.774 100.014 53.3287V54.8967L99.4698 54.6087C99.4698 54.3314 99.6191 54.0007 99.9178 53.6167C100.216 53.2114 100.622 52.8167 101.134 52.4327C101.646 52.0274 102.232 51.6967 102.894 51.4407C103.576 51.1847 104.291 51.0567 105.038 51.0567ZM104.558 54.5767C103.619 54.5767 102.798 54.8114 102.094 55.2807C101.39 55.75 100.835 56.39 100.43 57.2007C100.046 57.99 99.8538 58.8967 99.8538 59.9207C99.8538 60.9234 100.046 61.8407 100.43 62.6727C100.835 63.4834 101.39 64.1234 102.094 64.5927C102.798 65.062 103.619 65.2967 104.558 65.2967C105.496 65.2967 106.307 65.062 106.99 64.5927C107.694 64.1234 108.238 63.4834 108.622 62.6727C109.027 61.8407 109.23 60.9234 109.23 59.9207C109.23 58.8967 109.027 57.99 108.622 57.2007C108.238 56.39 107.694 55.75 106.99 55.2807C106.307 54.8114 105.496 54.5767 104.558 54.5767ZM125.132 51.0567C126.625 51.0567 127.958 51.4407 129.132 52.2087C130.326 52.9554 131.265 53.99 131.948 55.3127C132.652 56.6354 133.003 58.1714 133.003 59.9207C133.003 61.67 132.652 63.2167 131.948 64.5607C131.265 65.8834 130.337 66.9287 129.164 67.6967C128.012 68.4434 126.71 68.8167 125.26 68.8167C124.406 68.8167 123.606 68.678 122.86 68.4007C122.113 68.1234 121.452 67.7714 120.876 67.3447C120.321 66.918 119.884 66.4914 119.564 66.0647C119.265 65.6167 119.116 65.2434 119.116 64.9447L120.108 64.5287V72.9447C120.108 73.4994 119.926 73.958 119.564 74.3207C119.201 74.7047 118.742 74.8967 118.188 74.8967C117.633 74.8967 117.174 74.7154 116.812 74.3527C116.449 73.99 116.268 73.5207 116.268 72.9447V53.3287C116.268 52.774 116.449 52.3154 116.812 51.9527C117.174 51.5687 117.633 51.3767 118.188 51.3767C118.742 51.3767 119.201 51.5687 119.564 51.9527C119.926 52.3154 120.108 52.774 120.108 53.3287V54.8967L119.564 54.6087C119.564 54.3314 119.713 54.0007 120.012 53.6167C120.31 53.2114 120.716 52.8167 121.228 52.4327C121.74 52.0274 122.326 51.6967 122.988 51.4407C123.67 51.1847 124.385 51.0567 125.132 51.0567ZM124.652 54.5767C123.713 54.5767 122.892 54.8114 122.188 55.2807C121.484 55.75 120.929 56.39 120.524 57.2007C120.14 57.99 119.948 58.8967 119.948 59.9207C119.948 60.9234 120.14 61.8407 120.524 62.6727C120.929 63.4834 121.484 64.1234 122.188 64.5927C122.892 65.062 123.713 65.2967 124.652 65.2967C125.59 65.2967 126.401 65.062 127.084 64.5927C127.788 64.1234 128.332 63.4834 128.716 62.6727C129.121 61.8407 129.324 60.9234 129.324 59.9207C129.324 58.8967 129.121 57.99 128.716 57.2007C128.332 56.39 127.788 55.75 127.084 55.2807C126.401 54.8114 125.59 54.5767 124.652 54.5767ZM149.065 51.3767C149.62 51.3767 150.079 51.5687 150.441 51.9527C150.804 52.3154 150.985 52.774 150.985 53.3287V66.9287C150.985 68.8914 150.612 70.4487 149.865 71.6007C149.14 72.774 148.159 73.6167 146.921 74.1287C145.684 74.6407 144.297 74.8967 142.761 74.8967C142.079 74.8967 141.353 74.8434 140.585 74.7367C139.817 74.63 139.188 74.47 138.697 74.2567C138.057 73.9794 137.609 73.6274 137.353 73.2007C137.119 72.7954 137.076 72.358 137.225 71.8887C137.417 71.27 137.727 70.8434 138.153 70.6087C138.58 70.3954 139.028 70.374 139.497 70.5447C139.839 70.6514 140.287 70.8114 140.841 71.0247C141.396 71.2594 142.036 71.3767 142.761 71.3767C143.743 71.3767 144.553 71.238 145.193 70.9607C145.855 70.7047 146.345 70.2567 146.665 69.6167C147.007 68.998 147.177 68.1447 147.177 67.0567V64.9127L147.849 65.6807C147.487 66.3847 147.028 66.9714 146.473 67.4407C145.94 67.8887 145.3 68.23 144.553 68.4647C143.807 68.6994 142.953 68.8167 141.993 68.8167C140.863 68.8167 139.871 68.5607 139.017 68.0487C138.185 67.5154 137.535 66.79 137.065 65.8727C136.596 64.934 136.361 63.8674 136.361 62.6727V53.3287C136.361 52.774 136.543 52.3154 136.905 51.9527C137.268 51.5687 137.727 51.3767 138.281 51.3767C138.836 51.3767 139.295 51.5687 139.657 51.9527C140.02 52.3154 140.201 52.774 140.201 53.3287V61.5207C140.201 62.9074 140.5 63.8887 141.097 64.4647C141.716 65.0194 142.569 65.2967 143.657 65.2967C144.404 65.2967 145.033 65.158 145.545 64.8807C146.057 64.582 146.452 64.1554 146.729 63.6007C147.007 63.0247 147.145 62.3314 147.145 61.5207V53.3287C147.145 52.774 147.327 52.3154 147.689 51.9527C148.052 51.5687 148.511 51.3767 149.065 51.3767ZM157.479 46.0647C157.777 46.0647 158.087 46.15 158.407 46.3207C158.748 46.47 159.004 46.6727 159.175 46.9287L166.951 58.8967L165.351 58.8327L173.319 46.9287C173.724 46.3527 174.247 46.0647 174.887 46.0647C175.399 46.0647 175.857 46.246 176.263 46.6087C176.668 46.9714 176.871 47.4407 176.871 48.0167V66.5447C176.871 67.0994 176.689 67.5687 176.327 67.9527C175.964 68.3154 175.484 68.4967 174.887 68.4967C174.289 68.4967 173.799 68.3154 173.415 67.9527C173.052 67.5687 172.871 67.0994 172.871 66.5447V51.4727L174.119 51.7607L167.591 61.7127C167.399 61.9474 167.153 62.15 166.855 62.3207C166.577 62.4914 166.289 62.566 165.991 62.5447C165.713 62.566 165.425 62.4914 165.127 62.3207C164.849 62.15 164.615 61.9474 164.423 61.7127L158.311 52.0487L159.143 50.3527V66.5447C159.143 67.0994 158.972 67.5687 158.631 67.9527C158.289 68.3154 157.841 68.4967 157.286 68.4967C156.753 68.4967 156.316 68.3154 155.975 67.9527C155.633 67.5687 155.463 67.0994 155.463 66.5447V48.0167C155.463 47.4834 155.655 47.0247 156.039 46.6407C156.444 46.2567 156.924 46.0647 157.479 46.0647ZM189.425 68.8167C187.612 68.8167 186.033 68.4434 184.689 67.6967C183.367 66.9287 182.343 65.894 181.617 64.5927C180.913 63.2914 180.561 61.8194 180.561 60.1767C180.561 58.2567 180.945 56.6247 181.713 55.2807C182.503 53.9154 183.527 52.87 184.785 52.1447C186.044 51.4194 187.377 51.0567 188.785 51.0567C189.873 51.0567 190.897 51.2807 191.857 51.7287C192.839 52.1767 193.703 52.7954 194.449 53.5847C195.196 54.3527 195.783 55.2487 196.209 56.2727C196.657 57.2967 196.881 58.3847 196.881 59.5367C196.86 60.0487 196.657 60.4647 196.273 60.7847C195.889 61.1047 195.441 61.2647 194.929 61.2647H182.705L181.745 58.0647H193.489L192.785 58.7047V57.8407C192.743 57.222 192.519 56.6674 192.113 56.1767C191.729 55.686 191.239 55.302 190.641 55.0247C190.065 54.726 189.447 54.5767 188.785 54.5767C188.145 54.5767 187.548 54.662 186.993 54.8327C186.439 55.0034 185.959 55.2914 185.553 55.6967C185.148 56.102 184.828 56.646 184.593 57.3287C184.359 58.0114 184.241 58.8754 184.241 59.9207C184.241 61.0727 184.476 62.054 184.945 62.8647C185.436 63.654 186.055 64.262 186.801 64.6887C187.569 65.094 188.38 65.2967 189.233 65.2967C190.023 65.2967 190.652 65.2327 191.121 65.1047C191.591 64.9767 191.964 64.8274 192.241 64.6567C192.54 64.4647 192.807 64.3047 193.041 64.1767C193.425 63.9847 193.788 63.8887 194.129 63.8887C194.599 63.8887 194.983 64.0487 195.281 64.3687C195.601 64.6887 195.761 65.062 195.761 65.4887C195.761 66.0647 195.463 66.5874 194.865 67.0567C194.311 67.526 193.532 67.942 192.529 68.3047C191.527 68.646 190.492 68.8167 189.425 68.8167ZM214.252 44.8167C214.807 44.8167 215.266 44.998 215.628 45.3607C215.991 45.7234 216.172 46.1927 216.172 46.7687V66.5447C216.172 67.0994 215.991 67.5687 215.628 67.9527C215.266 68.3154 214.807 68.4967 214.252 68.4967C213.698 68.4967 213.239 68.3154 212.876 67.9527C212.514 67.5687 212.332 67.0994 212.332 66.5447V64.9767L213.036 65.2647C213.036 65.542 212.887 65.8834 212.588 66.2887C212.29 66.6727 211.884 67.0567 211.372 67.4407C210.86 67.8247 210.252 68.1554 209.548 68.4327C208.866 68.6887 208.119 68.8167 207.308 68.8167C205.836 68.8167 204.503 68.4434 203.308 67.6967C202.114 66.9287 201.164 65.8834 200.46 64.5607C199.778 63.2167 199.436 61.6807 199.436 59.9527C199.436 58.2034 199.778 56.6674 200.46 55.3447C201.164 54.0007 202.103 52.9554 203.276 52.2087C204.45 51.4407 205.751 51.0567 207.18 51.0567C208.098 51.0567 208.94 51.1954 209.708 51.4727C210.476 51.75 211.138 52.102 211.692 52.5287C212.268 52.9554 212.706 53.3927 213.004 53.8407C213.324 54.2674 213.484 54.63 213.484 54.9287L212.332 55.3447V46.7687C212.332 46.214 212.514 45.7554 212.876 45.3927C213.239 45.0087 213.698 44.8167 214.252 44.8167ZM207.788 65.2967C208.727 65.2967 209.548 65.062 210.252 64.5927C210.956 64.1234 211.5 63.4834 211.884 62.6727C212.29 61.862 212.492 60.9554 212.492 59.9527C212.492 58.9287 212.29 58.0114 211.884 57.2007C211.5 56.39 210.956 55.75 210.252 55.2807C209.548 54.8114 208.727 54.5767 207.788 54.5767C206.871 54.5767 206.06 54.8114 205.356 55.2807C204.652 55.75 204.098 56.39 203.692 57.2007C203.308 58.0114 203.116 58.9287 203.116 59.9527C203.116 60.9554 203.308 61.862 203.692 62.6727C204.098 63.4834 204.652 64.1234 205.356 64.5927C206.06 65.062 206.871 65.2967 207.788 65.2967ZM222.026 68.4647C221.407 68.4647 220.927 68.3047 220.586 67.9847C220.266 67.6434 220.106 67.1634 220.106 66.5447V66.0007C220.106 65.382 220.266 64.9127 220.586 64.5927C220.927 64.2514 221.407 64.0807 222.026 64.0807H222.442C223.061 64.0807 223.53 64.2514 223.85 64.5927C224.191 64.9127 224.362 65.382 224.362 66.0007V66.5447C224.362 67.1634 224.191 67.6434 223.85 67.9847C223.53 68.3047 223.061 68.4647 222.442 68.4647H222.026ZM235.915 51.0567C237.131 51.0567 238.187 51.1847 239.083 51.4407C240 51.6967 240.704 52.0594 241.195 52.5287C241.707 52.9767 241.963 53.5207 241.963 54.1607C241.963 54.5874 241.835 54.9927 241.579 55.3767C241.323 55.7394 240.949 55.9207 240.459 55.9207C240.117 55.9207 239.829 55.878 239.595 55.7927C239.381 55.686 239.189 55.558 239.019 55.4087C238.848 55.2594 238.645 55.1207 238.411 54.9927C238.197 54.8647 237.867 54.7687 237.419 54.7047C236.992 54.6194 236.672 54.5767 236.459 54.5767C235.371 54.5767 234.443 54.8114 233.675 55.2807C232.928 55.75 232.352 56.39 231.947 57.2007C231.541 57.99 231.339 58.9074 231.339 59.9527C231.339 60.9767 231.541 61.894 231.947 62.7047C232.373 63.494 232.949 64.1234 233.675 64.5927C234.421 65.062 235.275 65.2967 236.235 65.2967C236.768 65.2967 237.227 65.2647 237.611 65.2007C237.995 65.1367 238.315 65.0407 238.571 64.9127C238.869 64.742 239.136 64.5607 239.371 64.3687C239.605 64.1767 239.957 64.0807 240.427 64.0807C240.981 64.0807 241.408 64.262 241.707 64.6247C242.005 64.966 242.155 65.3927 242.155 65.9047C242.155 66.438 241.856 66.9287 241.259 67.3767C240.661 67.8034 239.872 68.1554 238.891 68.4327C237.931 68.6887 236.885 68.8167 235.755 68.8167C234.069 68.8167 232.608 68.4327 231.371 67.6647C230.133 66.8754 229.173 65.8087 228.491 64.4647C227.829 63.1207 227.499 61.6167 227.499 59.9527C227.499 58.2034 227.851 56.6674 228.555 55.3447C229.28 54.0007 230.272 52.9554 231.531 52.2087C232.811 51.4407 234.272 51.0567 235.915 51.0567ZM261.532 59.9527C261.532 61.702 261.137 63.2487 260.348 64.5927C259.58 65.9154 258.534 66.95 257.212 67.6967C255.91 68.4434 254.449 68.8167 252.828 68.8167C251.206 68.8167 249.734 68.4434 248.412 67.6967C247.11 66.95 246.065 65.9154 245.276 64.5927C244.508 63.2487 244.124 61.702 244.124 59.9527C244.124 58.2034 244.508 56.6674 245.276 55.3447C246.065 54.0007 247.11 52.9554 248.412 52.2087C249.734 51.4407 251.206 51.0567 252.828 51.0567C254.449 51.0567 255.91 51.4407 257.212 52.2087C258.534 52.9554 259.58 54.0007 260.348 55.3447C261.137 56.6674 261.532 58.2034 261.532 59.9527ZM257.692 59.9527C257.692 58.8647 257.468 57.926 257.02 57.1367C256.593 56.326 256.006 55.6967 255.26 55.2487C254.534 54.8007 253.724 54.5767 252.828 54.5767C251.932 54.5767 251.11 54.8007 250.364 55.2487C249.638 55.6967 249.052 56.326 248.604 57.1367C248.177 57.926 247.964 58.8647 247.964 59.9527C247.964 61.0194 248.177 61.958 248.604 62.7687C249.052 63.558 249.638 64.1767 250.364 64.6247C251.11 65.0727 251.932 65.2967 252.828 65.2967C253.724 65.2967 254.534 65.0727 255.26 64.6247C256.006 64.1767 256.593 63.558 257.02 62.7687C257.468 61.958 257.692 61.0194 257.692 59.9527ZM273.885 51.0567C275.591 51.0567 276.85 51.4727 277.661 52.3047C278.471 53.1154 279.005 54.1714 279.26 55.4727L278.717 55.1847L278.972 54.6727C279.229 54.182 279.623 53.6594 280.157 53.1047C280.69 52.5287 281.33 52.0487 282.077 51.6647C282.845 51.2594 283.698 51.0567 284.637 51.0567C286.173 51.0567 287.335 51.3874 288.125 52.0487C288.935 52.71 289.49 53.5954 289.789 54.7047C290.087 55.7927 290.237 57.0087 290.237 58.3527V66.5447C290.237 67.0994 290.055 67.5687 289.693 67.9527C289.33 68.3154 288.871 68.4967 288.317 68.4967C287.762 68.4967 287.303 68.3154 286.941 67.9527C286.578 67.5687 286.397 67.0994 286.397 66.5447V58.3527C286.397 57.6487 286.311 57.0194 286.141 56.4647C285.97 55.8887 285.661 55.43 285.213 55.0887C284.765 54.7474 284.125 54.5767 283.293 54.5767C282.482 54.5767 281.789 54.7474 281.213 55.0887C280.637 55.43 280.199 55.8887 279.901 56.4647C279.623 57.0194 279.485 57.6487 279.485 58.3527V66.5447C279.485 67.0994 279.303 67.5687 278.941 67.9527C278.578 68.3154 278.119 68.4967 277.565 68.4967C277.01 68.4967 276.551 68.3154 276.189 67.9527C275.826 67.5687 275.645 67.0994 275.645 66.5447V58.3527C275.645 57.6487 275.559 57.0194 275.389 56.4647C275.218 55.8887 274.909 55.43 274.461 55.0887C274.013 54.7474 273.373 54.5767 272.541 54.5767C271.73 54.5767 271.037 54.7474 270.461 55.0887C269.885 55.43 269.447 55.8887 269.149 56.4647C268.871 57.0194 268.733 57.6487 268.733 58.3527V66.5447C268.733 67.0994 268.551 67.5687 268.189 67.9527C267.826 68.3154 267.367 68.4967 266.812 68.4967C266.258 68.4967 265.799 68.3154 265.437 67.9527C265.074 67.5687 264.893 67.0994 264.893 66.5447V53.3287C264.893 52.774 265.074 52.3154 265.437 51.9527C265.799 51.5687 266.258 51.3767 266.812 51.3767C267.367 51.3767 267.826 51.5687 268.189 51.9527C268.551 52.3154 268.733 52.774 268.733 53.3287V54.7047L268.253 54.6087C268.445 54.246 268.711 53.862 269.053 53.4567C269.394 53.03 269.81 52.6354 270.301 52.2727C270.791 51.91 271.335 51.622 271.933 51.4087C272.53 51.174 273.181 51.0567 273.885 51.0567Z" fill="white"/>
</g>
<defs>
<filter id="filter0_b_17_835" x="-11.4" y="-11.4" width="1300.8" height="662.8" filterUnits="userSpaceOnUse" color-interpolation-filters="sRGB">
<feFlood flood-opacity="0" result="BackgroundImageFix"/>
<feGaussianBlur in="BackgroundImageFix" stdDeviation="5.7"/>
<feComposite in2="SourceAlpha" operator="in" result="effect1_backgroundBlur_17_835"/>
<feBlend mode="normal" in="SourceGraphic" in2="effect1_backgroundBlur_17_835" result="shape"/>
</filter>
<linearGradient id="paint0_linear_17_835" x1="704" y1="386" x2="639" y2="640" gradientUnits="userSpaceOnUse">
<stop stop-color="#027E6D" stop-opacity="0.96"/>
<stop offset="1" stop-color="#AACD71" stop-opacity="0.88"/>
</linearGradient>
</defs>
</svg>
